<mxfile host="65bd71144e">
    <diagram id="rtAgkxPcyQ5dLZVhfjbE" name="Page-1">
        <mxGraphModel dx="401" dy="1427" grid="0" gridSize="10" guides="1" tooltips="1" connect="1" arrows="1" fold="1" page="0" pageScale="1" pageWidth="850" pageHeight="1100" background="#ffffff" math="0" shadow="0">
            <root>
                <mxCell id="0"/>
                <mxCell id="1" parent="0"/>
                <mxCell id="544" value="" style="rounded=0;whiteSpace=wrap;html=1;fillColor=#FFFFFF;strokeColor=#36393d;strokeWidth=2;" parent="1" vertex="1">
                    <mxGeometry x="2795" y="-192" width="450" height="371" as="geometry"/>
                </mxCell>
                <mxCell id="534" value="" style="rounded=0;whiteSpace=wrap;html=1;fontSize=27;fontColor=#000000;strokeColor=#000000;strokeWidth=2;fillColor=none;" parent="1" vertex="1">
                    <mxGeometry x="2200" y="-1" width="480" height="180" as="geometry"/>
                </mxCell>
                <mxCell id="484" value="" style="group;rotation=0;strokeWidth=2;fontSize=27;" parent="1" vertex="1" connectable="0">
                    <mxGeometry x="2805" y="19" width="440" height="160" as="geometry"/>
                </mxCell>
                <mxCell id="486" value="" style="group;rotation=0;strokeWidth=2;fontSize=27;" parent="484" vertex="1" connectable="0">
                    <mxGeometry width="440" height="160" as="geometry"/>
                </mxCell>
                <mxCell id="541" value="" style="shape=image;verticalLabelPosition=bottom;labelBackgroundColor=#ffffff;verticalAlign=top;aspect=fixed;imageAspect=0;image=data:image/png,iVBORw0KGgoAAAANSUhEUgAAARQAAAE7CAYAAAAcin6aAAAAAXNSR0IArs4c6QAAAARnQU1BAACxjwv8YQUAAAAJcEhZcwAAEnQAABJ0Ad5mH3gAAC/NSURBVHhe7Z0JvE5V98f3zexmCgmvKYQIyaxkVrnmJKEMVyrJUJl1kSSSKSmUyixvmcscMlyELplveBH+hswX4fzvOi2697nrOc8+5znnec6wvp/Pqr23u895zrnn+d21195n7QglEcEwDGMC9+H/Pcu1a9fE2LFjsZacuLg40b9/f6wxDBMITwsKOGdNmzYV3bt3F82aNcPWf+jTp4+oVKmSGDZsmGjUqJG4ePEi/gvDMH6BIY9Xady4MQz37lmiuKjtAwcOTNYOVqpUKWXHjh3qvzMMQ+PZGEqrVq3E7NmzsfYvxYsXF/v27cNaciIjI8W0adNUr4ZhmJR4UlA6duwovvrqK6zpZ9SoUaJnz55YYxjmLp6Lobz55ptBiQnw9ttvi65du2KNYZi7eMpDeffdd8XHH3+MteBp0KCBmD59usiaNSu2MIy38YyH8t5775kqJsCSJUtEtWrVxI4dO7CFYbyNJzyUkSNHil69emHNfDJmzKgGa32nnhnGa7heUGbNmiVeeuklrFkLeEAQX2EYr+JqQVm/fr2oXr061kJDly5dxKeffoo1hvEWrhWUw4cPq2Jy/PhxbAkdzz33nBqszZYtG7YwjDdwZVD25s2b6jBHr5jAezsTJkzAmnGWLl2qBmu3b9+OLQzjEcBDcRvNmzcHr0uX9ejRA3sryscff0z+jF5Lnz69Mm/ePDwqw7gf1wlKt27dyC+3lr322mvY+1+GDh1K/qwRGzlyJB6VYdyNqwQFvrjUF1rLnn/+eeydksQhENnHiL3xxht4VIZxL64RlFmzZpFfZC2rXLmycvPmTTwCDQgB1deIPfvss8rZs2fxyAzjPlwxy7N7925RsWJFkZCQgC2ByZcvn1i7dq0oVKgQtvinSZMmYsGCBVgLDnibGWaAnnjiCWxhGPfgCkFJ9DREbGws1gITEREh1q1bJ5588kls0Qayuj399NNi27Zt2BIc6dKlU0UlcbiFLQzjDhw/bfzqq6/qEhNg5syZ0mICwNJ66JM7d25sCY4bN26IFi1aqK8EMIyrAA/FqYwfPz5ZjELGgplxWbNmDXnMYOz111/HozOM83GsoCQOWcgvqJbBlHKwJA5VyGMHY88884xy5swZPAPDOBdHCsqFCxeURx55hPxy+jNY7GYWH330EXmOYKxYsWLKli1b8AwM40wcKSiwdoT6UvozSDCdkJCAvc3hrbfeIs8VjKVNm1aZM2cOnoFhnIfjBGXIkCHkl1HLYmNjsbe5REVFkecL1sADYhgn4ihBWbx4MfkF1LJJkyZhb/M5ffq0UrBgQfK8wRr1OgDD2B3HrEO5evWqKFOmjIiPj8eWwEBC6vHjx2PNGlatWiXq1KmDNXOpX7++mgkuZ86c2MIw9sYx61C6deumS0wgF4rVYgLUrl1bjB49GmvmsmzZMnW9zJYtW7CFYWyO6qfYnMS/0imGBFqWNWtW5cCBA9g7NHTs2JH8LGZYmjRplNmzZ+OZGMa+2H7IA0mSYKhz/vx5bAnMvHnzRPPmzbEWOmAvZCu9iQ8//FDdc5lh7IrthzywkbkeMRk4cGBYxASYMmWKyJAhA9bMp2/fvqJz585YYxgbovopNkXv0vrnnnsOe4aPmTNnkp/NTKtXr546w8QwdsO2Qx5ISQBDnTt37mCLNvAC32+//SaKFCmCLeGjX79+6vDESooWLarOAMEwi2Hsgm2HPDCrIysmwNixY20hJsCwYcN0vc1shIMHD6rnmD17NrYwTPixpaB88MEHYvXq1VgLTOvWrUV0dDTW7EEopqxv3bolWrVqZbk3xDCy2G7Is2/fPlGiRAmsBSZPnjwiLi5OZM+eHVvsA3hNEFSWJVOmTOLy5ctY00enTp3EpEmTsMYw4cF2HgrMZOgBvrR2FBMAhm169jsGMYG4kREmT54s6tatK06fPo0tDBMGwEOxC3oXsHXp0gV72pfjx48riYJHfn7KYBHbq6++Sv6bjBUuXFjZtGkTnp1hQottPBTI26rHOylZsqTqndidvHnz6oqn/P333+LChQuGdzCE1xMgWAubxDNMqLGNoMBUq56tQ0FMUqVKhTV7A4FTPQvS5s6dq+6LDFuaGhnO3b59W92KFWabGCakoKcSVtauXUu67/4s6bahTuHGjRtKiRIlyOuhLH/+/Eqi16bs3btXKV++PPkzMhYdHY2fgGGsxxaCUq1aNfLLQFmBAgWU69evY09nsWzZMvKa/BlkhQPgelu0aEH+jIzVrl1bOXnypHoshrGSsAvKqFGjyC+BP4Ol7U5G706Eq1evxp6K0qtXL/JnZOzhhx9WNm7ciEdiGGsIq6AcPXpUSZcuHfkFoMzMRNPh4uLFi0qePHnI66OsYsWK2PMfJk6cSP6cjEVERCgzZszAIzGM+YRVUPRMj8KXIdQ5Tqzim2++Ia/Rnw0bNgx7/sNPP/2k5MiRg/xZGRs6dCgeiWHMJWyCAltGUA+7P/vwww+xpzto1qwZeZ2UgZgePnwYe/7Dvn37lAoVKpA/L2OQEIphzCZsgtK4cWPyQacMvjhuY//+/cp9991HXi9lHTp0wJ7/AjNHL7zwAvnzMlarVi3lxIkTeDSGCZ6wCMrChQvJB9yfrVixAnu6ixEjRpDX68/Wr1+PPZPTu3dv8udlrFChQsovv/yCR2KY4AiLoFSqVIl8uClz+96/VatWJa+bMkis5I/PP/+c7CNrsMUqwwRLyAVl8uTJ5ANNGeyk53aXXO8ezbNmzcKeKYF1Ljlz5iT7ydj777+PR2IYY4RcUPRsjDV48GDs5W7efPNN8vope/TRR7EXDcyEwVQz1VfGqFgNw8gSUkGB6UrqIaYsX758yu3bt7Gnuzl16pQSGRlJ3gfKRo4ciT1p/v77b6Vly5ZkXxmrWbOm+pY0w+glZIICS7/Tp09PPsCUffHFF9jTGwwfPpy8D5RlzpxZOXfuHPb0T58+fcj+MgaepL8gMMP4I2SC8vbbb5MPLmXwMpwXKVasGHk/KOvWrRv20gaEmeova99++y0eiWECExJBgS0fUqdOTT6wlM2fPx97eguYaaHuhz/btWsX9tRm+fLlSq5cuchjyJhXYllM8IREUPr27Us+qJRFRUVhL28CbwZT94Wy9u3bY6/AHDx4UNd0va/pORfjXSwXlPPnzysZMmQgH1LKvJ6+8Oeffybviz+T9VKAW7duKS+++CJ5HBmrUaOGcuzYMTwaw6TE8oxtY8aMEQkJCVjTpmPHjqJy5cpY8yZPP/20eOWVV7AWmE8++QRLgYEMd5AaUm8i8Lskip2aXnL9+vXYwjA+oLBYwpUrV5QsWbKQf+0o0/PX1s0cOnSIvD/+zMh9mzRpEnksWYM3phnGF0s9FPBOLl68iDVtXn75ZVGqVCmseZvChQuLXr16YS0weryUu8A+PitWrBAPPfQQtugDvKjBgwdjjWEQFBbTgTdh9eTs2L59O/ZkAFjspmdmzKh3B95QlSpVyGPKWKKw4JEYxkIPBbyTs2fPYk0byAr/+OOPY40BcuXKJXr27Im1wIwaNQpL+gBv6JdfflGz5Bshceijxn2OHTuGLYynQWExHT1pDmNjY7EXkxS9XkpcXBz2NEa/fv3I48oYZOmH3QsYb2OJoEyZMoV86ChzQ55YK9GTmLpdu3bYyzh63gan7Ouvv8YjMV7EEkGpXLky+bBRxu+LaKPXS4FMcMGycuVKJXfu3OTxZSwmJgaPxHgN0wVl1apV5ENGWaNGjbAXo4UeL6Vnz57YKzji4+N1JX/ytZdffhmPxHgJ0wWlVatW5ANGWdI9Zxj/6PFSIA3C1atXsWdw3LlzR2ndujV5Hhl76qmn1K1SGO9gqqBAZnbqwaIMHjZGHj1eyieffIK9zGHAgAHkeWTsP//5j/o6AeMNTBWU/v37kw8VZfxavD7AS6HuI2WQBsFsvvzyS/JcsjZ16lQ8EuNmTBUU2Vfk8+bNiz0YPXTu3Jm8n5TNmTMHe5kHxMf0LAfwtffeew+PxLgV0xa2ffXVV+L06dNY0waWfTP6SRQULAVm0qRJWDKPWrVqqYvgqlWrhi36GDJkiPqKBeNiUFiCRs9UMecrNQ7ki6HuKWUbNmzAXubTpk0b8pwy9uSTTypHjhzBIzFuwhQPBV5n37x5M9a0gb9QiUMerDF60eOlfPHFF1gyn2nTpomBAwdiTR93vRxIh8C4DBSWoIDNuOBQMgb70DDBUbZsWfLeUma1J5A41CXPK2vQn3EPpngokLRHBkjO89RTT2GNMYoeL+Xrr7/GkjW0b99erFmzxrDX2aFDB/Hee+9hjXE8KCyGgZ3s4DAyxkl5zAEWnMmmhihatCj2shbwhCA2Qn0GGYOYDON8gvZQZL2TBx54gCP8JhERESHtpRw8eFD89NNPWLOOAgUKqLG0tm3bYos+pk+frnqwhw8fxhbGiQQlKH/++adYuHAh1rSBnCeMeegZ9syYMQNL1vPtt98aHsJs2LBBFZXVq1djC+M40FMxxMcff0y6r5T98ssv2IsxixdeeIG815TB7gOhBFbGUp9D1mBlLuM8gvJQZIc7jz32mOHFUIx/WrdujaXAhNJLAdq1a6dOC//nP//BFn3ADghGp6WZMILCopstW7aQf1koGzZsGPZizKZAgQLkPfc12OQrHMDbxvAiKPWZZAzedoYgNOMMDHsost4J8OKLL2KJMRtZLyU2NlZs3boVa6Ejf/78Yt26dYYD8uBZQVzljz/+wBbGzhgWlNmzZ2NJm2eeeUYUKlQIa4zZtGnTBkuBgZmUcAHJrGNiYrCmj40bN6qismrVKmxhbAt6KrrQs10m5xi1Htn9kLNnz449wgc8D9RnkzXIecvYF0MeyqJFi7CkTcaMGXm6OATIeinnzp0T33//PdbCA2wQtnbtWnUoZAR4U71///5YY+yGpYICYpI2bVqsMVYBcZT7778fa9rMnz8fS+GjevXq6guCsJ+PEYYNG6Ze8507d7CFsQu6BWX79u3iwIEDWNOmYcOGWGKsJE2aNNJeih0EBciXL586raxnY/ikzJw5U42rxMfHYwtjB3QLiqx3kiFDBhaUECK789/ly5dtIyoAvLw4aNAgrOlj06ZNqqisXLkSW5hwY5mggJjcd5+hERVjAHiLu2DBgljTZsGCBViyBzD7A7NARjh16pSoW7eumDx5MrYw4UTXNx5eNPv111+xpg17J6GnSZMmWNLGTh7KXWCdCqxXgZcMjfDqq6+Kfv36YY0JF7oERdY7AVhQQk/jxo2xpM2FCxd0/S5DBXhZEKytUaMGtujjww8/VCcCbt++jS1MqLFEUJ599lmRJUsWrDGhAr6IEOyUwY5eCgDv/kDCJkjcZARYcAnvjR06dAhbmFAiLShnzpyRzgHK3kn4kB322C2O4gvsogBZ8o0ArxlAsHbFihXYwoQKaUGBvxqysKCED1lBgUVuS5cuxZo9gbeNIb+KEWBLl3r16lmynQjjH9MFBf4yGH1lnQke2DsnT548WNNm8eLFWLIvkAEOMsHJzmD5Aomo+vbtizXGakwXFIifMOFF1ktxyvoN+CMFwdqaNWtiiz6GDx+uvvF+69YtbGGsQkpQ4NXx/fv3Y00boxF6xjxkBQWWAezbtw9r9gay6kNqSMiSb4Q5c+aowVq4ZsY6pARF1jvJmjWrqFq1KtaYcAELveB3IYPTApdffvmleP/997Gmjy1btqiisnz5cmxhzMZUQWHvxD7UqVMHS9o4cdn6gAEDDOd2gdnK+vXrW7qropeREhTZ6WKjY1zGfMBLkcGp78HA28YQVzGavOu1114Tffr0wRpjFgEF5bfffhMnTpzAmjYsKPZB1kO5du2aYzOhwfAFRAVmtozw0UcfiZYtW4qbN29iCxMsAQVF1juBqWLIbs/Yg4cffliULFkSa9o4+W1dmCIHQYQs+UaYO3euOoskO+nAaBNQUGTjJ+yd2A9ZL8UNK0qnTJkihg4dijV9QPJuEJVly5ZhC2OUgIICy5hl4ICs/ZCNo8Ab5CdPnsSac4HUkJAlH7Zq1cvZs2fVhOqff/45tjBG0BQU2GcW8k3IwB6K/QAPRTYnjVsyykOiKdjSFIZ8Rnj99ddF7969scboRfNpk93HBZZF81YZ9iNdunTSw57NmzdjyflUqVJFFZXatWtjiz5GjBghXnjhBXHjxg1sYWQxRVAqVKiAJcZuyAoKpFN0Ew899JAabI6OjsYWfXz33XdqXMUpK4ntgimCUr58eSwxdgOSFskAycevXLmCNfcAqSE/+OADrOlj27Ztqqj8+OOP2MIEgj0Ul1O5cmXprUzcNOxJCqSGhCz5qVKlwhZ5IM3Dc889Jz777DNsYbTwKyiwoA0WPcnAHoq9AVGRwa2CAkBqSFgEV6RIEWzRR5cuXUSvXr2wxvjDr6DIeielS5cWmTJlwhpjRyBIKYPb4ii+gLCCqMjGlXwZOXKkaNGihbh+/Tq2ML4ELSg83LE/7KH8S65cudSFfLClqRHmzZunxlX27t2LLUxSghYUHu7YH1lBOX/+vNi1axfW3A2khoQtTY0ACwFBVOyeQjMckIKiKIoaQ5GBPRT7A1OojzzyCNa08YKXchdIDTlr1iyROnVqbJEHxLdBgwZiwoQJ2MIApKDA3LvMRtSwcOqJJ57AGmNnZOMoXhIUAFJDQlylaNGi2KKPN998U7zzzjtYY0hBkR0fyr7NyoQf2WGPrGfqJipVqqSKCmTJN8KoUaNE8+bNRUJCArZ4F78eigwlSpTAEmN3ZD0Ur8RQfHnwwQfVt41hS1MjfP/992pcZc+ePdjiTYLyUIoXL44lxu6UKVNGKlYAyYa8/KWA1JCwpakRYLUxiMqSJUuwxXuwh+IhSpUqhSVtdu/ejSVvAqkhYUvTNGnSYIs8f/31l4iKihKffvoptngL9lA8hKygeHXYkxRIDQlxFdnZMV+6du0q3n77bax5hxSCAjlQrl69ijX/QBIb9lCchWyKTq97KHepWLGiKiqQJd8In3zyiWjWrJn0KyxuIIWg6BnuyCbvYewBD3n0kzNnTvHTTz+pWfKN8MMPP6jJtH///XdscTcpFIGHO+5F1kM5dOiQuHz5MtYYYOLEiWqWfCPs3LlTFRUn7CUdLCkE5cCBA1jShoc7ziNfvnwie/bsWNOGvZSUwNvGsKWpbDqIpFy8eFE0bNhQjB8/HlvcSQpBOXbsGJa0YQ/FmfCwJzggNSTEVYoVK4Yt+njrrbdEz549seY+UgjK8ePHsaRNgQIFsMQ4CdlhD79N6x94fw1EBbLkG2H06NGiadOmUpMfTsOwoMDGXozzkPVQjhw5giWGIkeOHGpqSMiSb4T58+ercRW3eYLJBAUCcfAWpQwwHmech+z2EiwockBqSMiSbwR4bwpEZdGiRdjifJIJiqx3Ats/Gnnlmwk/studsKDI8+6776pZ8uHte71cunRJNGrUSIwbNw5bnI0hQeHhjnOBPZRkgCXkst4qI8Tzzz+v7gVkdLKiW7duokePHlhzLskERXaGhwXFuYBnmT9/fqxpw16KPiA3EARrn332WWzRx5gxY0STJk0cvQbIkIfC8RNnw8Me64B1PpAa8o033sAWfSxYsEB9YzkuLg5bnAV7KB5EdtjDgmIcSA0JWfKNAGICorJw4UJscQ7soXgQWUGBF0UZ40BqSMiSnz59emyRB4Y9jRs3FmPHjsUWZxChQEZqBBbswPaLgYBxIkx3Mc7km2++Ee3atcOafyCvh5umNMMFJF5q06aN4cWCELCF+MpdTpw4oSZxgv//+eef4uTJk8ksd+7cKQxGFZBUO2/evHgUa0gmKLCrWnx8PNb8AzeGl947l7Vr14oaNWpgzT+wCI5zo5gDzJqBqBjdeuPpp58W1atXF6tWrRIbN27EVv1UrVpV3VoVxKVs2bLYaiIgKHfJnj07iEtAS1RB7ME4kSNHjpC/V1978MEHsQdjFl26dCHvdTisaNGiyqhRo/CTmUMyDwWmFG/fvo01/0B2byPjQsYewO8vY8aMWPMP5LuReR4YfUCWfDttvVG4cGE17WV0dDS2GOeeoEAQKHPmzGqjFhkyZPBUBiq3Ar9rmfUOZ86cUd9bYcwFsuS3bdvWVt+lcuXKid69e6tvVBvl3iwPjPFkyJo1K5YYJyMrEmfPnsUSYyaQGhImN+y0txUEjyGXrtGtRIB7gnLhwgUsacOC4g5kBQU8FMYaHn/8cVVUatWqhS32YPLkyWrQ3sg6JBYUj8Ieij3YsmWLLXPPwEwgzAgtX74cW+TQLSjZsmXDEuNkWFDCz5QpU9SM+rB2xI7A54LPB59TFo6heBTI5i4DC4o1wF/+Tp06Yc3ewOeU9VTuCYrsG44sKO6APZTwsX//fnWRWzDAlD6sZIZs/LCaGVa4w8pZmOaH/0Md2uHfITl2sFvewOeFzx0QmDYGRo8enWzRiz/r3r079mCczKRJk8jfr6+1bdsWezBmkJCQoJQvX5681zLWtGlTZd68ecq1a9fwiHLAz0M/6E8dV8bgc8Pn1+KebN26dQtL2nCmNncg66HA9g+MecBfepn35XyBmSAYdsD6lebNm6vrwfQAPw/9oD8cx8jMEnzuQJ4VC4pHiYyMxJI2169fxxITLPBS5n//+1+syZEqVSoxbdo09R2eunXrYmtwwHHgeHBcOL4e4PPDdfiDBcWjyL46wYJiHh988AGW5IDN9OBFwGDjLf6A48Lx9W7ap3UdLCgehQUltMA2pgcPHsRaYCCQCl922LDdSuD4cB44nyxwHf62ZWVB8SgsKKEDZsqGDh2KtcCULl1aTJ8+PWQzqnAeOB+cVxa4HmoGkAXFo8gKCryZzAQHDBGuXLmCNW2yZMmifrllXtQ1EzifnvPC9VBDHxYUj8IeSuiYNWsWlgIDW2nIbhdrNnBePVt5UNfFguJRWFBCw+rVq8Xp06expg28gRwTE4O18DBo0CD1c8gA1wXXlxTdgpImTRosMU6GBSU06MnJO2DAACyFFz2fw/f67gmKrOdx8+ZNLDFOhgUlNMgKSpcuXdR0BnYAPofsvkJ+BYUfMG+RNm1aqfc7/v77b04DaZCtW7dKJX0HZIcZoQJW1coA1wfXeRcWFA+j/JtOWJNgXyzzKrLZ6XPlymW7JEvweeBzyZD0OllQPAp4HTKCAkuzIyIisMboAfbMkUHPorJQIvu5kl4nC4pH4Vk964E0AjLAfjt2BPYCkiHpdd4TFNm3F1lQ3AELivXIeih58uTBkr2Q3WVwxowZqhcLxh6KR4FgqwwsKMZxuqDA9qV60S0ovBTbHbCHYj1e8VCSwh6KR2FBYQIh68UmhQXFo7CgWI+s5yHryYQaI5/rnqDI7HULyGbHZ+wNC4r1eFpQOAu6t2BBsR5PCwrv0+ItZLdN0ZsMmfkX2aDmunXrsGQvjHyuZB6KzIpIeBA5juJ8eOtZ65H1UBYvXowle6HnTem73BMUQHbYwxtoOx8WFOuBvYFlOHXqVIq8IuFGTx6XpBgSFB72OB/Z4DrvZW2cChUqiMKFC2NNG9gvx07IbvcB1wfvhN01FhSPwh5KaJB9wW7ChAlix44dWAsv8Dk+++wzrGnje33JBIUDs96BBSU06HmTWE9mfCvR8zk0BYU9FO/AghIa9OQVgWHP4MGDsRYeIKes7PCLyuPCguJROIYSOlq1aoWlwIwePVrs2rULa6EFzgvnl4W6LkOCcuzYMSwxToU9lNDRv39/cf/992NNG9icHrYIvXTpEraEBjifnvPC9cB1+ZJMUPLly4clbY4cOYIlxqmwoIQO+EOtJ5N8XFyc+uWW/R0FC5wHzgfnlQWuh3RAlCRs3boVcgIGtIIFC2IPxqkULlyY/N362o4dO7AHEwyJQ0wlMjKSvMf+rESJEkpsbCwewRrg+HAe6vz+rGjRotg7Jck8lEKFCmFJG/BQ7ty5gzXGiRw/fhxL2tg1V4eT2Llzp7o1xdWrV7FFjr1796qL42CLUCuA48Lx4Tx6oIY690BhuUeWLFlIVfK1+Ph47ME4jVOnTpG/U19Lnz499mCMsmbNGiVx2EjeXz1Wq1YtZfny5XjU4IDjwPGo8wSy5s2b41FoUghKmTJlyAP52sqVK7EH4zRkh7ZFihTBHowRRo8ebYqYJLWmTZsq8+bNU65du4ZnkQN+HvpBf+q4Mla+fHklISEBj0iTQlAaN25MHszXpkyZgj0Yp/HDDz+Qv1Nfq1mzJvZg9ADxknbt2pH31Cy77777lIYNGyoTJ05UFi1apGzbtk05ceKEcvv2bfX/UId2+PeoqCj156njyFrOnDmVffv24RX6J4WgdO/enTygrw0YMAB7ME5j3Lhx5O/U19q2bYs9GFlATJo0aULeTyfbsmXL8Aq1SRaUBQoWLIglbQ4fPowlxmnIBmRllxEw/3A3+Dp//nxscQeTJ08W9erVw5o2hgWF16I4F1lBMbKNglf5+eefReIQ0dD3wq5bvebOnVskeiYiOjoaWwJjWFD0TjUx9oEFxVzGjBkjmjZtamghGiwcnDhxovQufaECPg/sWSzrmdwDhz73uHz5MjmGouzo0aPYi3ESDz/8MPn79DVe1KZNsMHXsmXLKocPH8ajKUqnTp3Inwu1wecwSgpBAWC6kDqRry1ZsgR7ME7h+vXr5O+SsjNnzmAvxpdgg681atRQj+HLnDlzlMcff5zsY7WVK1dOPX8wkIIie6OGDx+OPRinsHPnTvJ36WuwfoKhAc8NXj+h7puMwUwqJSZJmTx5svTrEcEanAfOZwZkNOixxx7Dkja7d+/GEuMUZGNfJUqUwBKTFJjBMRp8hXjJ1KlT1RQBUNYCAqGHDh0So0aNEkWLFsVWc4HjwvHhPHoCr5qgsCQD3B74p0AGY0DGWcTExJC/S19r37499mDuEszKV+gHCwqNAl7R0KFDlapVq5LHlzXoD8exKj4WAf9JPFEy9uzZI0qWLIk1/6RKlUrd/1Rm+w3GHrRs2VLMnTsXa/4ZMWKEePfdd7HmbWD2pkePHuLrr7/GFn0k/uEViWIiPYMaiBMnToglS5aos3UnT55MYTDdm9TgBU/YI6hBgwaGNkDXhSorBOnSpUuhbpTFxcVhD8YJlC5dmvw9+trChQuxh7exKvjqVvyuqClVqhSWtOE4irOQjaEUL14cS94l2JWv3bt3Vz2TQPESNxG0oIQr/yWjn/3796tD1EAkeqeWBQKdQqiCr27Dr6DIzvRs3boVS4zd4RkeOSDzezArX0FM2rVrhy3eImgPZdOmTVhi7M6+ffuwpI1XhzsgIO3btze8lQUEX3fs2CGaNGmCLd7Dr6DANooyQFq77du3Y42xM7/++iuWtPGih3JXTIzO5NSoUUOsWbPGtJkcp+JXUB544AHpYQ97Kc5g27ZtWNLGax4KB1/Nw6+gAJUrV8aSNps3b8YSY1dg7YJsgFHWO3UDHHw1F1MEhT0U+yMbPIeFULK7HzgdDr6aj6agVKlSBUvaxMfHq38BGfsiO9zxgnfCwVfr0BQUCM7lzJkTa9rwsMfeyHoobhcUDr5ai6agABxHcQfsoXDwNRQEFBTZYQ/HUewLLGg7f/481rQpX748ltwFB19Dg2keyoYNGwwFtxjrkR3uFCtWTGTPnh1r7oGDr6HDNEEBVq5ciSXGTnh1uMPB19ATUFAyZMggnnzySaxpw4JiTyCIKIObBIWDr+EhoKAAderUwZI2K1aswBJjF44dOyadYsIt8RMOvoYPKUGpW7culrT5448/1GxvjH2Q9U4iIyNF1apVseZcOPgaXqQEBR402WAdeyn2Ana0kwFcfKfDwdfwIyUogOywh+Mo9kLWQ4G/6k6Fg6/2wRJBUVLmvWbCAKw/kXX9nSoocH3glRgNvoKIcPDVPEwXlOvXr7OXYhNkvZNcuXKJcuXKYc05QPAVhFB2WOcLBF9hmMPxEvOQFhRQ8NKlS2NNm+XLl2OJCSeyguLE+AlsUM7BV/shLSiArJdidLqOMRfZv9xOG+5A8BX2yeHgq/2wRFBga0N+tye8bNy4UZw9exZr2jhFUDj4an90CQqsR4GVszIsWLAAS0w4WLx4MZa0KVy4sHjkkUewZl84+OoMdAlK6tSppdWdhz3hZdGiRVjSxgneCQdfnYMuQQFkBQU2ldqyZQvWmFACm6/JLrevV68eluwJB1+dhW5Bady4sUibNi3WtGEvJTzIDnfA42zYsCHW7AcHX52HbkGBbSplvRSOo4QH2eEOiEn69OmxZh84+OpcdAsKIPuLghcFZTeXYswBhgayM2xRUVFYsg8cfHU2hgUF3GUZeNgTWmSHO4DdhjsQdA0m+BoTE8NpB8KMIUGBqWOIpcgwb948LDGhQHa4A2uKZHc0CAUQfAXPJJjgK8RcmPBiSFAA2WEPbNDN7/aEhnPnzkm/9mCn4Q4EXjn46g6CEpSIiAisaTN9+nQsMVYyd+5cLAXGDsOdu8FX8E6MwMFXG6IEQbNmzSBPQUBLnTq1cunSJezFWEX16tXJ++9rlSpVwh7h4/Dhw0qNGjXIzydjiSKi/PXXX3g0xi4Y9lCANm3aYEmbW7dusZdiMb///rtYt24d1rQJ93CHg68uBoXFMHnz5iX/gvhatWrVsAdjBQMGDCDvO2W7d+/GXqFn9OjRSqIQkJ8rkEG/qVOn4pEYOxK0oPTu3Zv85VP266+/Yi/GbAoXLkzec1+DYVG46N69O/mZZAzEJNErwSMxdiWoIQ/QunVrLAVmxowZWGLMBBKDx8fHY02bF198EUuhA4KvMCXMwVcPgMISFLLBtQcffBB7MGbSvn178n5TFupAJgdfvUXQHgog66X83//9n66pTSYwN27cELNmzcKaNuCdhDKQycFXD4LCEhQJCQlKhgwZyL8wvla7dm3sxZgBBCmp+0zZggULsJf1cPDVm5giKEB0dDT5cFC2YcMG7MUES926dcl77Gt58uTBHtbDwVfvYsqQB5BdkwJ88cUXWGKCYdu2bdI7NbZq1QpL1sHBV8Y0DwVIfCDIvzqUHT16FHsxRuncuTN5bylLFB/sZQ3BBl/Bq+Hgq/MxVVA+++wz8mGhrF+/ftiLMcK5c+eUVKlSkffW1ypUqIC9rGHNmjVKwYIFyXPLWExMDB6JcTqmCsrt27eVHDlykA+Nr2XPnl25desW9mT08tFHH5H3lbLx48djL/Ph4CuTFFMFBejfvz/58FA2YcIE7MXopUiRIuQ99bXMmTMr169fx17mAcOTYIKv4NGAZ8O4C9MFBWIj1ANEWenSpbEXo4fvvvuOvJ+U9ezZE3uZB4gJLDijzidjEGuDmAvjPkwXFOCVV14hHyTKQrk2wi3Uq1ePvJeU7dmzB3uZw44dO3QF332Ng6/uxhJB2bhxI/kwUQbrKBh5YLaGuo+UgRdhJjBEMRovAePgq/uxRFCAOnXqkA8VZT/++CP2YgLx2muvkfeQssWLF2Ov4OHgKyODZYIyd+5c8uGijL0UOY4cOULeP8rMik9x8JXRg2WCAhQvXpx8yChjLyUwer7Y48aNw17GCTb4CgvdOPjqLSwVFHioqQeNMvZStPnzzz/J+0ZZpkyZlGvXrmFPY3DwlTGCpYIC6FlByV6Kf3r16kXeM8p69OiBvYwRbPAV4i2MN7FcUNhLCZ4zZ84oadOmJe8ZZfHx8dhTPxx8ZYLBckEB2EsJDj2rj+GFQSNw8JUxg5AICnspxrlw4YISGRlJ3ivK9u7diz3l4eArYxYhERRAj5eycOFC7MUMGjSIvEeUdejQAXvJw8FXxkxCJijwxiv1QFJm9ev2TgFmavTEM+Li4rCnHBx8ZcwmZIIC6PFSILeK19GzeVebNm2wlxzBBl85TSNDEVJB0eOl5M6dO+i1FE4GVsVGRESQ94Yy2YxsHHxlrCSkggIUKlSIfFAp83JWt06dOpH3hLKWLVtiL204+MpYTcgFZdKkSeTD6s8OHDiAPb1DbGwseS/82aZNm7CnfyD4qmfI6WscfGVkCLmgAFWqVCEfWsratm2LvbxDo0aNyHtBWfPmzbGXfzj4yoSKsAjK0qVLyQfXn61evRp7uh+YMqfugT8Dz0MLDr4yoSQsggK0aNGCfIgpq1mzJvZyPxUrViTvAWVdunTBXinh4CsTDsImKLBmgnqQ/ZkX3hHRE19Kly6d+gYyBQdfmXARNkEB4K1Y6oGmLFeuXK4PChYoUIC8dsqGDBmCvZLDwVcmnIRVUM6fP69kyZKFfLApM/rimxPo06cPec2U5c+fX7lz5w72/Jdggq/Qj4OvTLCEVVCAUaNGkQ+4P3Pj28hbt24lr9WfwdDIFw6+MnYg7IIClCpVinzQKStTpgz2cg96EnpD0DYpwQZf4cXAQDNFDCOLLQRlzpw55MPuz9y0HcPEiRPJa/RnSfcxMiP4yvESxkxsIShAq1atyIfen23fvh17OpfTp0/rGqY0bNgQe3LwlbEnthEU2MI0Q4YM5MNPWf369bGnc+nYsSN5bf5s586daj8OvjJ2xTaCAowdO5b8EvgzJ6c4WLJkCXlN/mzgwIFqPw6+MnbGVoICwKpY6stAWebMmZU//vgDezoL2IiLuibKSpYsycFXxhHYTlD0vmkbFRWFPZ3D4MGDyWvxZzNnzuTgK+MIbCcoQN++fckvhj8bMWIE9rQ/69atI6/Bn0EgloOvjFOIgP8kPni249FHHxV79+7FWmA2b94sKlWqhDX7Uq5cOZE49MCaNhkzZhSpU6cWly5dwhZ5smbNKmJiYkSioGALw1jPffh/2zF8+HAsyfHWW29hyb707NlTWkwA0HqjYjJ16lQWEyb0gIdiV9q3b5/Chdeyd955B3vaD715TowaB1+ZcGLbIQ8Af53LlCkjjhw5gi2BWbRokYiKisKaPbh8+bJ6HYcPH8YWa6hRo4b44YcfVA+FYcKBbYc8QObMmcX48eOxJkfXrl0NDROspFu3bpaLCQxvWEyYsKP6KTYHhjLwUWXtlVdewZ7h55tvviE/o1kGi9V45StjF2w95EkKzOBs2bIFa4EZN26c6q2Ek2PHjqlDnb/++gtbzOVu8LVJkybYwjDhxTGCEhsbKypXrow1OVavXi1q1qyJtdDTsGFDsXjxYqyZS9myZdUhTsGCBbGFYcKPrWMoSQEPZcSIEViTIzo6Wpw9exZroaV///6WiQkEX9esWcNiwtgP8FCcRIMGDZLFEAIZ7HETambPnk1+FjOMV74ydsZxggIvA2bKlIn8svmzRG8Be1vP3r17dX8+GePgK+MEHCcoAGypQX3ptAy8hlBQrVo18vzBGIgJpx1gnIAjBQXo2rUr+eXzZ5GRkcrvv/+Ova3h9ddfJ88djMHKV94jh3EKjpnloYAZnJ9//hlrgYFZok2bNmHNXD7//HORKChYMwde+co4DcfM8lB8+eWXIkeOHFgLDLyR3KFDB6yZx8aNG00XE175yjgS1U9xMPPnz08xTAhkAwYMwN7Bc+7cOeXRRx8lz2PEOPjKOBnHCwrw/vvvk19OLYPtK8wAkmVTxzdiHHxlnI4rBAVo2bIl+SXVMkgpEAx6s9ZrGQdfGTfg6KBsUq5cuaKupt2zZw+2BOb+++8Xa9euVbOo6WXQoEFi8ODBWAsODr4ybsHRQdmkgDhMmTIFa3KACL300kvi9OnT2CIHnMcsMeHgK+MqVD/FRcBG4nBZeqxWrVrYOzBLly4lj6HXOPjKuBHXCQoAm2JRX2Ita9u2Lfb2T1xcnCoEVH89xsFXxq24UlCADh06kF9mLevVqxf2Tsn58+eVUqVKkf30GAdfGTfjWkEBjEzpxsTEYO/kPPPMM+TP6zHecItxO64WFKNexfDhw/EI/9CsWTPy5/QYpx1gvICrBQXYtWuXki1bNvJLrmWwcTvQunVr8t9ljYOvjJdwzToULZYtWyYShyxYk+epp54S69evx5p+YCqYc74yXsITggJ89dVXomPHjlizHs75yngR1yxsCwS8ZTxkyBCsWQvnfGW8imcEBRg4cKC66ZaV8MpXxst4ZsiTlM6dO4tJkyZhzRxAQGJiYniDcsbTeFJQgJdffllMmzYNa8HBwVeG+QfPCgrQokULMW/ePKwZg4OvDPMvnhYUICoqSixZsgRr+uC0AwyTHE8FZSnmz58vatWqhTV5OPjKMCnxvIcCXL58WdSvX18qI366dOnE8OHDOfjKMASe91CATJkyqZ4KxEOAKlWqqP/3JW3atGL27NksJgzjB/ZQknD06FHxv//9T11y37RpU1Vk7pItWzaxfft2Dr4yjAYsKH64cOGCupHYzp07OfjKMJKwoGgAojJmzBh1iMNiwjCBYUFhGMYkhPh/ghwuM1WE94UAAAAASUVORK5CYII=;rotation=0;" parent="486" vertex="1">
                    <mxGeometry width="51.7" height="59" as="geometry"/>
                </mxCell>
                <mxCell id="542" value="" style="shape=image;verticalLabelPosition=bottom;labelBackgroundColor=#ffffff;verticalAlign=top;aspect=fixed;imageAspect=0;image=data:image/png,iVBORw0KGgoAAAANSUhEUgAAARQAAAE7CAYAAAAcin6aAAAAAXNSR0IArs4c6QAAAARnQU1BAACxjwv8YQUAAAAJcEhZcwAAEnQAABJ0Ad5mH3gAAC/NSURBVHhe7Z0JvE5V98f3zexmCgmvKYQIyaxkVrnmJKEMVyrJUJl1kSSSKSmUyixvmcscMlyELplveBH+hswX4fzvOi2697nrOc8+5znnec6wvp/Pqr23u895zrnn+d21195n7QglEcEwDGMC9+H/Pcu1a9fE2LFjsZacuLg40b9/f6wxDBMITwsKOGdNmzYV3bt3F82aNcPWf+jTp4+oVKmSGDZsmGjUqJG4ePEi/gvDMH6BIY9Xady4MQz37lmiuKjtAwcOTNYOVqpUKWXHjh3qvzMMQ+PZGEqrVq3E7NmzsfYvxYsXF/v27cNaciIjI8W0adNUr4ZhmJR4UlA6duwovvrqK6zpZ9SoUaJnz55YYxjmLp6Lobz55ptBiQnw9ttvi65du2KNYZi7eMpDeffdd8XHH3+MteBp0KCBmD59usiaNSu2MIy38YyH8t5775kqJsCSJUtEtWrVxI4dO7CFYbyNJzyUkSNHil69emHNfDJmzKgGa32nnhnGa7heUGbNmiVeeuklrFkLeEAQX2EYr+JqQVm/fr2oXr061kJDly5dxKeffoo1hvEWrhWUw4cPq2Jy/PhxbAkdzz33nBqszZYtG7YwjDdwZVD25s2b6jBHr5jAezsTJkzAmnGWLl2qBmu3b9+OLQzjEcBDcRvNmzcHr0uX9ejRA3sryscff0z+jF5Lnz69Mm/ePDwqw7gf1wlKt27dyC+3lr322mvY+1+GDh1K/qwRGzlyJB6VYdyNqwQFvrjUF1rLnn/+eeydksQhENnHiL3xxht4VIZxL64RlFmzZpFfZC2rXLmycvPmTTwCDQgB1deIPfvss8rZs2fxyAzjPlwxy7N7925RsWJFkZCQgC2ByZcvn1i7dq0oVKgQtvinSZMmYsGCBVgLDnibGWaAnnjiCWxhGPfgCkFJ9DREbGws1gITEREh1q1bJ5588kls0Qayuj399NNi27Zt2BIc6dKlU0UlcbiFLQzjDhw/bfzqq6/qEhNg5syZ0mICwNJ66JM7d25sCY4bN26IFi1aqK8EMIyrAA/FqYwfPz5ZjELGgplxWbNmDXnMYOz111/HozOM83GsoCQOWcgvqJbBlHKwJA5VyGMHY88884xy5swZPAPDOBdHCsqFCxeURx55hPxy+jNY7GYWH330EXmOYKxYsWLKli1b8AwM40wcKSiwdoT6UvozSDCdkJCAvc3hrbfeIs8VjKVNm1aZM2cOnoFhnIfjBGXIkCHkl1HLYmNjsbe5REVFkecL1sADYhgn4ihBWbx4MfkF1LJJkyZhb/M5ffq0UrBgQfK8wRr1OgDD2B3HrEO5evWqKFOmjIiPj8eWwEBC6vHjx2PNGlatWiXq1KmDNXOpX7++mgkuZ86c2MIw9sYx61C6deumS0wgF4rVYgLUrl1bjB49GmvmsmzZMnW9zJYtW7CFYWyO6qfYnMS/0imGBFqWNWtW5cCBA9g7NHTs2JH8LGZYmjRplNmzZ+OZGMa+2H7IA0mSYKhz/vx5bAnMvHnzRPPmzbEWOmAvZCu9iQ8//FDdc5lh7IrthzywkbkeMRk4cGBYxASYMmWKyJAhA9bMp2/fvqJz585YYxgbovopNkXv0vrnnnsOe4aPmTNnkp/NTKtXr546w8QwdsO2Qx5ISQBDnTt37mCLNvAC32+//SaKFCmCLeGjX79+6vDESooWLarOAMEwi2Hsgm2HPDCrIysmwNixY20hJsCwYcN0vc1shIMHD6rnmD17NrYwTPixpaB88MEHYvXq1VgLTOvWrUV0dDTW7EEopqxv3bolWrVqZbk3xDCy2G7Is2/fPlGiRAmsBSZPnjwiLi5OZM+eHVvsA3hNEFSWJVOmTOLy5ctY00enTp3EpEmTsMYw4cF2HgrMZOgBvrR2FBMAhm169jsGMYG4kREmT54s6tatK06fPo0tDBMGwEOxC3oXsHXp0gV72pfjx48riYJHfn7KYBHbq6++Sv6bjBUuXFjZtGkTnp1hQottPBTI26rHOylZsqTqndidvHnz6oqn/P333+LChQuGdzCE1xMgWAubxDNMqLGNoMBUq56tQ0FMUqVKhTV7A4FTPQvS5s6dq+6LDFuaGhnO3b59W92KFWabGCakoKcSVtauXUu67/4s6bahTuHGjRtKiRIlyOuhLH/+/Eqi16bs3btXKV++PPkzMhYdHY2fgGGsxxaCUq1aNfLLQFmBAgWU69evY09nsWzZMvKa/BlkhQPgelu0aEH+jIzVrl1bOXnypHoshrGSsAvKqFGjyC+BP4Ol7U5G706Eq1evxp6K0qtXL/JnZOzhhx9WNm7ciEdiGGsIq6AcPXpUSZcuHfkFoMzMRNPh4uLFi0qePHnI66OsYsWK2PMfJk6cSP6cjEVERCgzZszAIzGM+YRVUPRMj8KXIdQ5Tqzim2++Ia/Rnw0bNgx7/sNPP/2k5MiRg/xZGRs6dCgeiWHMJWyCAltGUA+7P/vwww+xpzto1qwZeZ2UgZgePnwYe/7Dvn37lAoVKpA/L2OQEIphzCZsgtK4cWPyQacMvjhuY//+/cp9991HXi9lHTp0wJ7/AjNHL7zwAvnzMlarVi3lxIkTeDSGCZ6wCMrChQvJB9yfrVixAnu6ixEjRpDX68/Wr1+PPZPTu3dv8udlrFChQsovv/yCR2KY4AiLoFSqVIl8uClz+96/VatWJa+bMkis5I/PP/+c7CNrsMUqwwRLyAVl8uTJ5ANNGeyk53aXXO8ezbNmzcKeKYF1Ljlz5iT7ydj777+PR2IYY4RcUPRsjDV48GDs5W7efPNN8vope/TRR7EXDcyEwVQz1VfGqFgNw8gSUkGB6UrqIaYsX758yu3bt7Gnuzl16pQSGRlJ3gfKRo4ciT1p/v77b6Vly5ZkXxmrWbOm+pY0w+glZIICS7/Tp09PPsCUffHFF9jTGwwfPpy8D5RlzpxZOXfuHPb0T58+fcj+MgaepL8gMMP4I2SC8vbbb5MPLmXwMpwXKVasGHk/KOvWrRv20gaEmeova99++y0eiWECExJBgS0fUqdOTT6wlM2fPx97eguYaaHuhz/btWsX9tRm+fLlSq5cuchjyJhXYllM8IREUPr27Us+qJRFRUVhL28CbwZT94Wy9u3bY6/AHDx4UNd0va/pORfjXSwXlPPnzysZMmQgH1LKvJ6+8Oeffybviz+T9VKAW7duKS+++CJ5HBmrUaOGcuzYMTwaw6TE8oxtY8aMEQkJCVjTpmPHjqJy5cpY8yZPP/20eOWVV7AWmE8++QRLgYEMd5AaUm8i8Lskip2aXnL9+vXYwjA+oLBYwpUrV5QsWbKQf+0o0/PX1s0cOnSIvD/+zMh9mzRpEnksWYM3phnGF0s9FPBOLl68iDVtXn75ZVGqVCmseZvChQuLXr16YS0weryUu8A+PitWrBAPPfQQtugDvKjBgwdjjWEQFBbTgTdh9eTs2L59O/ZkAFjspmdmzKh3B95QlSpVyGPKWKKw4JEYxkIPBbyTs2fPYk0byAr/+OOPY40BcuXKJXr27Im1wIwaNQpL+gBv6JdfflGz5Bshceijxn2OHTuGLYynQWExHT1pDmNjY7EXkxS9XkpcXBz2NEa/fv3I48oYZOmH3QsYb2OJoEyZMoV86ChzQ55YK9GTmLpdu3bYyzh63gan7Ouvv8YjMV7EEkGpXLky+bBRxu+LaKPXS4FMcMGycuVKJXfu3OTxZSwmJgaPxHgN0wVl1apV5ENGWaNGjbAXo4UeL6Vnz57YKzji4+N1JX/ytZdffhmPxHgJ0wWlVatW5ANGWdI9Zxj/6PFSIA3C1atXsWdw3LlzR2ndujV5Hhl76qmn1K1SGO9gqqBAZnbqwaIMHjZGHj1eyieffIK9zGHAgAHkeWTsP//5j/o6AeMNTBWU/v37kw8VZfxavD7AS6HuI2WQBsFsvvzyS/JcsjZ16lQ8EuNmTBUU2Vfk8+bNiz0YPXTu3Jm8n5TNmTMHe5kHxMf0LAfwtffeew+PxLgV0xa2ffXVV+L06dNY0waWfTP6SRQULAVm0qRJWDKPWrVqqYvgqlWrhi36GDJkiPqKBeNiUFiCRs9UMecrNQ7ki6HuKWUbNmzAXubTpk0b8pwy9uSTTypHjhzBIzFuwhQPBV5n37x5M9a0gb9QiUMerDF60eOlfPHFF1gyn2nTpomBAwdiTR93vRxIh8C4DBSWoIDNuOBQMgb70DDBUbZsWfLeUma1J5A41CXPK2vQn3EPpngokLRHBkjO89RTT2GNMYoeL+Xrr7/GkjW0b99erFmzxrDX2aFDB/Hee+9hjXE8KCyGgZ3s4DAyxkl5zAEWnMmmhihatCj2shbwhCA2Qn0GGYOYDON8gvZQZL2TBx54gCP8JhERESHtpRw8eFD89NNPWLOOAgUKqLG0tm3bYos+pk+frnqwhw8fxhbGiQQlKH/++adYuHAh1rSBnCeMeegZ9syYMQNL1vPtt98aHsJs2LBBFZXVq1djC+M40FMxxMcff0y6r5T98ssv2IsxixdeeIG815TB7gOhBFbGUp9D1mBlLuM8gvJQZIc7jz32mOHFUIx/WrdujaXAhNJLAdq1a6dOC//nP//BFn3ADghGp6WZMILCopstW7aQf1koGzZsGPZizKZAgQLkPfc12OQrHMDbxvAiKPWZZAzedoYgNOMMDHsost4J8OKLL2KJMRtZLyU2NlZs3boVa6Ejf/78Yt26dYYD8uBZQVzljz/+wBbGzhgWlNmzZ2NJm2eeeUYUKlQIa4zZtGnTBkuBgZmUcAHJrGNiYrCmj40bN6qismrVKmxhbAt6KrrQs10m5xi1Htn9kLNnz449wgc8D9RnkzXIecvYF0MeyqJFi7CkTcaMGXm6OATIeinnzp0T33//PdbCA2wQtnbtWnUoZAR4U71///5YY+yGpYICYpI2bVqsMVYBcZT7778fa9rMnz8fS+GjevXq6guCsJ+PEYYNG6Ze8507d7CFsQu6BWX79u3iwIEDWNOmYcOGWGKsJE2aNNJeih0EBciXL586raxnY/ikzJw5U42rxMfHYwtjB3QLiqx3kiFDBhaUECK789/ly5dtIyoAvLw4aNAgrOlj06ZNqqisXLkSW5hwY5mggJjcd5+hERVjAHiLu2DBgljTZsGCBViyBzD7A7NARjh16pSoW7eumDx5MrYw4UTXNx5eNPv111+xpg17J6GnSZMmWNLGTh7KXWCdCqxXgZcMjfDqq6+Kfv36YY0JF7oERdY7AVhQQk/jxo2xpM2FCxd0/S5DBXhZEKytUaMGtujjww8/VCcCbt++jS1MqLFEUJ599lmRJUsWrDGhAr6IEOyUwY5eCgDv/kDCJkjcZARYcAnvjR06dAhbmFAiLShnzpyRzgHK3kn4kB322C2O4gvsogBZ8o0ArxlAsHbFihXYwoQKaUGBvxqysKCED1lBgUVuS5cuxZo9gbeNIb+KEWBLl3r16lmynQjjH9MFBf4yGH1lnQke2DsnT548WNNm8eLFWLIvkAEOMsHJzmD5Aomo+vbtizXGakwXFIifMOFF1ktxyvoN+CMFwdqaNWtiiz6GDx+uvvF+69YtbGGsQkpQ4NXx/fv3Y00boxF6xjxkBQWWAezbtw9r9gay6kNqSMiSb4Q5c+aowVq4ZsY6pARF1jvJmjWrqFq1KtaYcAELveB3IYPTApdffvmleP/997Gmjy1btqiisnz5cmxhzMZUQWHvxD7UqVMHS9o4cdn6gAEDDOd2gdnK+vXrW7qropeREhTZ6WKjY1zGfMBLkcGp78HA28YQVzGavOu1114Tffr0wRpjFgEF5bfffhMnTpzAmjYsKPZB1kO5du2aYzOhwfAFRAVmtozw0UcfiZYtW4qbN29iCxMsAQVF1juBqWLIbs/Yg4cffliULFkSa9o4+W1dmCIHQYQs+UaYO3euOoskO+nAaBNQUGTjJ+yd2A9ZL8UNK0qnTJkihg4dijV9QPJuEJVly5ZhC2OUgIICy5hl4ICs/ZCNo8Ab5CdPnsSac4HUkJAlH7Zq1cvZs2fVhOqff/45tjBG0BQU2GcW8k3IwB6K/QAPRTYnjVsyykOiKdjSFIZ8Rnj99ddF7969scboRfNpk93HBZZF81YZ9iNdunTSw57NmzdjyflUqVJFFZXatWtjiz5GjBghXnjhBXHjxg1sYWQxRVAqVKiAJcZuyAoKpFN0Ew899JAabI6OjsYWfXz33XdqXMUpK4ntgimCUr58eSwxdgOSFskAycevXLmCNfcAqSE/+OADrOlj27Ztqqj8+OOP2MIEgj0Ul1O5cmXprUzcNOxJCqSGhCz5qVKlwhZ5IM3Dc889Jz777DNsYbTwKyiwoA0WPcnAHoq9AVGRwa2CAkBqSFgEV6RIEWzRR5cuXUSvXr2wxvjDr6DIeielS5cWmTJlwhpjRyBIKYPb4ii+gLCCqMjGlXwZOXKkaNGihbh+/Tq2ML4ELSg83LE/7KH8S65cudSFfLClqRHmzZunxlX27t2LLUxSghYUHu7YH1lBOX/+vNi1axfW3A2khoQtTY0ACwFBVOyeQjMckIKiKIoaQ5GBPRT7A1OojzzyCNa08YKXchdIDTlr1iyROnVqbJEHxLdBgwZiwoQJ2MIApKDA3LvMRtSwcOqJJ57AGmNnZOMoXhIUAFJDQlylaNGi2KKPN998U7zzzjtYY0hBkR0fyr7NyoQf2WGPrGfqJipVqqSKCmTJN8KoUaNE8+bNRUJCArZ4F78eigwlSpTAEmN3ZD0Ur8RQfHnwwQfVt41hS1MjfP/992pcZc+ePdjiTYLyUIoXL44lxu6UKVNGKlYAyYa8/KWA1JCwpakRYLUxiMqSJUuwxXuwh+IhSpUqhSVtdu/ejSVvAqkhYUvTNGnSYIs8f/31l4iKihKffvoptngL9lA8hKygeHXYkxRIDQlxFdnZMV+6du0q3n77bax5hxSCAjlQrl69ijX/QBIb9lCchWyKTq97KHepWLGiKiqQJd8In3zyiWjWrJn0KyxuIIWg6BnuyCbvYewBD3n0kzNnTvHTTz+pWfKN8MMPP6jJtH///XdscTcpFIGHO+5F1kM5dOiQuHz5MtYYYOLEiWqWfCPs3LlTFRUn7CUdLCkE5cCBA1jShoc7ziNfvnwie/bsWNOGvZSUwNvGsKWpbDqIpFy8eFE0bNhQjB8/HlvcSQpBOXbsGJa0YQ/FmfCwJzggNSTEVYoVK4Yt+njrrbdEz549seY+UgjK8ePHsaRNgQIFsMQ4CdlhD79N6x94fw1EBbLkG2H06NGiadOmUpMfTsOwoMDGXozzkPVQjhw5giWGIkeOHGpqSMiSb4T58+ercRW3eYLJBAUCcfAWpQwwHmech+z2EiwockBqSMiSbwR4bwpEZdGiRdjifJIJiqx3Ats/Gnnlmwk/studsKDI8+6776pZ8uHte71cunRJNGrUSIwbNw5bnI0hQeHhjnOBPZRkgCXkst4qI8Tzzz+v7gVkdLKiW7duokePHlhzLskERXaGhwXFuYBnmT9/fqxpw16KPiA3EARrn332WWzRx5gxY0STJk0cvQbIkIfC8RNnw8Me64B1PpAa8o033sAWfSxYsEB9YzkuLg5bnAV7KB5EdtjDgmIcSA0JWfKNAGICorJw4UJscQ7soXgQWUGBF0UZ40BqSMiSnz59emyRB4Y9jRs3FmPHjsUWZxChQEZqBBbswPaLgYBxIkx3Mc7km2++Ee3atcOafyCvh5umNMMFJF5q06aN4cWCELCF+MpdTpw4oSZxgv//+eef4uTJk8ksd+7cKQxGFZBUO2/evHgUa0gmKLCrWnx8PNb8AzeGl947l7Vr14oaNWpgzT+wCI5zo5gDzJqBqBjdeuPpp58W1atXF6tWrRIbN27EVv1UrVpV3VoVxKVs2bLYaiIgKHfJnj07iEtAS1RB7ME4kSNHjpC/V1978MEHsQdjFl26dCHvdTisaNGiyqhRo/CTmUMyDwWmFG/fvo01/0B2byPjQsYewO8vY8aMWPMP5LuReR4YfUCWfDttvVG4cGE17WV0dDS2GOeeoEAQKHPmzGqjFhkyZPBUBiq3Ar9rmfUOZ86cUd9bYcwFsuS3bdvWVt+lcuXKid69e6tvVBvl3iwPjPFkyJo1K5YYJyMrEmfPnsUSYyaQGhImN+y0txUEjyGXrtGtRIB7gnLhwgUsacOC4g5kBQU8FMYaHn/8cVVUatWqhS32YPLkyWrQ3sg6JBYUj8Ieij3YsmWLLXPPwEwgzAgtX74cW+TQLSjZsmXDEuNkWFDCz5QpU9SM+rB2xI7A54LPB59TFo6heBTI5i4DC4o1wF/+Tp06Yc3ewOeU9VTuCYrsG44sKO6APZTwsX//fnWRWzDAlD6sZIZs/LCaGVa4w8pZmOaH/0Md2uHfITl2sFvewOeFzx0QmDYGRo8enWzRiz/r3r079mCczKRJk8jfr6+1bdsWezBmkJCQoJQvX5681zLWtGlTZd68ecq1a9fwiHLAz0M/6E8dV8bgc8Pn1+KebN26dQtL2nCmNncg66HA9g+MecBfepn35XyBmSAYdsD6lebNm6vrwfQAPw/9oD8cx8jMEnzuQJ4VC4pHiYyMxJI2169fxxITLPBS5n//+1+syZEqVSoxbdo09R2eunXrYmtwwHHgeHBcOL4e4PPDdfiDBcWjyL46wYJiHh988AGW5IDN9OBFwGDjLf6A48Lx9W7ap3UdLCgehQUltMA2pgcPHsRaYCCQCl922LDdSuD4cB44nyxwHf62ZWVB8SgsKKEDZsqGDh2KtcCULl1aTJ8+PWQzqnAeOB+cVxa4HmoGkAXFo8gKCryZzAQHDBGuXLmCNW2yZMmifrllXtQ1EzifnvPC9VBDHxYUj8IeSuiYNWsWlgIDW2nIbhdrNnBePVt5UNfFguJRWFBCw+rVq8Xp06expg28gRwTE4O18DBo0CD1c8gA1wXXlxTdgpImTRosMU6GBSU06MnJO2DAACyFFz2fw/f67gmKrOdx8+ZNLDFOhgUlNMgKSpcuXdR0BnYAPofsvkJ+BYUfMG+RNm1aqfc7/v77b04DaZCtW7dKJX0HZIcZoQJW1coA1wfXeRcWFA+j/JtOWJNgXyzzKrLZ6XPlymW7JEvweeBzyZD0OllQPAp4HTKCAkuzIyIisMboAfbMkUHPorJQIvu5kl4nC4pH4Vk964E0AjLAfjt2BPYCkiHpdd4TFNm3F1lQ3AELivXIeih58uTBkr2Q3WVwxowZqhcLxh6KR4FgqwwsKMZxuqDA9qV60S0ovBTbHbCHYj1e8VCSwh6KR2FBYQIh68UmhQXFo7CgWI+s5yHryYQaI5/rnqDI7HULyGbHZ+wNC4r1eFpQOAu6t2BBsR5PCwrv0+ItZLdN0ZsMmfkX2aDmunXrsGQvjHyuZB6KzIpIeBA5juJ8eOtZ65H1UBYvXowle6HnTem73BMUQHbYwxtoOx8WFOuBvYFlOHXqVIq8IuFGTx6XpBgSFB72OB/Z4DrvZW2cChUqiMKFC2NNG9gvx07IbvcB1wfvhN01FhSPwh5KaJB9wW7ChAlix44dWAsv8Dk+++wzrGnje33JBIUDs96BBSU06HmTWE9mfCvR8zk0BYU9FO/AghIa9OQVgWHP4MGDsRYeIKes7PCLyuPCguJROIYSOlq1aoWlwIwePVrs2rULa6EFzgvnl4W6LkOCcuzYMSwxToU9lNDRv39/cf/992NNG9icHrYIvXTpEraEBjifnvPC9cB1+ZJMUPLly4clbY4cOYIlxqmwoIQO+EOtJ5N8XFyc+uWW/R0FC5wHzgfnlQWuh3RAlCRs3boVcgIGtIIFC2IPxqkULlyY/N362o4dO7AHEwyJQ0wlMjKSvMf+rESJEkpsbCwewRrg+HAe6vz+rGjRotg7Jck8lEKFCmFJG/BQ7ty5gzXGiRw/fhxL2tg1V4eT2Llzp7o1xdWrV7FFjr1796qL42CLUCuA48Lx4Tx6oIY690BhuUeWLFlIVfK1+Ph47ME4jVOnTpG/U19Lnz499mCMsmbNGiVx2EjeXz1Wq1YtZfny5XjU4IDjwPGo8wSy5s2b41FoUghKmTJlyAP52sqVK7EH4zRkh7ZFihTBHowRRo8ebYqYJLWmTZsq8+bNU65du4ZnkQN+HvpBf+q4Mla+fHklISEBj0iTQlAaN25MHszXpkyZgj0Yp/HDDz+Qv1Nfq1mzJvZg9ADxknbt2pH31Cy77777lIYNGyoTJ05UFi1apGzbtk05ceKEcvv2bfX/UId2+PeoqCj156njyFrOnDmVffv24RX6J4WgdO/enTygrw0YMAB7ME5j3Lhx5O/U19q2bYs9GFlATJo0aULeTyfbsmXL8Aq1SRaUBQoWLIglbQ4fPowlxmnIBmRllxEw/3A3+Dp//nxscQeTJ08W9erVw5o2hgWF16I4F1lBMbKNglf5+eefReIQ0dD3wq5bvebOnVskeiYiOjoaWwJjWFD0TjUx9oEFxVzGjBkjmjZtamghGiwcnDhxovQufaECPg/sWSzrmdwDhz73uHz5MjmGouzo0aPYi3ESDz/8MPn79DVe1KZNsMHXsmXLKocPH8ajKUqnTp3Inwu1wecwSgpBAWC6kDqRry1ZsgR7ME7h+vXr5O+SsjNnzmAvxpdgg681atRQj+HLnDlzlMcff5zsY7WVK1dOPX8wkIIie6OGDx+OPRinsHPnTvJ36WuwfoKhAc8NXj+h7puMwUwqJSZJmTx5svTrEcEanAfOZwZkNOixxx7Dkja7d+/GEuMUZGNfJUqUwBKTFJjBMRp8hXjJ1KlT1RQBUNYCAqGHDh0So0aNEkWLFsVWc4HjwvHhPHoCr5qgsCQD3B74p0AGY0DGWcTExJC/S19r37499mDuEszKV+gHCwqNAl7R0KFDlapVq5LHlzXoD8exKj4WAf9JPFEy9uzZI0qWLIk1/6RKlUrd/1Rm+w3GHrRs2VLMnTsXa/4ZMWKEePfdd7HmbWD2pkePHuLrr7/GFn0k/uEViWIiPYMaiBMnToglS5aos3UnT55MYTDdm9TgBU/YI6hBgwaGNkDXhSorBOnSpUuhbpTFxcVhD8YJlC5dmvw9+trChQuxh7exKvjqVvyuqClVqhSWtOE4irOQjaEUL14cS94l2JWv3bt3Vz2TQPESNxG0oIQr/yWjn/3796tD1EAkeqeWBQKdQqiCr27Dr6DIzvRs3boVS4zd4RkeOSDzezArX0FM2rVrhy3eImgPZdOmTVhi7M6+ffuwpI1XhzsgIO3btze8lQUEX3fs2CGaNGmCLd7Dr6DANooyQFq77du3Y42xM7/++iuWtPGih3JXTIzO5NSoUUOsWbPGtJkcp+JXUB544AHpYQ97Kc5g27ZtWNLGax4KB1/Nw6+gAJUrV8aSNps3b8YSY1dg7YJsgFHWO3UDHHw1F1MEhT0U+yMbPIeFULK7HzgdDr6aj6agVKlSBUvaxMfHq38BGfsiO9zxgnfCwVfr0BQUCM7lzJkTa9rwsMfeyHoobhcUDr5ai6agABxHcQfsoXDwNRQEFBTZYQ/HUewLLGg7f/481rQpX748ltwFB19Dg2keyoYNGwwFtxjrkR3uFCtWTGTPnh1r7oGDr6HDNEEBVq5ciSXGTnh1uMPB19ATUFAyZMggnnzySaxpw4JiTyCIKIObBIWDr+EhoKAAderUwZI2K1aswBJjF44dOyadYsIt8RMOvoYPKUGpW7culrT5448/1GxvjH2Q9U4iIyNF1apVseZcOPgaXqQEBR402WAdeyn2Ana0kwFcfKfDwdfwIyUogOywh+Mo9kLWQ4G/6k6Fg6/2wRJBUVLmvWbCAKw/kXX9nSoocH3glRgNvoKIcPDVPEwXlOvXr7OXYhNkvZNcuXKJcuXKYc05QPAVhFB2WOcLBF9hmMPxEvOQFhRQ8NKlS2NNm+XLl2OJCSeyguLE+AlsUM7BV/shLSiArJdidLqOMRfZv9xOG+5A8BX2yeHgq/2wRFBga0N+tye8bNy4UZw9exZr2jhFUDj4an90CQqsR4GVszIsWLAAS0w4WLx4MZa0KVy4sHjkkUewZl84+OoMdAlK6tSppdWdhz3hZdGiRVjSxgneCQdfnYMuQQFkBQU2ldqyZQvWmFACm6/JLrevV68eluwJB1+dhW5Bady4sUibNi3WtGEvJTzIDnfA42zYsCHW7AcHX52HbkGBbSplvRSOo4QH2eEOiEn69OmxZh84+OpcdAsKIPuLghcFZTeXYswBhgayM2xRUVFYsg8cfHU2hgUF3GUZeNgTWmSHO4DdhjsQdA0m+BoTE8NpB8KMIUGBqWOIpcgwb948LDGhQHa4A2uKZHc0CAUQfAXPJJjgK8RcmPBiSFAA2WEPbNDN7/aEhnPnzkm/9mCn4Q4EXjn46g6CEpSIiAisaTN9+nQsMVYyd+5cLAXGDsOdu8FX8E6MwMFXG6IEQbNmzSBPQUBLnTq1cunSJezFWEX16tXJ++9rlSpVwh7h4/Dhw0qNGjXIzydjiSKi/PXXX3g0xi4Y9lCANm3aYEmbW7dusZdiMb///rtYt24d1rQJ93CHg68uBoXFMHnz5iX/gvhatWrVsAdjBQMGDCDvO2W7d+/GXqFn9OjRSqIQkJ8rkEG/qVOn4pEYOxK0oPTu3Zv85VP266+/Yi/GbAoXLkzec1+DYVG46N69O/mZZAzEJNErwSMxdiWoIQ/QunVrLAVmxowZWGLMBBKDx8fHY02bF198EUuhA4KvMCXMwVcPgMISFLLBtQcffBB7MGbSvn178n5TFupAJgdfvUXQHgog66X83//9n66pTSYwN27cELNmzcKaNuCdhDKQycFXD4LCEhQJCQlKhgwZyL8wvla7dm3sxZgBBCmp+0zZggULsJf1cPDVm5giKEB0dDT5cFC2YcMG7MUES926dcl77Gt58uTBHtbDwVfvYsqQB5BdkwJ88cUXWGKCYdu2bdI7NbZq1QpL1sHBV8Y0DwVIfCDIvzqUHT16FHsxRuncuTN5bylLFB/sZQ3BBl/Bq+Hgq/MxVVA+++wz8mGhrF+/ftiLMcK5c+eUVKlSkffW1ypUqIC9rGHNmjVKwYIFyXPLWExMDB6JcTqmCsrt27eVHDlykA+Nr2XPnl25desW9mT08tFHH5H3lbLx48djL/Ph4CuTFFMFBejfvz/58FA2YcIE7MXopUiRIuQ99bXMmTMr169fx17mAcOTYIKv4NGAZ8O4C9MFBWIj1ANEWenSpbEXo4fvvvuOvJ+U9ezZE3uZB4gJLDijzidjEGuDmAvjPkwXFOCVV14hHyTKQrk2wi3Uq1ePvJeU7dmzB3uZw44dO3QF332Ng6/uxhJB2bhxI/kwUQbrKBh5YLaGuo+UgRdhJjBEMRovAePgq/uxRFCAOnXqkA8VZT/++CP2YgLx2muvkfeQssWLF2Ov4OHgKyODZYIyd+5c8uGijL0UOY4cOULeP8rMik9x8JXRg2WCAhQvXpx8yChjLyUwer7Y48aNw17GCTb4CgvdOPjqLSwVFHioqQeNMvZStPnzzz/J+0ZZpkyZlGvXrmFPY3DwlTGCpYIC6FlByV6Kf3r16kXeM8p69OiBvYwRbPAV4i2MN7FcUNhLCZ4zZ84oadOmJe8ZZfHx8dhTPxx8ZYLBckEB2EsJDj2rj+GFQSNw8JUxg5AICnspxrlw4YISGRlJ3ivK9u7diz3l4eArYxYhERRAj5eycOFC7MUMGjSIvEeUdejQAXvJw8FXxkxCJijwxiv1QFJm9ev2TgFmavTEM+Li4rCnHBx8ZcwmZIIC6PFSILeK19GzeVebNm2wlxzBBl85TSNDEVJB0eOl5M6dO+i1FE4GVsVGRESQ94Yy2YxsHHxlrCSkggIUKlSIfFAp83JWt06dOpH3hLKWLVtiL204+MpYTcgFZdKkSeTD6s8OHDiAPb1DbGwseS/82aZNm7CnfyD4qmfI6WscfGVkCLmgAFWqVCEfWsratm2LvbxDo0aNyHtBWfPmzbGXfzj4yoSKsAjK0qVLyQfXn61evRp7uh+YMqfugT8Dz0MLDr4yoSQsggK0aNGCfIgpq1mzJvZyPxUrViTvAWVdunTBXinh4CsTDsImKLBmgnqQ/ZkX3hHRE19Kly6d+gYyBQdfmXARNkEB4K1Y6oGmLFeuXK4PChYoUIC8dsqGDBmCvZLDwVcmnIRVUM6fP69kyZKFfLApM/rimxPo06cPec2U5c+fX7lz5w72/Jdggq/Qj4OvTLCEVVCAUaNGkQ+4P3Pj28hbt24lr9WfwdDIFw6+MnYg7IIClCpVinzQKStTpgz2cg96EnpD0DYpwQZf4cXAQDNFDCOLLQRlzpw55MPuz9y0HcPEiRPJa/RnSfcxMiP4yvESxkxsIShAq1atyIfen23fvh17OpfTp0/rGqY0bNgQe3LwlbEnthEU2MI0Q4YM5MNPWf369bGnc+nYsSN5bf5s586daj8OvjJ2xTaCAowdO5b8EvgzJ6c4WLJkCXlN/mzgwIFqPw6+MnbGVoICwKpY6stAWebMmZU//vgDezoL2IiLuibKSpYsycFXxhHYTlD0vmkbFRWFPZ3D4MGDyWvxZzNnzuTgK+MIbCcoQN++fckvhj8bMWIE9rQ/69atI6/Bn0EgloOvjFOIgP8kPni249FHHxV79+7FWmA2b94sKlWqhDX7Uq5cOZE49MCaNhkzZhSpU6cWly5dwhZ5smbNKmJiYkSioGALw1jPffh/2zF8+HAsyfHWW29hyb707NlTWkwA0HqjYjJ16lQWEyb0gIdiV9q3b5/Chdeyd955B3vaD715TowaB1+ZcGLbIQ8Af53LlCkjjhw5gi2BWbRokYiKisKaPbh8+bJ6HYcPH8YWa6hRo4b44YcfVA+FYcKBbYc8QObMmcX48eOxJkfXrl0NDROspFu3bpaLCQxvWEyYsKP6KTYHhjLwUWXtlVdewZ7h55tvviE/o1kGi9V45StjF2w95EkKzOBs2bIFa4EZN26c6q2Ek2PHjqlDnb/++gtbzOVu8LVJkybYwjDhxTGCEhsbKypXrow1OVavXi1q1qyJtdDTsGFDsXjxYqyZS9myZdUhTsGCBbGFYcKPrWMoSQEPZcSIEViTIzo6Wpw9exZroaV///6WiQkEX9esWcNiwtgP8FCcRIMGDZLFEAIZ7HETambPnk1+FjOMV74ydsZxggIvA2bKlIn8svmzRG8Be1vP3r17dX8+GePgK+MEHCcoAGypQX3ptAy8hlBQrVo18vzBGIgJpx1gnIAjBQXo2rUr+eXzZ5GRkcrvv/+Ova3h9ddfJ88djMHKV94jh3EKjpnloYAZnJ9//hlrgYFZok2bNmHNXD7//HORKChYMwde+co4DcfM8lB8+eWXIkeOHFgLDLyR3KFDB6yZx8aNG00XE175yjgS1U9xMPPnz08xTAhkAwYMwN7Bc+7cOeXRRx8lz2PEOPjKOBnHCwrw/vvvk19OLYPtK8wAkmVTxzdiHHxlnI4rBAVo2bIl+SXVMkgpEAx6s9ZrGQdfGTfg6KBsUq5cuaKupt2zZw+2BOb+++8Xa9euVbOo6WXQoEFi8ODBWAsODr4ybsHRQdmkgDhMmTIFa3KACL300kvi9OnT2CIHnMcsMeHgK+MqVD/FRcBG4nBZeqxWrVrYOzBLly4lj6HXOPjKuBHXCQoAm2JRX2Ita9u2Lfb2T1xcnCoEVH89xsFXxq24UlCADh06kF9mLevVqxf2Tsn58+eVUqVKkf30GAdfGTfjWkEBjEzpxsTEYO/kPPPMM+TP6zHecItxO64WFKNexfDhw/EI/9CsWTPy5/QYpx1gvICrBQXYtWuXki1bNvJLrmWwcTvQunVr8t9ljYOvjJdwzToULZYtWyYShyxYk+epp54S69evx5p+YCqYc74yXsITggJ89dVXomPHjlizHs75yngR1yxsCwS8ZTxkyBCsWQvnfGW8imcEBRg4cKC66ZaV8MpXxst4ZsiTlM6dO4tJkyZhzRxAQGJiYniDcsbTeFJQgJdffllMmzYNa8HBwVeG+QfPCgrQokULMW/ePKwZg4OvDPMvnhYUICoqSixZsgRr+uC0AwyTHE8FZSnmz58vatWqhTV5OPjKMCnxvIcCXL58WdSvX18qI366dOnE8OHDOfjKMASe91CATJkyqZ4KxEOAKlWqqP/3JW3atGL27NksJgzjB/ZQknD06FHxv//9T11y37RpU1Vk7pItWzaxfft2Dr4yjAYsKH64cOGCupHYzp07OfjKMJKwoGgAojJmzBh1iMNiwjCBYUFhGMYkhPh/ghwuM1WE94UAAAAASUVORK5CYII=;rotation=0;" parent="486" vertex="1">
                    <mxGeometry y="80" width="51.7" height="59" as="geometry"/>
                </mxCell>
                <mxCell id="546" value="" style="endArrow=none;dashed=1;html=1;strokeWidth=2;exitX=0;exitY=0;exitDx=0;exitDy=0;strokeColor=#000000;entryX=1;entryY=0;entryDx=0;entryDy=0;" parent="486" edge="1">
                    <mxGeometry width="50" height="50" relative="1" as="geometry">
                        <mxPoint x="-10" y="-40" as="sourcePoint"/>
                        <mxPoint x="440" y="-40" as="targetPoint"/>
                        <Array as="points"/>
                    </mxGeometry>
                </mxCell>
                <mxCell id="193" value="" style="rounded=0;whiteSpace=wrap;html=1;dashed=1;fontSize=17;fontColor=#000000;strokeColor=#000000;strokeWidth=2;fillColor=none;" parent="1" vertex="1">
                    <mxGeometry x="760" y="-330" width="530" height="160" as="geometry"/>
                </mxCell>
                <mxCell id="192" value="" style="rounded=0;whiteSpace=wrap;html=1;dashed=1;fontSize=17;fontColor=#000000;strokeColor=#000000;strokeWidth=2;fillColor=none;" parent="1" vertex="1">
                    <mxGeometry x="269.58" y="-200" width="330.42" height="220" as="geometry"/>
                </mxCell>
                <mxCell id="194" value="" style="rounded=0;whiteSpace=wrap;html=1;dashed=1;fontSize=17;fontColor=#000000;strokeColor=#000000;strokeWidth=2;fillColor=none;" parent="1" vertex="1">
                    <mxGeometry x="760" y="-160" width="530" height="180" as="geometry"/>
                </mxCell>
                <mxCell id="5" value="" style="endArrow=none;html=1;strokeColor=#000000;fontSize=17;" parent="1" edge="1">
                    <mxGeometry width="50" height="50" relative="1" as="geometry">
                        <mxPoint x="770" y="460" as="sourcePoint"/>
                        <mxPoint x="820" y="430" as="targetPoint"/>
                    </mxGeometry>
                </mxCell>
                <mxCell id="6" value="" style="endArrow=none;html=1;strokeColor=#000000;startArrow=none;fontSize=17;" parent="1" edge="1">
                    <mxGeometry width="50" height="50" relative="1" as="geometry">
                        <mxPoint x="770" y="460" as="sourcePoint"/>
                        <mxPoint x="820" y="490" as="targetPoint"/>
                    </mxGeometry>
                </mxCell>
                <mxCell id="8" value="" style="endArrow=none;html=1;strokeColor=#000000;entryX=1;entryY=0;entryDx=0;entryDy=0;entryPerimeter=0;exitX=1;exitY=1;exitDx=0;exitDy=0;exitPerimeter=0;fontSize=17;" parent="1" source="6" target="5" edge="1">
                    <mxGeometry width="50" height="50" relative="1" as="geometry">
                        <mxPoint x="800" y="480" as="sourcePoint"/>
                        <mxPoint x="850" y="430" as="targetPoint"/>
                    </mxGeometry>
                </mxCell>
                <mxCell id="9" value="" style="shape=or;whiteSpace=wrap;html=1;strokeColor=#000000;fillColor=none;fontSize=17;" parent="1" vertex="1">
                    <mxGeometry x="820" y="430" width="10" height="60" as="geometry"/>
                </mxCell>
                <mxCell id="73" style="edgeStyle=orthogonalEdgeStyle;html=1;exitX=1;exitY=0.5;exitDx=0;exitDy=0;entryX=0;entryY=0.5;entryDx=0;entryDy=0;fontColor=#000000;startArrow=none;startFill=0;endArrow=none;endFill=0;strokeColor=#000000;fontSize=17;strokeWidth=2;" parent="1" source="10" target="12" edge="1">
                    <mxGeometry relative="1" as="geometry"/>
                </mxCell>
                <mxCell id="10" value="&lt;font color=&quot;#000000&quot; style=&quot;font-size: 17px;&quot;&gt;laser&lt;/font&gt;" style="rounded=0;whiteSpace=wrap;html=1;strokeColor=#000000;fillColor=none;fontSize=17;" parent="1" vertex="1">
                    <mxGeometry x="370" y="430" width="120" height="60" as="geometry"/>
                </mxCell>
                <mxCell id="63" style="edgeStyle=orthogonalEdgeStyle;html=1;exitX=1;exitY=0.5;exitDx=0;exitDy=0;entryX=0.354;entryY=0.472;entryDx=0;entryDy=0;entryPerimeter=0;fontColor=#000000;startArrow=none;startFill=0;endArrow=none;endFill=0;strokeColor=#000000;fontSize=17;strokeWidth=2;" parent="1" source="12" target="61" edge="1">
                    <mxGeometry relative="1" as="geometry"/>
                </mxCell>
                <mxCell id="12" value="Intensity Modulator" style="rounded=0;whiteSpace=wrap;html=1;fontColor=#000000;strokeColor=#000000;fillColor=none;fontSize=17;" parent="1" vertex="1">
                    <mxGeometry x="550" y="430.00333333333333" width="120" height="60" as="geometry"/>
                </mxCell>
                <mxCell id="15" style="edgeStyle=none;html=1;exitX=0.5;exitY=1;exitDx=0;exitDy=0;entryX=0.5;entryY=0;entryDx=0;entryDy=0;fontColor=#000000;strokeColor=#000000;endArrow=none;endFill=0;fontSize=17;" parent="1" source="13" target="12" edge="1">
                    <mxGeometry relative="1" as="geometry"/>
                </mxCell>
                <mxCell id="13" value="3GHz BERT" style="rounded=0;whiteSpace=wrap;html=1;fontColor=#000000;strokeColor=#000000;fillColor=none;fontSize=17;" parent="1" vertex="1">
                    <mxGeometry x="550" y="340" width="120" height="60" as="geometry"/>
                </mxCell>
                <mxCell id="16" value="Mirror" style="rounded=0;whiteSpace=wrap;html=1;fontColor=#000000;strokeColor=#000000;fillColor=none;rotation=0;fontSize=17;" parent="1" vertex="1">
                    <mxGeometry x="990" y="460" width="60" height="120" as="geometry"/>
                </mxCell>
                <mxCell id="17" value="" style="endArrow=none;html=1;strokeColor=#000000;fontSize=17;" parent="1" edge="1">
                    <mxGeometry width="50" height="50" relative="1" as="geometry">
                        <mxPoint x="770" y="580" as="sourcePoint"/>
                        <mxPoint x="820" y="550" as="targetPoint"/>
                    </mxGeometry>
                </mxCell>
                <mxCell id="18" value="" style="endArrow=none;html=1;strokeColor=#000000;startArrow=none;fontSize=17;" parent="1" edge="1">
                    <mxGeometry width="50" height="50" relative="1" as="geometry">
                        <mxPoint x="769.9999999999999" y="580" as="sourcePoint"/>
                        <mxPoint x="820" y="610" as="targetPoint"/>
                    </mxGeometry>
                </mxCell>
                <mxCell id="19" value="" style="endArrow=none;html=1;strokeColor=#000000;entryX=1;entryY=0;entryDx=0;entryDy=0;entryPerimeter=0;exitX=1;exitY=1;exitDx=0;exitDy=0;exitPerimeter=0;fontSize=17;" parent="1" source="18" target="17" edge="1">
                    <mxGeometry width="50" height="50" relative="1" as="geometry">
                        <mxPoint x="800" y="600" as="sourcePoint"/>
                        <mxPoint x="850" y="550" as="targetPoint"/>
                    </mxGeometry>
                </mxCell>
                <mxCell id="20" value="" style="shape=or;whiteSpace=wrap;html=1;strokeColor=#000000;fillColor=none;fontSize=17;" parent="1" vertex="1">
                    <mxGeometry x="820" y="550" width="10" height="60" as="geometry"/>
                </mxCell>
                <mxCell id="21" value="" style="endArrow=none;html=1;strokeColor=#000000;fontSize=17;" parent="1" edge="1">
                    <mxGeometry width="50" height="50" relative="1" as="geometry">
                        <mxPoint x="770" y="680" as="sourcePoint"/>
                        <mxPoint x="820" y="650" as="targetPoint"/>
                    </mxGeometry>
                </mxCell>
                <mxCell id="22" value="" style="endArrow=none;html=1;strokeColor=#000000;fontSize=17;" parent="1" edge="1">
                    <mxGeometry width="50" height="50" relative="1" as="geometry">
                        <mxPoint x="770" y="680" as="sourcePoint"/>
                        <mxPoint x="820" y="710" as="targetPoint"/>
                    </mxGeometry>
                </mxCell>
                <mxCell id="23" value="" style="endArrow=none;html=1;strokeColor=#000000;entryX=1;entryY=0;entryDx=0;entryDy=0;entryPerimeter=0;exitX=1;exitY=1;exitDx=0;exitDy=0;exitPerimeter=0;fontSize=17;" parent="1" source="22" target="21" edge="1">
                    <mxGeometry width="50" height="50" relative="1" as="geometry">
                        <mxPoint x="800" y="700" as="sourcePoint"/>
                        <mxPoint x="850" y="650" as="targetPoint"/>
                    </mxGeometry>
                </mxCell>
                <mxCell id="24" value="" style="shape=or;whiteSpace=wrap;html=1;strokeColor=#000000;fillColor=none;fontSize=17;" parent="1" vertex="1">
                    <mxGeometry x="820" y="650" width="10" height="60" as="geometry"/>
                </mxCell>
                <mxCell id="25" value="" style="endArrow=none;html=1;strokeColor=#000000;startArrow=none;fontSize=17;" parent="1" source="70" edge="1">
                    <mxGeometry width="50" height="50" relative="1" as="geometry">
                        <mxPoint x="1000" y="710" as="sourcePoint"/>
                        <mxPoint x="1050" y="680" as="targetPoint"/>
                    </mxGeometry>
                </mxCell>
                <mxCell id="26" value="" style="endArrow=none;html=1;strokeColor=#000000;fontSize=17;" parent="1" edge="1">
                    <mxGeometry width="50" height="50" relative="1" as="geometry">
                        <mxPoint x="1000" y="650" as="sourcePoint"/>
                        <mxPoint x="1050" y="680" as="targetPoint"/>
                    </mxGeometry>
                </mxCell>
                <mxCell id="27" value="" style="endArrow=none;html=1;strokeColor=#000000;entryX=1;entryY=0;entryDx=0;entryDy=0;entryPerimeter=0;exitX=1;exitY=1;exitDx=0;exitDy=0;exitPerimeter=0;fontSize=17;" parent="1" source="26" target="25" edge="1">
                    <mxGeometry width="50" height="50" relative="1" as="geometry">
                        <mxPoint x="970" y="700" as="sourcePoint"/>
                        <mxPoint x="1020" y="650" as="targetPoint"/>
                    </mxGeometry>
                </mxCell>
                <mxCell id="28" value="" style="shape=or;whiteSpace=wrap;html=1;strokeColor=#000000;fillColor=none;rotation=-180;fontSize=17;" parent="1" vertex="1">
                    <mxGeometry x="990" y="650" width="10" height="60" as="geometry"/>
                </mxCell>
                <mxCell id="54" style="edgeStyle=orthogonalEdgeStyle;html=1;exitX=0;exitY=0.5;exitDx=0;exitDy=0;entryX=1;entryY=0.5;entryDx=0;entryDy=0;fontColor=#000000;strokeColor=#000000;endArrow=none;endFill=0;fontSize=17;strokeWidth=2;" parent="1" source="31" target="46" edge="1">
                    <mxGeometry relative="1" as="geometry"/>
                </mxCell>
                <mxCell id="31" value="Tunable Attenuator" style="rounded=0;whiteSpace=wrap;html=1;fontColor=#000000;strokeColor=#000000;fillColor=none;fontSize=17;" parent="1" vertex="1">
                    <mxGeometry x="590" y="560" width="120" height="40" as="geometry"/>
                </mxCell>
                <mxCell id="85" style="edgeStyle=orthogonalEdgeStyle;html=1;exitX=0;exitY=0.5;exitDx=0;exitDy=0;entryX=1;entryY=0.5;entryDx=0;entryDy=0;fontSize=17;fontColor=#000000;startArrow=none;startFill=0;endArrow=none;endFill=0;strokeColor=#000000;strokeWidth=1;" parent="1" source="37" target="84" edge="1">
                    <mxGeometry relative="1" as="geometry"/>
                </mxCell>
                <mxCell id="37" value="BPD" style="rounded=0;whiteSpace=wrap;html=1;fontColor=#000000;strokeColor=#000000;fillColor=none;fontSize=17;" parent="1" vertex="1">
                    <mxGeometry x="270" y="600" width="80" height="60" as="geometry"/>
                </mxCell>
                <mxCell id="38" value="" style="endArrow=classic;html=1;fontColor=#000000;strokeColor=#000000;exitX=0.75;exitY=0;exitDx=0;exitDy=0;fontSize=17;" parent="1" source="31" edge="1">
                    <mxGeometry width="50" height="50" relative="1" as="geometry">
                        <mxPoint x="670" y="550" as="sourcePoint"/>
                        <mxPoint x="710" y="540" as="targetPoint"/>
                    </mxGeometry>
                </mxCell>
                <mxCell id="39" value="" style="endArrow=none;html=1;fontColor=#000000;strokeColor=#000000;entryX=0.25;entryY=1;entryDx=0;entryDy=0;fontSize=17;" parent="1" target="31" edge="1">
                    <mxGeometry width="50" height="50" relative="1" as="geometry">
                        <mxPoint x="590" y="620" as="sourcePoint"/>
                        <mxPoint x="620" y="610" as="targetPoint"/>
                    </mxGeometry>
                </mxCell>
                <mxCell id="56" style="edgeStyle=orthogonalEdgeStyle;html=1;exitX=0;exitY=0.5;exitDx=0;exitDy=0;entryX=1;entryY=0.5;entryDx=0;entryDy=0;fontColor=#000000;strokeColor=#000000;endArrow=none;endFill=0;fontSize=17;strokeWidth=2;" parent="1" source="43" target="49" edge="1">
                    <mxGeometry relative="1" as="geometry"/>
                </mxCell>
                <mxCell id="57" style="edgeStyle=orthogonalEdgeStyle;html=1;exitX=1;exitY=0.5;exitDx=0;exitDy=0;fontColor=#000000;strokeColor=#000000;endArrow=none;endFill=0;startArrow=none;startFill=0;fontSize=17;strokeWidth=2;" parent="1" source="43" target="58" edge="1">
                    <mxGeometry relative="1" as="geometry">
                        <mxPoint x="750" y="700" as="targetPoint"/>
                    </mxGeometry>
                </mxCell>
                <mxCell id="43" value="Tunable Attenuator" style="rounded=0;whiteSpace=wrap;html=1;fontColor=#000000;strokeColor=#000000;fillColor=none;fontSize=17;" parent="1" vertex="1">
                    <mxGeometry x="590" y="660" width="120" height="40" as="geometry"/>
                </mxCell>
                <mxCell id="44" value="" style="endArrow=classic;html=1;fontColor=#000000;strokeColor=#000000;exitX=0.75;exitY=0;exitDx=0;exitDy=0;fontSize=17;" parent="1" source="43" edge="1">
                    <mxGeometry width="50" height="50" relative="1" as="geometry">
                        <mxPoint x="670" y="650" as="sourcePoint"/>
                        <mxPoint x="710" y="640" as="targetPoint"/>
                    </mxGeometry>
                </mxCell>
                <mxCell id="45" value="" style="endArrow=none;html=1;fontColor=#000000;strokeColor=#000000;entryX=0.25;entryY=1;entryDx=0;entryDy=0;fontSize=17;" parent="1" target="43" edge="1">
                    <mxGeometry width="50" height="50" relative="1" as="geometry">
                        <mxPoint x="590" y="720" as="sourcePoint"/>
                        <mxPoint x="620" y="710" as="targetPoint"/>
                    </mxGeometry>
                </mxCell>
                <mxCell id="52" style="edgeStyle=orthogonalEdgeStyle;html=1;exitX=0;exitY=0.5;exitDx=0;exitDy=0;entryX=1;entryY=0.25;entryDx=0;entryDy=0;fontColor=#000000;strokeColor=#000000;endArrow=none;endFill=0;fontSize=17;strokeWidth=2;" parent="1" source="46" target="37" edge="1">
                    <mxGeometry relative="1" as="geometry"/>
                </mxCell>
                <mxCell id="46" value="Tunable Delay" style="rounded=0;whiteSpace=wrap;html=1;fontColor=#000000;strokeColor=#000000;fillColor=none;fontSize=17;" parent="1" vertex="1">
                    <mxGeometry x="430" y="560" width="120" height="40" as="geometry"/>
                </mxCell>
                <mxCell id="47" value="" style="endArrow=classic;html=1;fontColor=#000000;strokeColor=#000000;exitX=0.75;exitY=0;exitDx=0;exitDy=0;fontSize=17;" parent="1" source="46" edge="1">
                    <mxGeometry width="50" height="50" relative="1" as="geometry">
                        <mxPoint x="510" y="550" as="sourcePoint"/>
                        <mxPoint x="550" y="540" as="targetPoint"/>
                    </mxGeometry>
                </mxCell>
                <mxCell id="48" value="" style="endArrow=none;html=1;fontColor=#000000;strokeColor=#000000;entryX=0.25;entryY=1;entryDx=0;entryDy=0;fontSize=17;" parent="1" target="46" edge="1">
                    <mxGeometry width="50" height="50" relative="1" as="geometry">
                        <mxPoint x="430" y="620" as="sourcePoint"/>
                        <mxPoint x="460" y="610" as="targetPoint"/>
                    </mxGeometry>
                </mxCell>
                <mxCell id="53" style="edgeStyle=orthogonalEdgeStyle;html=1;exitX=0;exitY=0.5;exitDx=0;exitDy=0;entryX=1;entryY=0.75;entryDx=0;entryDy=0;fontColor=#000000;strokeColor=#000000;endArrow=none;endFill=0;fontSize=17;strokeWidth=2;" parent="1" source="49" target="37" edge="1">
                    <mxGeometry relative="1" as="geometry"/>
                </mxCell>
                <mxCell id="49" value="Tunable Delay" style="rounded=0;whiteSpace=wrap;html=1;fontColor=#000000;strokeColor=#000000;fillColor=none;fontSize=17;" parent="1" vertex="1">
                    <mxGeometry x="430" y="660" width="120" height="40" as="geometry"/>
                </mxCell>
                <mxCell id="50" value="" style="endArrow=classic;html=1;fontColor=#000000;strokeColor=#000000;exitX=0.75;exitY=0;exitDx=0;exitDy=0;fontSize=17;" parent="1" source="49" edge="1">
                    <mxGeometry width="50" height="50" relative="1" as="geometry">
                        <mxPoint x="510" y="650" as="sourcePoint"/>
                        <mxPoint x="550" y="640" as="targetPoint"/>
                    </mxGeometry>
                </mxCell>
                <mxCell id="51" value="" style="endArrow=none;html=1;fontColor=#000000;strokeColor=#000000;entryX=0.25;entryY=1;entryDx=0;entryDy=0;fontSize=17;" parent="1" target="49" edge="1">
                    <mxGeometry width="50" height="50" relative="1" as="geometry">
                        <mxPoint x="430" y="720" as="sourcePoint"/>
                        <mxPoint x="460" y="710" as="targetPoint"/>
                    </mxGeometry>
                </mxCell>
                <mxCell id="58" value="" style="shape=waypoint;sketch=0;fillStyle=solid;size=6;pointerEvents=1;points=[];fillColor=none;resizable=0;rotatable=0;perimeter=centerPerimeter;snapToPoint=1;fontColor=#000000;strokeColor=#000000;fontSize=17;" parent="1" vertex="1">
                    <mxGeometry x="750" y="660" width="40" height="40" as="geometry"/>
                </mxCell>
                <mxCell id="64" style="edgeStyle=orthogonalEdgeStyle;html=1;entryX=1;entryY=0.5;entryDx=0;entryDy=0;fontColor=#000000;startArrow=none;startFill=0;endArrow=none;endFill=0;strokeColor=#000000;fontSize=17;strokeWidth=2;" parent="1" source="59" target="31" edge="1">
                    <mxGeometry relative="1" as="geometry"/>
                </mxCell>
                <mxCell id="60" value="" style="endArrow=none;html=1;strokeColor=#000000;startArrow=none;fontSize=17;" parent="1" source="59" edge="1">
                    <mxGeometry width="50" height="50" relative="1" as="geometry">
                        <mxPoint x="770" y="580" as="sourcePoint"/>
                        <mxPoint x="769.9999999999999" y="580" as="targetPoint"/>
                    </mxGeometry>
                </mxCell>
                <mxCell id="62" value="" style="endArrow=none;html=1;strokeColor=#000000;fontSize=17;startArrow=none;" parent="1" source="61" edge="1">
                    <mxGeometry width="50" height="50" relative="1" as="geometry">
                        <mxPoint x="770" y="460" as="sourcePoint"/>
                        <mxPoint x="770" y="460" as="targetPoint"/>
                    </mxGeometry>
                </mxCell>
                <mxCell id="72" style="edgeStyle=orthogonalEdgeStyle;html=1;exitX=0;exitY=0.5;exitDx=0;exitDy=0;entryX=0.72;entryY=0.545;entryDx=0;entryDy=0;entryPerimeter=0;fontColor=#000000;startArrow=none;startFill=0;endArrow=none;endFill=0;strokeColor=#000000;fontSize=17;strokeWidth=2;" parent="1" source="65" target="70" edge="1">
                    <mxGeometry relative="1" as="geometry"/>
                </mxCell>
                <mxCell id="65" value="Intensity Modulator" style="rounded=0;whiteSpace=wrap;html=1;fontColor=#000000;strokeColor=#000000;fillColor=none;fontSize=17;" parent="1" vertex="1">
                    <mxGeometry x="1080.42" y="650.0033333333333" width="120" height="60" as="geometry"/>
                </mxCell>
                <mxCell id="81" style="edgeStyle=orthogonalEdgeStyle;html=1;exitX=0.5;exitY=1;exitDx=0;exitDy=0;entryX=0.5;entryY=0;entryDx=0;entryDy=0;fontColor=#000000;startArrow=none;startFill=0;endArrow=none;endFill=0;strokeColor=#000000;fontSize=17;" parent="1" source="66" target="65" edge="1">
                    <mxGeometry relative="1" as="geometry"/>
                </mxCell>
                <mxCell id="66" value="3GHz BERT" style="rounded=0;whiteSpace=wrap;html=1;fontColor=#000000;strokeColor=#000000;fillColor=none;fontSize=17;" parent="1" vertex="1">
                    <mxGeometry x="1080.42" y="560" width="120" height="60" as="geometry"/>
                </mxCell>
                <mxCell id="69" style="edgeStyle=orthogonalEdgeStyle;html=1;exitX=0;exitY=0.5;exitDx=0;exitDy=0;entryX=1;entryY=0.5;entryDx=0;entryDy=0;fontColor=#000000;startArrow=none;startFill=0;endArrow=none;endFill=0;strokeColor=#000000;fontSize=17;strokeWidth=2;" parent="1" source="67" target="65" edge="1">
                    <mxGeometry relative="1" as="geometry"/>
                </mxCell>
                <mxCell id="67" value="&lt;font color=&quot;#000000&quot; style=&quot;font-size: 17px;&quot;&gt;ASE Source&lt;/font&gt;" style="rounded=0;whiteSpace=wrap;html=1;strokeColor=#000000;fillColor=none;fontSize=17;" parent="1" vertex="1">
                    <mxGeometry x="1240.42" y="650" width="120" height="60" as="geometry"/>
                </mxCell>
                <mxCell id="70" value="" style="shape=waypoint;sketch=0;fillStyle=solid;size=6;pointerEvents=1;points=[];fillColor=none;resizable=0;rotatable=0;perimeter=centerPerimeter;snapToPoint=1;fontColor=#000000;strokeColor=#000000;fontSize=17;" parent="1" vertex="1">
                    <mxGeometry x="1030.42" y="660" width="40" height="40" as="geometry"/>
                </mxCell>
                <mxCell id="71" value="" style="endArrow=none;html=1;strokeColor=#000000;fontSize=17;" parent="1" target="70" edge="1">
                    <mxGeometry width="50" height="50" relative="1" as="geometry">
                        <mxPoint x="999.9999999999999" y="710" as="sourcePoint"/>
                        <mxPoint x="1050" y="680" as="targetPoint"/>
                    </mxGeometry>
                </mxCell>
                <mxCell id="76" value="" style="endArrow=classic;html=1;fontColor=#000000;strokeColor=#000000;fontSize=17;strokeWidth=3;" parent="1" edge="1">
                    <mxGeometry width="50" height="50" relative="1" as="geometry">
                        <mxPoint x="840" y="460" as="sourcePoint"/>
                        <mxPoint x="980" y="510" as="targetPoint"/>
                    </mxGeometry>
                </mxCell>
                <mxCell id="77" value="" style="endArrow=classic;html=1;fontColor=#000000;strokeColor=#000000;fontSize=17;strokeWidth=3;" parent="1" edge="1">
                    <mxGeometry width="50" height="50" relative="1" as="geometry">
                        <mxPoint x="980" y="530" as="sourcePoint"/>
                        <mxPoint x="840" y="570" as="targetPoint"/>
                    </mxGeometry>
                </mxCell>
                <mxCell id="78" value="" style="endArrow=classic;html=1;fontColor=#000000;strokeColor=#000000;fontSize=17;strokeWidth=3;" parent="1" edge="1">
                    <mxGeometry width="50" height="50" relative="1" as="geometry">
                        <mxPoint x="980" y="670" as="sourcePoint"/>
                        <mxPoint x="840" y="590" as="targetPoint"/>
                    </mxGeometry>
                </mxCell>
                <mxCell id="79" value="" style="endArrow=classic;html=1;fontColor=#000000;strokeColor=#000000;fontSize=17;strokeWidth=3;" parent="1" edge="1">
                    <mxGeometry width="50" height="50" relative="1" as="geometry">
                        <mxPoint x="980" y="680" as="sourcePoint"/>
                        <mxPoint x="840" y="680" as="targetPoint"/>
                    </mxGeometry>
                </mxCell>
                <mxCell id="59" value="" style="shape=waypoint;sketch=0;fillStyle=solid;size=6;pointerEvents=1;points=[];fillColor=none;resizable=0;rotatable=0;perimeter=centerPerimeter;snapToPoint=1;fontColor=#000000;strokeColor=#000000;fontSize=17;" parent="1" vertex="1">
                    <mxGeometry x="750" y="560" width="40" height="40" as="geometry"/>
                </mxCell>
                <mxCell id="80" value="" style="endArrow=none;html=1;strokeColor=#000000;fontSize=17;" parent="1" target="59" edge="1">
                    <mxGeometry width="50" height="50" relative="1" as="geometry">
                        <mxPoint x="769.9999999999999" y="580" as="sourcePoint"/>
                        <mxPoint x="769.9999999999999" y="580" as="targetPoint"/>
                    </mxGeometry>
                </mxCell>
                <mxCell id="61" value="" style="shape=waypoint;sketch=0;fillStyle=solid;size=6;pointerEvents=1;points=[];fillColor=none;resizable=0;rotatable=0;perimeter=centerPerimeter;snapToPoint=1;fontColor=#000000;strokeColor=#000000;fontSize=17;" parent="1" vertex="1">
                    <mxGeometry x="750" y="440" width="40" height="40" as="geometry"/>
                </mxCell>
                <mxCell id="83" value="" style="endArrow=none;html=1;strokeColor=#000000;fontSize=17;" parent="1" target="61" edge="1">
                    <mxGeometry width="50" height="50" relative="1" as="geometry">
                        <mxPoint x="770" y="460" as="sourcePoint"/>
                        <mxPoint x="770" y="460" as="targetPoint"/>
                    </mxGeometry>
                </mxCell>
                <mxCell id="84" value="RF Out" style="rounded=0;whiteSpace=wrap;html=1;fontColor=#000000;strokeColor=#000000;fillColor=none;fontSize=17;" parent="1" vertex="1">
                    <mxGeometry x="150" y="600" width="80" height="60" as="geometry"/>
                </mxCell>
                <mxCell id="93" value="&lt;font style=&quot;font-size: 17px&quot;&gt;Laser Source&lt;/font&gt;" style="rounded=0;whiteSpace=wrap;html=1;strokeColor=#b46504;fillColor=#fad7ac;fontSize=17;fontColor=#000000;" parent="1" vertex="1">
                    <mxGeometry x="1120.42" y="-240" width="120" height="60" as="geometry"/>
                </mxCell>
                <mxCell id="94" style="edgeStyle=orthogonalEdgeStyle;html=1;exitX=0;exitY=0.5;exitDx=0;exitDy=0;entryX=0.354;entryY=0.472;entryDx=0;entryDy=0;entryPerimeter=0;fontColor=#000000;startArrow=none;startFill=0;endArrow=none;endFill=0;strokeColor=#000000;fontSize=17;strokeWidth=2;" parent="1" source="95" target="148" edge="1">
                    <mxGeometry relative="1" as="geometry"/>
                </mxCell>
                <mxCell id="179" style="edgeStyle=orthogonalEdgeStyle;html=1;exitX=1;exitY=0.5;exitDx=0;exitDy=0;entryX=0;entryY=0.5;entryDx=0;entryDy=0;fontSize=17;fontColor=#000000;startArrow=none;startFill=0;endArrow=none;endFill=0;strokeColor=#000000;strokeWidth=2;" parent="1" source="95" target="93" edge="1">
                    <mxGeometry relative="1" as="geometry"/>
                </mxCell>
                <mxCell id="95" value="Intensity Modulator" style="rounded=0;whiteSpace=wrap;html=1;strokeColor=#b46504;fillColor=#fad7ac;fontSize=17;fontColor=#000000;" parent="1" vertex="1">
                    <mxGeometry x="919.16" y="-239.99666666666667" width="120" height="60" as="geometry"/>
                </mxCell>
                <mxCell id="96" style="edgeStyle=none;html=1;exitX=0.5;exitY=1;exitDx=0;exitDy=0;entryX=0.5;entryY=0;entryDx=0;entryDy=0;fontColor=#000000;strokeColor=#006EAF;endArrow=none;endFill=0;fontSize=17;fillColor=#1ba1e2;strokeWidth=2;" parent="1" source="97" target="95" edge="1">
                    <mxGeometry relative="1" as="geometry"/>
                </mxCell>
                <mxCell id="97" value="3GHz BERT" style="rounded=0;whiteSpace=wrap;html=1;fontColor=#FFFFFF;strokeColor=#000000;fillColor=#006EAF;fontSize=17;" parent="1" vertex="1">
                    <mxGeometry x="919.16" y="-320" width="120" height="60" as="geometry"/>
                </mxCell>
                <mxCell id="176" style="edgeStyle=orthogonalEdgeStyle;html=1;exitX=1;exitY=0.5;exitDx=0;exitDy=0;entryX=0;entryY=0.5;entryDx=0;entryDy=0;fontSize=17;fontColor=#000000;startArrow=none;startFill=0;endArrow=none;endFill=0;strokeColor=#006EAF;strokeWidth=2;fillColor=#1ba1e2;" parent="1" source="114" target="150" edge="1">
                    <mxGeometry relative="1" as="geometry"/>
                </mxCell>
                <mxCell id="114" value="BPD" style="rounded=0;whiteSpace=wrap;html=1;strokeColor=#b46504;fillColor=#fad7ac;fontSize=17;fontColor=#000000;" parent="1" vertex="1">
                    <mxGeometry x="1100" y="-100" width="80" height="60" as="geometry"/>
                </mxCell>
                <mxCell id="177" style="edgeStyle=orthogonalEdgeStyle;html=1;exitX=1;exitY=0.5;exitDx=0;exitDy=0;entryX=0.815;entryY=0.425;entryDx=0;entryDy=0;entryPerimeter=0;fontSize=17;fontColor=#000000;startArrow=none;startFill=0;endArrow=none;endFill=0;strokeColor=#000000;strokeWidth=2;" parent="1" source="135" target="140" edge="1">
                    <mxGeometry relative="1" as="geometry">
                        <Array as="points">
                            <mxPoint x="520" y="-30"/>
                            <mxPoint x="520" y="-30"/>
                        </Array>
                    </mxGeometry>
                </mxCell>
                <mxCell id="135" value="Intensity Modulator" style="rounded=0;whiteSpace=wrap;html=1;strokeColor=#b46504;fillColor=#fad7ac;fontSize=17;fontColor=#000000;" parent="1" vertex="1">
                    <mxGeometry x="389.5799999999999" y="-59.99666666666667" width="120" height="60" as="geometry"/>
                </mxCell>
                <mxCell id="136" style="edgeStyle=orthogonalEdgeStyle;html=1;exitX=0.5;exitY=1;exitDx=0;exitDy=0;entryX=0.5;entryY=0;entryDx=0;entryDy=0;fontColor=#000000;startArrow=none;startFill=0;endArrow=none;endFill=0;strokeColor=#006EAF;fontSize=17;fillColor=#1ba1e2;strokeWidth=2;" parent="1" source="137" target="135" edge="1">
                    <mxGeometry relative="1" as="geometry"/>
                </mxCell>
                <mxCell id="137" value="3GHz BERT" style="rounded=0;whiteSpace=wrap;html=1;fontColor=#ffffff;strokeColor=#000000;fillColor=#006EAF;fontSize=17;" parent="1" vertex="1">
                    <mxGeometry x="389.5799999999999" y="-150" width="120" height="60" as="geometry"/>
                </mxCell>
                <mxCell id="178" style="edgeStyle=orthogonalEdgeStyle;html=1;exitX=1;exitY=0.5;exitDx=0;exitDy=0;entryX=0;entryY=0.5;entryDx=0;entryDy=0;fontSize=17;fontColor=#000000;startArrow=none;startFill=0;endArrow=none;endFill=0;strokeColor=#000000;strokeWidth=2;" parent="1" source="139" target="135" edge="1">
                    <mxGeometry relative="1" as="geometry"/>
                </mxCell>
                <mxCell id="139" value="&lt;font color=&quot;#000000&quot; style=&quot;font-size: 17px;&quot;&gt;ASE Source&lt;/font&gt;" style="rounded=0;whiteSpace=wrap;html=1;strokeColor=#b46504;fillColor=#fad7ac;fontSize=17;" parent="1" vertex="1">
                    <mxGeometry x="280" y="-60" width="69.58" height="60" as="geometry"/>
                </mxCell>
                <mxCell id="142" value="" style="endArrow=classic;html=1;fontColor=#000000;strokeColor=#000000;fontSize=17;strokeWidth=3;" parent="1" edge="1">
                    <mxGeometry width="50" height="50" relative="1" as="geometry">
                        <mxPoint x="750" y="-200" as="sourcePoint"/>
                        <mxPoint x="650" y="-170" as="targetPoint"/>
                    </mxGeometry>
                </mxCell>
                <mxCell id="144" value="" style="endArrow=classic;html=1;fontColor=#000000;strokeColor=#000000;fontSize=17;strokeWidth=3;" parent="1" edge="1">
                    <mxGeometry width="50" height="50" relative="1" as="geometry">
                        <mxPoint x="610" y="-40" as="sourcePoint"/>
                        <mxPoint x="750" y="-100" as="targetPoint"/>
                    </mxGeometry>
                </mxCell>
                <mxCell id="145" value="" style="endArrow=classic;html=1;fontColor=#000000;strokeColor=#000000;fontSize=17;strokeWidth=3;" parent="1" edge="1">
                    <mxGeometry width="50" height="50" relative="1" as="geometry">
                        <mxPoint x="610" y="-30" as="sourcePoint"/>
                        <mxPoint x="749.5799999999999" y="-30" as="targetPoint"/>
                    </mxGeometry>
                </mxCell>
                <mxCell id="150" value="RF Out" style="rounded=0;whiteSpace=wrap;html=1;fontColor=#FFFFFF;strokeColor=#000000;fillColor=#006EAF;fontSize=17;" parent="1" vertex="1">
                    <mxGeometry x="1199.58" y="-100" width="80" height="60" as="geometry"/>
                </mxCell>
                <mxCell id="152" value="" style="group;rotation=-180;" parent="1" vertex="1" connectable="0">
                    <mxGeometry x="509.5799999999999" y="-60" width="80.42000000000007" height="60" as="geometry"/>
                </mxCell>
                <mxCell id="107" value="" style="endArrow=none;html=1;strokeColor=#000000;startArrow=none;fontSize=17;" parent="152" source="140" edge="1">
                    <mxGeometry width="50" height="50" relative="1" as="geometry">
                        <mxPoint x="70" as="sourcePoint"/>
                        <mxPoint x="20" y="30" as="targetPoint"/>
                    </mxGeometry>
                </mxCell>
                <mxCell id="108" value="" style="endArrow=none;html=1;strokeColor=#000000;fontSize=17;" parent="152" edge="1">
                    <mxGeometry width="50" height="50" relative="1" as="geometry">
                        <mxPoint x="70" y="60" as="sourcePoint"/>
                        <mxPoint x="20" y="30" as="targetPoint"/>
                    </mxGeometry>
                </mxCell>
                <mxCell id="109" value="" style="endArrow=none;html=1;strokeColor=#000000;entryX=1;entryY=0;entryDx=0;entryDy=0;entryPerimeter=0;exitX=1;exitY=1;exitDx=0;exitDy=0;exitPerimeter=0;fontSize=17;" parent="152" source="108" target="107" edge="1">
                    <mxGeometry width="50" height="50" relative="1" as="geometry">
                        <mxPoint x="100" y="10" as="sourcePoint"/>
                        <mxPoint x="50" y="60" as="targetPoint"/>
                    </mxGeometry>
                </mxCell>
                <mxCell id="110" value="" style="shape=or;whiteSpace=wrap;html=1;strokeColor=#000000;fillColor=none;rotation=-360;fontSize=17;" parent="152" vertex="1">
                    <mxGeometry x="70" width="10" height="60" as="geometry"/>
                </mxCell>
                <mxCell id="140" value="" style="shape=waypoint;sketch=0;fillStyle=solid;size=6;pointerEvents=1;points=[];fillColor=none;resizable=0;rotatable=0;perimeter=centerPerimeter;snapToPoint=1;fontColor=#000000;strokeColor=#000000;fontSize=17;rotation=-180;" parent="152" vertex="1">
                    <mxGeometry y="10" width="40" height="40" as="geometry"/>
                </mxCell>
                <mxCell id="141" value="" style="endArrow=none;html=1;strokeColor=#000000;fontSize=17;" parent="152" target="140" edge="1">
                    <mxGeometry width="50" height="50" relative="1" as="geometry">
                        <mxPoint x="70" as="sourcePoint"/>
                        <mxPoint x="20" y="30" as="targetPoint"/>
                    </mxGeometry>
                </mxCell>
                <mxCell id="156" value="" style="group;rotation=-180;fontColor=#000000;" parent="1" vertex="1" connectable="0">
                    <mxGeometry x="769.5799999999999" y="-60" width="80" height="60" as="geometry"/>
                </mxCell>
                <mxCell id="103" value="" style="endArrow=none;html=1;strokeColor=#000000;fontSize=17;fontColor=#000000;" parent="156" edge="1">
                    <mxGeometry width="50" height="50" relative="1" as="geometry">
                        <mxPoint x="60" y="30" as="sourcePoint"/>
                        <mxPoint x="10" y="60" as="targetPoint"/>
                    </mxGeometry>
                </mxCell>
                <mxCell id="104" value="" style="endArrow=none;html=1;strokeColor=#000000;fontSize=17;fontColor=#000000;" parent="156" edge="1">
                    <mxGeometry width="50" height="50" relative="1" as="geometry">
                        <mxPoint x="60" y="30" as="sourcePoint"/>
                        <mxPoint x="10" as="targetPoint"/>
                    </mxGeometry>
                </mxCell>
                <mxCell id="105" value="" style="endArrow=none;html=1;strokeColor=#000000;entryX=1;entryY=0;entryDx=0;entryDy=0;entryPerimeter=0;exitX=1;exitY=1;exitDx=0;exitDy=0;exitPerimeter=0;fontSize=17;fontColor=#000000;" parent="156" source="104" target="103" edge="1">
                    <mxGeometry width="50" height="50" relative="1" as="geometry">
                        <mxPoint x="30" y="10" as="sourcePoint"/>
                        <mxPoint x="-20" y="60" as="targetPoint"/>
                    </mxGeometry>
                </mxCell>
                <mxCell id="106" value="" style="shape=or;whiteSpace=wrap;html=1;strokeColor=#000000;fillColor=none;fontSize=17;rotation=-180;fontColor=#000000;" parent="156" vertex="1">
                    <mxGeometry width="10" height="60" as="geometry"/>
                </mxCell>
                <mxCell id="130" value="" style="shape=waypoint;sketch=0;fillStyle=solid;size=6;pointerEvents=1;points=[];fillColor=none;resizable=0;rotatable=0;perimeter=centerPerimeter;snapToPoint=1;fontColor=#000000;strokeColor=#000000;fontSize=17;" parent="156" vertex="1">
                    <mxGeometry x="40" y="10" width="40" height="40" as="geometry"/>
                </mxCell>
                <mxCell id="159" value="" style="group;rotation=-180;fontColor=#000000;" parent="1" vertex="1" connectable="0">
                    <mxGeometry x="769.58" y="-240" width="80" height="60" as="geometry"/>
                </mxCell>
                <mxCell id="148" value="" style="shape=waypoint;sketch=0;fillStyle=solid;size=6;pointerEvents=1;points=[];fillColor=none;resizable=0;rotatable=0;perimeter=centerPerimeter;snapToPoint=1;fontColor=#000000;strokeColor=#000000;fontSize=17;rotation=-180;" parent="159" vertex="1">
                    <mxGeometry x="40" y="10" width="40" height="40" as="geometry"/>
                </mxCell>
                <mxCell id="155" value="" style="group;rotation=-180;fontColor=#000000;" parent="159" vertex="1" connectable="0">
                    <mxGeometry width="60" height="60" as="geometry"/>
                </mxCell>
                <mxCell id="88" value="" style="endArrow=none;html=1;strokeColor=#000000;fontSize=17;fontColor=#000000;" parent="155" edge="1">
                    <mxGeometry width="50" height="50" relative="1" as="geometry">
                        <mxPoint x="60" y="30" as="sourcePoint"/>
                        <mxPoint x="10" y="60" as="targetPoint"/>
                    </mxGeometry>
                </mxCell>
                <mxCell id="89" value="" style="endArrow=none;html=1;strokeColor=#000000;startArrow=none;fontSize=17;fontColor=#000000;" parent="155" edge="1">
                    <mxGeometry width="50" height="50" relative="1" as="geometry">
                        <mxPoint x="60" y="30" as="sourcePoint"/>
                        <mxPoint x="10" as="targetPoint"/>
                    </mxGeometry>
                </mxCell>
                <mxCell id="133" value="" style="endArrow=none;html=1;strokeColor=#000000;fontSize=17;startArrow=none;fontColor=#000000;" parent="155" source="148" edge="1">
                    <mxGeometry width="50" height="50" relative="1" as="geometry">
                        <mxPoint x="60" y="30" as="sourcePoint"/>
                        <mxPoint x="60" y="30" as="targetPoint"/>
                    </mxGeometry>
                </mxCell>
                <mxCell id="149" value="" style="endArrow=none;html=1;strokeColor=#000000;fontSize=17;fontColor=#000000;" parent="155" target="148" edge="1">
                    <mxGeometry width="50" height="50" relative="1" as="geometry">
                        <mxPoint x="60" y="30" as="sourcePoint"/>
                        <mxPoint x="60" y="30" as="targetPoint"/>
                    </mxGeometry>
                </mxCell>
                <mxCell id="91" value="" style="shape=or;whiteSpace=wrap;html=1;strokeColor=#000000;fillColor=none;fontSize=17;rotation=-180;fontColor=#000000;" parent="155" vertex="1">
                    <mxGeometry width="10" height="60" as="geometry"/>
                </mxCell>
                <mxCell id="160" value="" style="group;rotation=-180;fontColor=#000000;" parent="1" vertex="1" connectable="0">
                    <mxGeometry x="770" y="-140" width="80" height="60" as="geometry"/>
                </mxCell>
                <mxCell id="99" value="" style="endArrow=none;html=1;strokeColor=#000000;fontSize=17;fontColor=#000000;" parent="160" edge="1">
                    <mxGeometry width="50" height="50" relative="1" as="geometry">
                        <mxPoint x="60" y="30" as="sourcePoint"/>
                        <mxPoint x="10" y="60" as="targetPoint"/>
                    </mxGeometry>
                </mxCell>
                <mxCell id="100" value="" style="endArrow=none;html=1;strokeColor=#000000;startArrow=none;fontSize=17;fontColor=#000000;" parent="160" edge="1">
                    <mxGeometry width="50" height="50" relative="1" as="geometry">
                        <mxPoint x="60" y="30" as="sourcePoint"/>
                        <mxPoint x="10" as="targetPoint"/>
                    </mxGeometry>
                </mxCell>
                <mxCell id="102" value="" style="shape=or;whiteSpace=wrap;html=1;strokeColor=#000000;fillColor=none;fontSize=17;rotation=-180;fontColor=#000000;" parent="160" vertex="1">
                    <mxGeometry width="10" height="60" as="geometry"/>
                </mxCell>
                <mxCell id="146" value="" style="shape=waypoint;sketch=0;fillStyle=solid;size=6;pointerEvents=1;points=[];fillColor=none;resizable=0;rotatable=0;perimeter=centerPerimeter;snapToPoint=1;fontColor=#000000;strokeColor=#000000;fontSize=17;rotation=-180;" parent="160" vertex="1">
                    <mxGeometry x="40" y="10" width="40" height="40" as="geometry"/>
                </mxCell>
                <mxCell id="143" value="" style="endArrow=classic;html=1;fontColor=#000000;strokeColor=#000000;fontSize=17;strokeWidth=3;" parent="160" edge="1">
                    <mxGeometry width="50" height="50" relative="1" as="geometry">
                        <mxPoint x="-120" y="-10" as="sourcePoint"/>
                        <mxPoint x="-20" y="20" as="targetPoint"/>
                    </mxGeometry>
                </mxCell>
                <mxCell id="161" value="" style="group;fontColor=#000000;" parent="1" vertex="1" connectable="0">
                    <mxGeometry x="860" y="-150" width="100" height="80" as="geometry"/>
                </mxCell>
                <mxCell id="112" value="Tunable Attenuator" style="rounded=0;whiteSpace=wrap;html=1;strokeColor=#b46504;fillColor=#fad7ac;fontSize=17;fontColor=#000000;" parent="161" vertex="1">
                    <mxGeometry y="20" width="100" height="40" as="geometry"/>
                </mxCell>
                <mxCell id="115" value="" style="endArrow=classic;html=1;fontColor=#000000;strokeColor=#000000;exitX=0.75;exitY=0;exitDx=0;exitDy=0;fontSize=17;" parent="161" source="112" edge="1">
                    <mxGeometry width="50" height="50" relative="1" as="geometry">
                        <mxPoint x="60" y="10" as="sourcePoint"/>
                        <mxPoint x="100" as="targetPoint"/>
                    </mxGeometry>
                </mxCell>
                <mxCell id="116" value="" style="endArrow=none;html=1;fontColor=#000000;strokeColor=#000000;entryX=0.25;entryY=1;entryDx=0;entryDy=0;fontSize=17;" parent="161" target="112" edge="1">
                    <mxGeometry width="50" height="50" relative="1" as="geometry">
                        <mxPoint y="80" as="sourcePoint"/>
                        <mxPoint x="10" y="70" as="targetPoint"/>
                    </mxGeometry>
                </mxCell>
                <mxCell id="162" value="" style="group;fontColor=#000000;" parent="1" vertex="1" connectable="0">
                    <mxGeometry x="979.9999999999999" y="-70" width="80" height="80" as="geometry"/>
                </mxCell>
                <mxCell id="127" value="Tunable Delay" style="rounded=0;whiteSpace=wrap;html=1;strokeColor=#b46504;fillColor=#fad7ac;fontSize=17;fontColor=#000000;" parent="162" vertex="1">
                    <mxGeometry y="20" width="80" height="40" as="geometry"/>
                </mxCell>
                <mxCell id="128" value="" style="endArrow=classic;html=1;fontColor=#000000;strokeColor=#000000;exitX=0.75;exitY=0;exitDx=0;exitDy=0;fontSize=17;" parent="162" source="127" edge="1">
                    <mxGeometry width="50" height="50" relative="1" as="geometry">
                        <mxPoint x="40" y="10" as="sourcePoint"/>
                        <mxPoint x="80" as="targetPoint"/>
                    </mxGeometry>
                </mxCell>
                <mxCell id="129" value="" style="endArrow=none;html=1;fontColor=#000000;strokeColor=#000000;entryX=0.25;entryY=1;entryDx=0;entryDy=0;fontSize=17;" parent="162" target="127" edge="1">
                    <mxGeometry width="50" height="50" relative="1" as="geometry">
                        <mxPoint y="80" as="sourcePoint"/>
                        <mxPoint x="-10" y="70" as="targetPoint"/>
                    </mxGeometry>
                </mxCell>
                <mxCell id="163" value="" style="group;fontColor=#000000;" parent="1" vertex="1" connectable="0">
                    <mxGeometry x="860" y="-70" width="100" height="80" as="geometry"/>
                </mxCell>
                <mxCell id="164" value="Tunable Attenuator" style="rounded=0;whiteSpace=wrap;html=1;strokeColor=#b46504;fillColor=#fad7ac;fontSize=17;fontColor=#000000;" parent="163" vertex="1">
                    <mxGeometry y="20" width="100" height="40" as="geometry"/>
                </mxCell>
                <mxCell id="165" value="" style="endArrow=classic;html=1;fontColor=#000000;strokeColor=#000000;exitX=0.75;exitY=0;exitDx=0;exitDy=0;fontSize=17;" parent="163" source="164" edge="1">
                    <mxGeometry width="50" height="50" relative="1" as="geometry">
                        <mxPoint x="60" y="10" as="sourcePoint"/>
                        <mxPoint x="100" as="targetPoint"/>
                    </mxGeometry>
                </mxCell>
                <mxCell id="166" value="" style="endArrow=none;html=1;fontColor=#000000;strokeColor=#000000;entryX=0.25;entryY=1;entryDx=0;entryDy=0;fontSize=17;" parent="163" target="164" edge="1">
                    <mxGeometry width="50" height="50" relative="1" as="geometry">
                        <mxPoint y="80" as="sourcePoint"/>
                        <mxPoint x="10" y="70" as="targetPoint"/>
                    </mxGeometry>
                </mxCell>
                <mxCell id="167" value="" style="group;fontColor=#000000;" parent="1" vertex="1" connectable="0">
                    <mxGeometry x="979.9999999999999" y="-150" width="80" height="80" as="geometry"/>
                </mxCell>
                <mxCell id="168" value="Tunable Delay" style="rounded=0;whiteSpace=wrap;html=1;strokeColor=#b46504;fillColor=#fad7ac;fontSize=17;fontColor=#000000;" parent="167" vertex="1">
                    <mxGeometry y="20" width="80" height="40" as="geometry"/>
                </mxCell>
                <mxCell id="169" value="" style="endArrow=classic;html=1;fontColor=#000000;strokeColor=#000000;exitX=0.75;exitY=0;exitDx=0;exitDy=0;fontSize=17;" parent="167" source="168" edge="1">
                    <mxGeometry width="50" height="50" relative="1" as="geometry">
                        <mxPoint x="40" y="10" as="sourcePoint"/>
                        <mxPoint x="80" as="targetPoint"/>
                    </mxGeometry>
                </mxCell>
                <mxCell id="170" value="" style="endArrow=none;html=1;fontColor=#000000;strokeColor=#000000;entryX=0.25;entryY=1;entryDx=0;entryDy=0;fontSize=17;" parent="167" target="168" edge="1">
                    <mxGeometry width="50" height="50" relative="1" as="geometry">
                        <mxPoint y="80" as="sourcePoint"/>
                        <mxPoint x="-10" y="70" as="targetPoint"/>
                    </mxGeometry>
                </mxCell>
                <mxCell id="171" style="edgeStyle=orthogonalEdgeStyle;html=1;exitX=0;exitY=0.5;exitDx=0;exitDy=0;entryX=0.325;entryY=0.45;entryDx=0;entryDy=0;entryPerimeter=0;fontSize=17;fontColor=#000000;startArrow=none;startFill=0;endArrow=none;endFill=0;strokeColor=#000000;strokeWidth=2;" parent="1" source="112" target="146" edge="1">
                    <mxGeometry relative="1" as="geometry"/>
                </mxCell>
                <mxCell id="172" style="edgeStyle=orthogonalEdgeStyle;html=1;exitX=0;exitY=0.5;exitDx=0;exitDy=0;entryX=0.661;entryY=0.475;entryDx=0;entryDy=0;entryPerimeter=0;fontSize=17;fontColor=#000000;startArrow=none;startFill=0;endArrow=none;endFill=0;strokeColor=#000000;strokeWidth=2;" parent="1" source="164" target="130" edge="1">
                    <mxGeometry relative="1" as="geometry"/>
                </mxCell>
                <mxCell id="173" style="edgeStyle=orthogonalEdgeStyle;html=1;exitX=0;exitY=0.5;exitDx=0;exitDy=0;entryX=1;entryY=0.5;entryDx=0;entryDy=0;fontSize=17;fontColor=#000000;startArrow=none;startFill=0;endArrow=none;endFill=0;strokeColor=#000000;strokeWidth=2;" parent="1" source="127" target="164" edge="1">
                    <mxGeometry relative="1" as="geometry"/>
                </mxCell>
                <mxCell id="174" style="edgeStyle=orthogonalEdgeStyle;html=1;exitX=1;exitY=0.5;exitDx=0;exitDy=0;entryX=0;entryY=0.75;entryDx=0;entryDy=0;fontSize=17;fontColor=#000000;startArrow=none;startFill=0;endArrow=none;endFill=0;strokeColor=#000000;strokeWidth=2;" parent="1" source="127" target="114" edge="1">
                    <mxGeometry relative="1" as="geometry"/>
                </mxCell>
                <mxCell id="175" style="edgeStyle=orthogonalEdgeStyle;html=1;exitX=1;exitY=0.5;exitDx=0;exitDy=0;entryX=0;entryY=0.25;entryDx=0;entryDy=0;fontSize=17;fontColor=#000000;startArrow=none;startFill=0;endArrow=none;endFill=0;strokeColor=#000000;strokeWidth=2;" parent="1" source="168" target="114" edge="1">
                    <mxGeometry relative="1" as="geometry"/>
                </mxCell>
                <mxCell id="191" value="" style="group" parent="1" vertex="1" connectable="0">
                    <mxGeometry x="620" y="-210" width="20" height="90" as="geometry"/>
                </mxCell>
                <mxCell id="181" value="" style="endArrow=none;html=1;fontSize=17;fontColor=#000000;strokeColor=#000000;strokeWidth=2;" parent="191" edge="1">
                    <mxGeometry width="50" height="50" relative="1" as="geometry">
                        <mxPoint x="20" y="90" as="sourcePoint"/>
                        <mxPoint x="20" as="targetPoint"/>
                    </mxGeometry>
                </mxCell>
                <mxCell id="182" value="" style="endArrow=none;html=1;fontSize=17;fontColor=#000000;strokeColor=#000000;strokeWidth=2;" parent="191" edge="1">
                    <mxGeometry width="50" height="50" relative="1" as="geometry">
                        <mxPoint y="10" as="sourcePoint"/>
                        <mxPoint x="20" as="targetPoint"/>
                    </mxGeometry>
                </mxCell>
                <mxCell id="183" value="" style="endArrow=none;html=1;fontSize=17;fontColor=#000000;strokeColor=#000000;strokeWidth=2;" parent="191" edge="1">
                    <mxGeometry width="50" height="50" relative="1" as="geometry">
                        <mxPoint y="20" as="sourcePoint"/>
                        <mxPoint x="20" y="10" as="targetPoint"/>
                    </mxGeometry>
                </mxCell>
                <mxCell id="184" value="" style="endArrow=none;html=1;fontSize=17;fontColor=#000000;strokeColor=#000000;strokeWidth=2;" parent="191" edge="1">
                    <mxGeometry width="50" height="50" relative="1" as="geometry">
                        <mxPoint y="30" as="sourcePoint"/>
                        <mxPoint x="20" y="20" as="targetPoint"/>
                    </mxGeometry>
                </mxCell>
                <mxCell id="185" value="" style="endArrow=none;html=1;fontSize=17;fontColor=#000000;strokeColor=#000000;strokeWidth=2;" parent="191" edge="1">
                    <mxGeometry width="50" height="50" relative="1" as="geometry">
                        <mxPoint y="80" as="sourcePoint"/>
                        <mxPoint x="20" y="70" as="targetPoint"/>
                    </mxGeometry>
                </mxCell>
                <mxCell id="186" value="" style="endArrow=none;html=1;fontSize=17;fontColor=#000000;strokeColor=#000000;strokeWidth=2;" parent="191" edge="1">
                    <mxGeometry width="50" height="50" relative="1" as="geometry">
                        <mxPoint y="40" as="sourcePoint"/>
                        <mxPoint x="20" y="30" as="targetPoint"/>
                    </mxGeometry>
                </mxCell>
                <mxCell id="187" value="" style="endArrow=none;html=1;fontSize=17;fontColor=#000000;strokeColor=#000000;strokeWidth=2;" parent="191" edge="1">
                    <mxGeometry width="50" height="50" relative="1" as="geometry">
                        <mxPoint y="50" as="sourcePoint"/>
                        <mxPoint x="20" y="40" as="targetPoint"/>
                    </mxGeometry>
                </mxCell>
                <mxCell id="188" value="" style="endArrow=none;html=1;fontSize=17;fontColor=#000000;strokeColor=#000000;strokeWidth=2;" parent="191" edge="1">
                    <mxGeometry width="50" height="50" relative="1" as="geometry">
                        <mxPoint y="60" as="sourcePoint"/>
                        <mxPoint x="20" y="50" as="targetPoint"/>
                    </mxGeometry>
                </mxCell>
                <mxCell id="189" value="" style="endArrow=none;html=1;fontSize=17;fontColor=#000000;strokeColor=#000000;strokeWidth=2;" parent="191" edge="1">
                    <mxGeometry width="50" height="50" relative="1" as="geometry">
                        <mxPoint y="70" as="sourcePoint"/>
                        <mxPoint x="20" y="60" as="targetPoint"/>
                    </mxGeometry>
                </mxCell>
                <mxCell id="190" value="" style="endArrow=none;html=1;fontSize=17;fontColor=#000000;strokeColor=#000000;strokeWidth=2;" parent="191" edge="1">
                    <mxGeometry width="50" height="50" relative="1" as="geometry">
                        <mxPoint y="90" as="sourcePoint"/>
                        <mxPoint x="20" y="80" as="targetPoint"/>
                    </mxGeometry>
                </mxCell>
                <mxCell id="195" value="FSO Transmitter/Jammer" style="text;html=1;strokeColor=none;fillColor=none;align=left;verticalAlign=middle;whiteSpace=wrap;rounded=0;dashed=1;fontSize=17;fontColor=#000000;" parent="1" vertex="1">
                    <mxGeometry x="280" y="-200" width="210" height="30" as="geometry"/>
                </mxCell>
                <mxCell id="196" value="LiDAR Transmitter" style="text;html=1;strokeColor=none;fillColor=none;align=right;verticalAlign=middle;whiteSpace=wrap;rounded=0;dashed=1;fontSize=17;fontColor=#000000;" parent="1" vertex="1">
                    <mxGeometry x="1120" y="-330" width="159.58" height="30" as="geometry"/>
                </mxCell>
                <mxCell id="197" value="LiDAR Receiver" style="text;html=1;strokeColor=none;fillColor=none;align=right;verticalAlign=middle;whiteSpace=wrap;rounded=0;dashed=1;fontSize=17;fontColor=#000000;" parent="1" vertex="1">
                    <mxGeometry x="1120" y="-160" width="159.58" height="30" as="geometry"/>
                </mxCell>
                <mxCell id="198" style="edgeStyle=none;html=1;exitX=1;exitY=0.5;exitDx=0;exitDy=0;entryX=0;entryY=0.5;entryDx=0;entryDy=0;strokeColor=#000000;strokeWidth=2;endArrow=none;endFill=0;fontColor=#000000;" parent="1" source="112" target="168" edge="1">
                    <mxGeometry relative="1" as="geometry"/>
                </mxCell>
                <mxCell id="199" value="" style="endArrow=none;html=1;strokeColor=#000000;strokeWidth=3;" parent="1" edge="1">
                    <mxGeometry width="50" height="50" relative="1" as="geometry">
                        <mxPoint x="430" y="-320" as="sourcePoint"/>
                        <mxPoint x="500" y="-320" as="targetPoint"/>
                    </mxGeometry>
                </mxCell>
                <mxCell id="200" value="" style="endArrow=none;html=1;strokeColor=#006EAF;strokeWidth=2;fillColor=#1ba1e2;" parent="1" edge="1">
                    <mxGeometry width="50" height="50" relative="1" as="geometry">
                        <mxPoint x="430" y="-290.0000000000001" as="sourcePoint"/>
                        <mxPoint x="500" y="-290.0000000000001" as="targetPoint"/>
                    </mxGeometry>
                </mxCell>
                <mxCell id="201" value="" style="endArrow=classic;html=1;strokeColor=#000000;strokeWidth=3;endFill=1;" parent="1" edge="1">
                    <mxGeometry width="50" height="50" relative="1" as="geometry">
                        <mxPoint x="430" y="-260.17000000000013" as="sourcePoint"/>
                        <mxPoint x="500" y="-260.17000000000013" as="targetPoint"/>
                    </mxGeometry>
                </mxCell>
                <mxCell id="202" value="&lt;font color=&quot;#000000&quot; style=&quot;font-size: 17px;&quot;&gt;Optical Fiber&lt;/font&gt;" style="text;html=1;strokeColor=none;fillColor=none;align=left;verticalAlign=middle;whiteSpace=wrap;rounded=0;fontSize=17;" parent="1" vertex="1">
                    <mxGeometry x="509.58" y="-330" width="118.42" height="20" as="geometry"/>
                </mxCell>
                <mxCell id="203" value="&lt;font color=&quot;#000000&quot; style=&quot;font-size: 17px;&quot;&gt;Electrical&lt;/font&gt;" style="text;html=1;strokeColor=none;fillColor=none;align=left;verticalAlign=middle;whiteSpace=wrap;rounded=0;fontSize=17;" parent="1" vertex="1">
                    <mxGeometry x="509.58" y="-300" width="90.42" height="20" as="geometry"/>
                </mxCell>
                <mxCell id="204" value="&lt;font color=&quot;#000000&quot; style=&quot;font-size: 17px;&quot;&gt;Free-Space Optical&lt;/font&gt;" style="text;html=1;strokeColor=none;fillColor=none;align=left;verticalAlign=middle;whiteSpace=wrap;rounded=0;fontSize=17;" parent="1" vertex="1">
                    <mxGeometry x="509.58" y="-270" width="153.42" height="20" as="geometry"/>
                </mxCell>
                <mxCell id="205" value="" style="rounded=0;whiteSpace=wrap;html=1;fillColor=#FFFFFF;strokeColor=#000000;fontSize=25;" parent="1" vertex="1">
                    <mxGeometry x="1840" y="-970" width="60" height="120" as="geometry"/>
                </mxCell>
                <mxCell id="206" value="" style="rounded=0;whiteSpace=wrap;html=1;fillColor=#FFFFFF;strokeColor=#000000;fontSize=25;" parent="1" vertex="1">
                    <mxGeometry x="1720" y="-890" width="60" height="40" as="geometry"/>
                </mxCell>
                <mxCell id="224" value="" style="group;fontSize=25;" parent="1" vertex="1" connectable="0">
                    <mxGeometry x="1760" y="-990" width="40" height="90" as="geometry"/>
                </mxCell>
                <mxCell id="225" value="" style="endArrow=none;html=1;fontSize=25;fontColor=#000000;strokeColor=#000000;strokeWidth=2;" parent="224" edge="1">
                    <mxGeometry width="50" height="50" relative="1" as="geometry">
                        <mxPoint x="20" y="90" as="sourcePoint"/>
                        <mxPoint x="20" y="20" as="targetPoint"/>
                    </mxGeometry>
                </mxCell>
                <mxCell id="228" value="" style="endArrow=none;html=1;fontSize=25;fontColor=#000000;strokeColor=#000000;strokeWidth=2;" parent="224" edge="1">
                    <mxGeometry width="50" height="50" relative="1" as="geometry">
                        <mxPoint y="30" as="sourcePoint"/>
                        <mxPoint x="20" y="20" as="targetPoint"/>
                    </mxGeometry>
                </mxCell>
                <mxCell id="229" value="" style="endArrow=none;html=1;fontSize=25;fontColor=#000000;strokeColor=#000000;strokeWidth=2;" parent="224" edge="1">
                    <mxGeometry width="50" height="50" relative="1" as="geometry">
                        <mxPoint y="80" as="sourcePoint"/>
                        <mxPoint x="20" y="70" as="targetPoint"/>
                    </mxGeometry>
                </mxCell>
                <mxCell id="230" value="" style="endArrow=none;html=1;fontSize=25;fontColor=#000000;strokeColor=#000000;strokeWidth=2;" parent="224" edge="1">
                    <mxGeometry width="50" height="50" relative="1" as="geometry">
                        <mxPoint y="40" as="sourcePoint"/>
                        <mxPoint x="20" y="30" as="targetPoint"/>
                    </mxGeometry>
                </mxCell>
                <mxCell id="231" value="" style="endArrow=none;html=1;fontSize=25;fontColor=#000000;strokeColor=#000000;strokeWidth=2;" parent="224" edge="1">
                    <mxGeometry width="50" height="50" relative="1" as="geometry">
                        <mxPoint y="50" as="sourcePoint"/>
                        <mxPoint x="20" y="40" as="targetPoint"/>
                    </mxGeometry>
                </mxCell>
                <mxCell id="232" value="" style="endArrow=none;html=1;fontSize=25;fontColor=#000000;strokeColor=#000000;strokeWidth=2;" parent="224" edge="1">
                    <mxGeometry width="50" height="50" relative="1" as="geometry">
                        <mxPoint y="60" as="sourcePoint"/>
                        <mxPoint x="20" y="50" as="targetPoint"/>
                    </mxGeometry>
                </mxCell>
                <mxCell id="233" value="" style="endArrow=none;html=1;fontSize=25;fontColor=#000000;strokeColor=#000000;strokeWidth=2;" parent="224" edge="1">
                    <mxGeometry width="50" height="50" relative="1" as="geometry">
                        <mxPoint y="70" as="sourcePoint"/>
                        <mxPoint x="20" y="60" as="targetPoint"/>
                    </mxGeometry>
                </mxCell>
                <mxCell id="234" value="" style="endArrow=none;html=1;fontSize=25;fontColor=#000000;strokeColor=#000000;strokeWidth=2;" parent="224" edge="1">
                    <mxGeometry width="50" height="50" relative="1" as="geometry">
                        <mxPoint y="90" as="sourcePoint"/>
                        <mxPoint x="20" y="80" as="targetPoint"/>
                    </mxGeometry>
                </mxCell>
                <mxCell id="235" value="" style="endArrow=classic;html=1;fontColor=#000000;strokeColor=#000000;fontSize=25;" parent="1" edge="1">
                    <mxGeometry width="50" height="50" relative="1" as="geometry">
                        <mxPoint x="1830" y="-950" as="sourcePoint"/>
                        <mxPoint x="1790" y="-940" as="targetPoint"/>
                    </mxGeometry>
                </mxCell>
                <mxCell id="236" value="" style="endArrow=classic;html=1;fontColor=#000000;strokeColor=#000000;fontSize=25;" parent="1" edge="1">
                    <mxGeometry width="50" height="50" relative="1" as="geometry">
                        <mxPoint x="1790" y="-930" as="sourcePoint"/>
                        <mxPoint x="1830" y="-920" as="targetPoint"/>
                    </mxGeometry>
                </mxCell>
                <mxCell id="239" value="" style="endArrow=classic;html=1;fontColor=#000000;strokeColor=#000000;fontSize=25;" parent="1" edge="1">
                    <mxGeometry width="50" height="50" relative="1" as="geometry">
                        <mxPoint x="1790" y="-870" as="sourcePoint"/>
                        <mxPoint x="1830" y="-870" as="targetPoint"/>
                    </mxGeometry>
                </mxCell>
                <mxCell id="240" value="" style="endArrow=classic;html=1;fontColor=#000000;strokeColor=#000000;fontSize=25;" parent="1" edge="1">
                    <mxGeometry width="50" height="50" relative="1" as="geometry">
                        <mxPoint x="1790" y="-880" as="sourcePoint"/>
                        <mxPoint x="1830" y="-900" as="targetPoint"/>
                    </mxGeometry>
                </mxCell>
                <mxCell id="241" value="" style="endArrow=none;dashed=1;html=1;fontColor=#000000;strokeColor=#000000;fontSize=25;exitX=0.011;exitY=0.331;exitDx=0;exitDy=0;exitPerimeter=0;" parent="1" source="205" edge="1">
                    <mxGeometry width="50" height="50" relative="1" as="geometry">
                        <mxPoint x="1830" y="-930" as="sourcePoint"/>
                        <mxPoint x="1900" y="-930" as="targetPoint"/>
                    </mxGeometry>
                </mxCell>
                <mxCell id="242" value="" style="endArrow=none;dashed=1;html=1;fontColor=#000000;strokeColor=#000000;fontSize=25;" parent="1" edge="1">
                    <mxGeometry width="50" height="50" relative="1" as="geometry">
                        <mxPoint x="1840" y="-890" as="sourcePoint"/>
                        <mxPoint x="1900" y="-890" as="targetPoint"/>
                    </mxGeometry>
                </mxCell>
                <mxCell id="339" value="" style="group;rotation=-180;strokeWidth=2;fontSize=27;" parent="1" vertex="1" connectable="0">
                    <mxGeometry x="2590" y="-660" width="70" height="60" as="geometry"/>
                </mxCell>
                <mxCell id="337" value="" style="shape=waypoint;sketch=0;fillStyle=solid;size=6;pointerEvents=1;points=[];fillColor=none;resizable=0;rotatable=0;perimeter=centerPerimeter;snapToPoint=1;fontSize=27;fontColor=#000000;strokeColor=#000000;rotation=-180;strokeWidth=2;" parent="339" vertex="1">
                    <mxGeometry y="10" width="40" height="40" as="geometry"/>
                </mxCell>
                <mxCell id="338" value="" style="group;rotation=-180;strokeWidth=2;fontSize=27;" parent="339" vertex="1" connectable="0">
                    <mxGeometry x="20" width="50" height="60" as="geometry"/>
                </mxCell>
                <mxCell id="335" value="" style="triangle;whiteSpace=wrap;html=1;fontSize=27;fontColor=#000000;strokeColor=#000000;fillColor=#FFFFFF;rotation=-180;strokeWidth=2;" parent="338" vertex="1">
                    <mxGeometry width="40" height="60" as="geometry"/>
                </mxCell>
                <mxCell id="336" value="" style="shape=or;whiteSpace=wrap;html=1;fontSize=27;fontColor=#000000;strokeColor=#000000;fillColor=#FFFFFF;rotation=-360;strokeWidth=2;" parent="338" vertex="1">
                    <mxGeometry x="40" width="10" height="60" as="geometry"/>
                </mxCell>
                <mxCell id="346" value="" style="edgeStyle=none;html=1;fontSize=27;fontColor=#000000;strokeColor=#000000;endArrow=none;endFill=0;strokeWidth=2;" parent="1" source="340" target="343" edge="1">
                    <mxGeometry relative="1" as="geometry"/>
                </mxCell>
                <mxCell id="340" value="IM" style="rounded=0;whiteSpace=wrap;html=1;fontSize=27;fontColor=#000000;strokeColor=#000000;fillColor=#FFFFFF;strokeWidth=2;" parent="1" vertex="1">
                    <mxGeometry x="2410" y="-660" width="80" height="60" as="geometry"/>
                </mxCell>
                <mxCell id="345" value="" style="edgeStyle=none;html=1;fontSize=27;fontColor=#000000;strokeColor=#000000;endArrow=none;endFill=0;strokeWidth=2;" parent="1" source="341" target="340" edge="1">
                    <mxGeometry relative="1" as="geometry"/>
                </mxCell>
                <mxCell id="341" value="ASE" style="rounded=0;whiteSpace=wrap;html=1;fontSize=27;fontColor=#000000;strokeColor=#000000;fillColor=#FFFFFF;strokeWidth=2;" parent="1" vertex="1">
                    <mxGeometry x="2230" y="-660" width="80" height="60" as="geometry"/>
                </mxCell>
                <mxCell id="344" value="" style="edgeStyle=none;html=1;fontSize=27;fontColor=#000000;strokeColor=#000000;endArrow=none;endFill=0;dashed=1;strokeWidth=2;" parent="1" source="342" target="340" edge="1">
                    <mxGeometry relative="1" as="geometry"/>
                </mxCell>
                <mxCell id="342" value="3GHz BERT" style="rounded=0;whiteSpace=wrap;html=1;fontSize=27;fontColor=#000000;strokeColor=#000000;fillColor=#FFFFFF;strokeWidth=2;" parent="1" vertex="1">
                    <mxGeometry x="2410" y="-740" width="80" height="60" as="geometry"/>
                </mxCell>
                <mxCell id="348" style="edgeStyle=none;html=1;exitX=1;exitY=0.5;exitDx=0;exitDy=0;fontSize=27;fontColor=#000000;strokeColor=#000000;endArrow=none;endFill=0;strokeWidth=2;" parent="1" source="343" target="337" edge="1">
                    <mxGeometry relative="1" as="geometry"/>
                </mxCell>
                <mxCell id="343" value="EDFA" style="rounded=0;whiteSpace=wrap;html=1;fontSize=27;fontColor=#000000;strokeColor=#000000;fillColor=#FFFFFF;strokeWidth=2;" parent="1" vertex="1">
                    <mxGeometry x="2510" y="-660" width="80" height="60" as="geometry"/>
                </mxCell>
                <mxCell id="349" value="" style="group;rotation=0;strokeWidth=2;fontSize=27;" parent="1" vertex="1" connectable="0">
                    <mxGeometry x="2790" y="-820" width="70" height="60" as="geometry"/>
                </mxCell>
                <mxCell id="350" value="" style="shape=waypoint;sketch=0;fillStyle=solid;size=6;pointerEvents=1;points=[];fillColor=none;resizable=0;rotatable=0;perimeter=centerPerimeter;snapToPoint=1;fontSize=27;fontColor=#000000;strokeColor=#000000;rotation=0;strokeWidth=2;" parent="349" vertex="1">
                    <mxGeometry x="30" y="10" width="40" height="40" as="geometry"/>
                </mxCell>
                <mxCell id="351" value="" style="group;rotation=0;strokeWidth=2;fontSize=27;" parent="349" vertex="1" connectable="0">
                    <mxGeometry width="50" height="60" as="geometry"/>
                </mxCell>
                <mxCell id="352" value="" style="triangle;whiteSpace=wrap;html=1;fontSize=27;fontColor=#000000;strokeColor=#000000;fillColor=#FFFFFF;rotation=0;strokeWidth=2;" parent="351" vertex="1">
                    <mxGeometry x="10" width="40" height="60" as="geometry"/>
                </mxCell>
                <mxCell id="353" value="" style="shape=or;whiteSpace=wrap;html=1;fontSize=27;fontColor=#000000;strokeColor=#000000;fillColor=#FFFFFF;rotation=-180;strokeWidth=2;" parent="351" vertex="1">
                    <mxGeometry width="10" height="60" as="geometry"/>
                </mxCell>
                <mxCell id="363" value="" style="edgeStyle=none;html=1;fontSize=27;fontColor=#000000;strokeColor=#000000;endArrow=none;endFill=0;strokeWidth=2;" parent="1" source="355" target="361" edge="1">
                    <mxGeometry relative="1" as="geometry"/>
                </mxCell>
                <mxCell id="355" value="IM" style="rounded=0;whiteSpace=wrap;html=1;fontSize=27;fontColor=#000000;strokeColor=#000000;fillColor=#FFFFFF;strokeWidth=2;" parent="1" vertex="1">
                    <mxGeometry x="2960" y="-820" width="80" height="60" as="geometry"/>
                </mxCell>
                <mxCell id="364" value="" style="edgeStyle=none;html=1;fontSize=27;fontColor=#000000;strokeColor=#000000;endArrow=none;endFill=0;strokeWidth=2;" parent="1" source="357" target="355" edge="1">
                    <mxGeometry relative="1" as="geometry"/>
                </mxCell>
                <mxCell id="357" value="DFB Laser" style="rounded=0;whiteSpace=wrap;html=1;fontSize=27;fontColor=#000000;strokeColor=#000000;fillColor=#FFFFFF;strokeWidth=2;" parent="1" vertex="1">
                    <mxGeometry x="3140" y="-820" width="80" height="60" as="geometry"/>
                </mxCell>
                <mxCell id="365" value="" style="edgeStyle=none;html=1;fontSize=27;fontColor=#000000;strokeColor=#000000;endArrow=none;endFill=0;dashed=1;strokeWidth=2;" parent="1" source="359" target="355" edge="1">
                    <mxGeometry relative="1" as="geometry"/>
                </mxCell>
                <mxCell id="359" value="3GHz BERT" style="rounded=0;whiteSpace=wrap;html=1;fontSize=27;fontColor=#000000;strokeColor=#000000;fillColor=#FFFFFF;strokeWidth=2;" parent="1" vertex="1">
                    <mxGeometry x="2960" y="-900" width="80" height="60" as="geometry"/>
                </mxCell>
                <mxCell id="361" value="EDFA" style="rounded=0;whiteSpace=wrap;html=1;fontSize=27;fontColor=#000000;strokeColor=#000000;fillColor=#FFFFFF;strokeWidth=2;" parent="1" vertex="1">
                    <mxGeometry x="2860" y="-820" width="80" height="60" as="geometry"/>
                </mxCell>
                <mxCell id="397" value="" style="edgeStyle=none;html=1;fontSize=27;fontColor=#000000;strokeColor=#000000;endArrow=none;endFill=0;strokeWidth=2;" parent="1" source="371" target="384" edge="1">
                    <mxGeometry relative="1" as="geometry"/>
                </mxCell>
                <mxCell id="372" value="" style="group;rotation=0;strokeWidth=2;fontSize=27;" parent="1" vertex="1" connectable="0">
                    <mxGeometry x="2790" y="-600" width="70" height="60" as="geometry"/>
                </mxCell>
                <mxCell id="373" value="" style="shape=waypoint;sketch=0;fillStyle=solid;size=6;pointerEvents=1;points=[];fillColor=none;resizable=0;rotatable=0;perimeter=centerPerimeter;snapToPoint=1;fontSize=27;fontColor=#000000;strokeColor=#000000;rotation=0;strokeWidth=2;" parent="372" vertex="1">
                    <mxGeometry x="30" y="10" width="40" height="40" as="geometry"/>
                </mxCell>
                <mxCell id="374" value="" style="group;rotation=0;strokeWidth=2;fontSize=27;" parent="372" vertex="1" connectable="0">
                    <mxGeometry width="50" height="60" as="geometry"/>
                </mxCell>
                <mxCell id="375" value="" style="triangle;whiteSpace=wrap;html=1;fontSize=27;fontColor=#000000;strokeColor=#000000;fillColor=#FFFFFF;rotation=0;strokeWidth=2;" parent="374" vertex="1">
                    <mxGeometry x="10" width="40" height="60" as="geometry"/>
                </mxCell>
                <mxCell id="376" value="" style="shape=or;whiteSpace=wrap;html=1;fontSize=27;fontColor=#000000;strokeColor=#000000;fillColor=#FFFFFF;rotation=-180;strokeWidth=2;" parent="374" vertex="1">
                    <mxGeometry width="10" height="60" as="geometry"/>
                </mxCell>
                <mxCell id="377" value="" style="group;rotation=0;strokeWidth=2;fontSize=27;" parent="1" vertex="1" connectable="0">
                    <mxGeometry x="2790" y="-680" width="440" height="160" as="geometry"/>
                </mxCell>
                <mxCell id="378" value="" style="shape=waypoint;sketch=0;fillStyle=solid;size=6;pointerEvents=1;points=[];fillColor=none;resizable=0;rotatable=0;perimeter=centerPerimeter;snapToPoint=1;fontSize=27;fontColor=#000000;strokeColor=#000000;rotation=0;strokeWidth=2;" parent="377" vertex="1">
                    <mxGeometry x="30" y="10" width="40" height="40" as="geometry"/>
                </mxCell>
                <mxCell id="379" value="" style="group;rotation=0;strokeWidth=2;fontSize=27;" parent="377" vertex="1" connectable="0">
                    <mxGeometry width="440" height="160" as="geometry"/>
                </mxCell>
                <mxCell id="380" value="" style="triangle;whiteSpace=wrap;html=1;fontSize=27;fontColor=#000000;strokeColor=#000000;fillColor=#FFFFFF;rotation=0;strokeWidth=2;" parent="379" vertex="1">
                    <mxGeometry x="10" width="40" height="60" as="geometry"/>
                </mxCell>
                <mxCell id="381" value="" style="shape=or;whiteSpace=wrap;html=1;fontSize=27;fontColor=#000000;strokeColor=#000000;fillColor=#FFFFFF;rotation=-180;strokeWidth=2;" parent="379" vertex="1">
                    <mxGeometry width="10" height="60" as="geometry"/>
                </mxCell>
                <mxCell id="452" value="" style="rounded=0;whiteSpace=wrap;html=1;dashed=1;fontSize=27;fontColor=#000000;strokeColor=#000000;strokeWidth=2;fillColor=none;" parent="379" vertex="1">
                    <mxGeometry x="-10" y="-40" width="450" height="200" as="geometry"/>
                </mxCell>
                <mxCell id="414" value="" style="edgeStyle=orthogonalEdgeStyle;html=1;fontSize=27;fontColor=#000000;startArrow=none;startFill=0;endArrow=none;endFill=0;strokeColor=#000000;strokeWidth=2;" parent="1" source="382" target="383" edge="1">
                    <mxGeometry relative="1" as="geometry"/>
                </mxCell>
                <mxCell id="400" style="edgeStyle=orthogonalEdgeStyle;html=1;exitX=1;exitY=0.5;exitDx=0;exitDy=0;entryX=0;entryY=0.25;entryDx=0;entryDy=0;fontSize=27;fontColor=#000000;strokeColor=#000000;endArrow=none;endFill=0;strokeWidth=2;" parent="1" source="383" target="385" edge="1">
                    <mxGeometry relative="1" as="geometry"/>
                </mxCell>
                <mxCell id="398" style="edgeStyle=orthogonalEdgeStyle;html=1;exitX=1;exitY=0.5;exitDx=0;exitDy=0;entryX=0;entryY=0.75;entryDx=0;entryDy=0;fontSize=27;fontColor=#000000;strokeColor=#000000;endArrow=none;endFill=0;strokeWidth=2;" parent="1" source="384" target="385" edge="1">
                    <mxGeometry relative="1" as="geometry"/>
                </mxCell>
                <mxCell id="401" value="" style="edgeStyle=orthogonalEdgeStyle;html=1;fontSize=27;fontColor=#000000;strokeColor=#000000;endArrow=none;endFill=0;dashed=1;strokeWidth=2;" parent="1" source="385" target="386" edge="1">
                    <mxGeometry relative="1" as="geometry"/>
                </mxCell>
                <mxCell id="385" value="BPD" style="rounded=0;whiteSpace=wrap;html=1;fontSize=27;fontColor=#000000;strokeColor=#000000;fillColor=#FFFFFF;strokeWidth=2;" parent="1" vertex="1">
                    <mxGeometry x="3040" y="-640" width="80" height="60" as="geometry"/>
                </mxCell>
                <mxCell id="386" value="RF OUT" style="rounded=0;whiteSpace=wrap;html=1;fontSize=27;fontColor=#000000;strokeColor=#000000;fillColor=#FFFFFF;strokeWidth=2;" parent="1" vertex="1">
                    <mxGeometry x="3140" y="-640" width="80" height="60" as="geometry"/>
                </mxCell>
                <mxCell id="411" value="" style="edgeStyle=orthogonalEdgeStyle;html=1;fontSize=27;fontColor=#000000;startArrow=none;startFill=0;endArrow=none;endFill=0;strokeColor=#000000;strokeWidth=2;" parent="1" source="352" target="361" edge="1">
                    <mxGeometry relative="1" as="geometry"/>
                </mxCell>
                <mxCell id="412" value="" style="edgeStyle=orthogonalEdgeStyle;html=1;fontSize=27;fontColor=#000000;startArrow=none;startFill=0;endArrow=none;endFill=0;strokeColor=#000000;strokeWidth=2;" parent="1" source="375" target="371" edge="1">
                    <mxGeometry relative="1" as="geometry"/>
                </mxCell>
                <mxCell id="413" value="" style="edgeStyle=orthogonalEdgeStyle;html=1;fontSize=27;fontColor=#000000;startArrow=none;startFill=0;endArrow=none;endFill=0;strokeColor=#000000;strokeWidth=2;" parent="1" source="380" target="382" edge="1">
                    <mxGeometry relative="1" as="geometry"/>
                </mxCell>
                <mxCell id="415" value="" style="group;fontSize=27;" parent="1" vertex="1" connectable="0">
                    <mxGeometry x="2330" y="-670" width="60" height="40" as="geometry"/>
                </mxCell>
                <mxCell id="390" value="" style="ellipse;whiteSpace=wrap;html=1;aspect=fixed;fontSize=27;fontColor=#000000;strokeColor=#000000;fillColor=#FFFFFF;strokeWidth=2;" parent="415" vertex="1">
                    <mxGeometry x="20" width="40" height="40" as="geometry"/>
                </mxCell>
                <mxCell id="391" value="" style="ellipse;whiteSpace=wrap;html=1;aspect=fixed;fontSize=27;fontColor=#000000;strokeColor=#000000;fillColor=#FFFFFF;strokeWidth=2;" parent="415" vertex="1">
                    <mxGeometry x="10" width="40" height="40" as="geometry"/>
                </mxCell>
                <mxCell id="392" value="" style="ellipse;whiteSpace=wrap;html=1;aspect=fixed;fontSize=27;fontColor=#000000;strokeColor=#000000;fillColor=#FFFFFF;strokeWidth=2;" parent="415" vertex="1">
                    <mxGeometry width="40" height="40" as="geometry"/>
                </mxCell>
                <mxCell id="416" value="" style="group;fontSize=27;" parent="1" vertex="1" connectable="0">
                    <mxGeometry x="3060" y="-830" width="60" height="40" as="geometry"/>
                </mxCell>
                <mxCell id="417" value="" style="ellipse;whiteSpace=wrap;html=1;aspect=fixed;fontSize=27;fontColor=#000000;strokeColor=#000000;fillColor=#FFFFFF;strokeWidth=2;" parent="416" vertex="1">
                    <mxGeometry x="20" width="40" height="40" as="geometry"/>
                </mxCell>
                <mxCell id="418" value="" style="ellipse;whiteSpace=wrap;html=1;aspect=fixed;fontSize=27;fontColor=#000000;strokeColor=#000000;fillColor=#FFFFFF;strokeWidth=2;" parent="416" vertex="1">
                    <mxGeometry x="10" width="40" height="40" as="geometry"/>
                </mxCell>
                <mxCell id="419" value="" style="ellipse;whiteSpace=wrap;html=1;aspect=fixed;fontSize=27;fontColor=#000000;strokeColor=#000000;fillColor=#FFFFFF;strokeWidth=2;" parent="416" vertex="1">
                    <mxGeometry width="40" height="40" as="geometry"/>
                </mxCell>
                <mxCell id="425" value="" style="group;fontSize=27;" parent="1" vertex="1" connectable="0">
                    <mxGeometry x="2860" y="-690" width="60" height="80" as="geometry"/>
                </mxCell>
                <mxCell id="423" value="" style="endArrow=classic;html=1;fontSize=27;fontColor=#000000;strokeColor=#000000;strokeWidth=2;" parent="425" edge="1">
                    <mxGeometry width="50" height="50" relative="1" as="geometry">
                        <mxPoint x="3.4106051316484617e-13" y="80" as="sourcePoint"/>
                        <mxPoint x="60" as="targetPoint"/>
                    </mxGeometry>
                </mxCell>
                <mxCell id="382" value="TA" style="rounded=0;whiteSpace=wrap;html=1;fontSize=27;fontColor=#000000;strokeColor=#000000;fillColor=#FFFFFF;strokeWidth=2;" parent="425" vertex="1">
                    <mxGeometry y="20" width="59.99999999999966" height="40" as="geometry"/>
                </mxCell>
                <mxCell id="426" value="" style="group;fontSize=27;" parent="1" vertex="1" connectable="0">
                    <mxGeometry x="2860" y="-610" width="60" height="80" as="geometry"/>
                </mxCell>
                <mxCell id="421" value="" style="endArrow=classic;html=1;fontSize=27;fontColor=#000000;strokeColor=#000000;strokeWidth=2;" parent="426" edge="1">
                    <mxGeometry width="50" height="50" relative="1" as="geometry">
                        <mxPoint y="80" as="sourcePoint"/>
                        <mxPoint x="60" as="targetPoint"/>
                    </mxGeometry>
                </mxCell>
                <mxCell id="371" value="TA" style="rounded=0;whiteSpace=wrap;html=1;fontSize=27;fontColor=#000000;strokeColor=#000000;fillColor=#FFFFFF;strokeWidth=2;" parent="426" vertex="1">
                    <mxGeometry y="20" width="60" height="40" as="geometry"/>
                </mxCell>
                <mxCell id="428" value="" style="group;fontSize=27;" parent="1" vertex="1" connectable="0">
                    <mxGeometry x="2940" y="-610" width="60" height="80" as="geometry"/>
                </mxCell>
                <mxCell id="422" value="" style="endArrow=classic;html=1;fontSize=27;fontColor=#000000;strokeColor=#000000;strokeWidth=2;startArrow=none;" parent="428" source="384" edge="1">
                    <mxGeometry width="50" height="50" relative="1" as="geometry">
                        <mxPoint x="3.4106051316484617e-13" y="80" as="sourcePoint"/>
                        <mxPoint x="60" as="targetPoint"/>
                    </mxGeometry>
                </mxCell>
                <mxCell id="384" value="TD" style="rounded=0;whiteSpace=wrap;html=1;fontSize=27;fontColor=#000000;strokeColor=#000000;fillColor=#FFFFFF;strokeWidth=2;" parent="428" vertex="1">
                    <mxGeometry y="20" width="59.99999999999966" height="40" as="geometry"/>
                </mxCell>
                <mxCell id="427" value="" style="endArrow=none;html=1;fontSize=27;fontColor=#000000;strokeColor=#000000;strokeWidth=2;" parent="428" target="384" edge="1">
                    <mxGeometry width="50" height="50" relative="1" as="geometry">
                        <mxPoint x="3.4106051316484617e-13" y="80" as="sourcePoint"/>
                        <mxPoint x="60" as="targetPoint"/>
                    </mxGeometry>
                </mxCell>
                <mxCell id="429" value="" style="group;fontSize=27;" parent="1" vertex="1" connectable="0">
                    <mxGeometry x="2940" y="-690" width="60" height="80" as="geometry"/>
                </mxCell>
                <mxCell id="424" value="" style="endArrow=classic;html=1;fontSize=27;fontColor=#000000;strokeColor=#000000;strokeWidth=2;" parent="429" edge="1">
                    <mxGeometry width="50" height="50" relative="1" as="geometry">
                        <mxPoint x="3.4106051316484617e-13" y="80" as="sourcePoint"/>
                        <mxPoint x="60" as="targetPoint"/>
                    </mxGeometry>
                </mxCell>
                <mxCell id="383" value="TD" style="rounded=0;whiteSpace=wrap;html=1;fontSize=27;fontColor=#000000;strokeColor=#000000;fillColor=#FFFFFF;strokeWidth=2;" parent="429" vertex="1">
                    <mxGeometry y="20" width="59.99999999999966" height="40" as="geometry"/>
                </mxCell>
                <mxCell id="430" value="" style="group;fontSize=27;" parent="1" vertex="1" connectable="0">
                    <mxGeometry x="2690" y="-770" width="20" height="90" as="geometry"/>
                </mxCell>
                <mxCell id="431" value="" style="endArrow=none;html=1;fontSize=27;fontColor=#000000;strokeColor=#000000;strokeWidth=2;" parent="430" edge="1">
                    <mxGeometry width="50" height="50" relative="1" as="geometry">
                        <mxPoint x="20" y="90" as="sourcePoint"/>
                        <mxPoint x="20" y="10" as="targetPoint"/>
                    </mxGeometry>
                </mxCell>
                <mxCell id="433" value="" style="endArrow=none;html=1;fontSize=27;fontColor=#000000;strokeColor=#000000;strokeWidth=2;" parent="430" edge="1">
                    <mxGeometry width="50" height="50" relative="1" as="geometry">
                        <mxPoint y="20" as="sourcePoint"/>
                        <mxPoint x="20" y="10" as="targetPoint"/>
                    </mxGeometry>
                </mxCell>
                <mxCell id="434" value="" style="endArrow=none;html=1;fontSize=27;fontColor=#000000;strokeColor=#000000;strokeWidth=2;" parent="430" edge="1">
                    <mxGeometry width="50" height="50" relative="1" as="geometry">
                        <mxPoint y="30" as="sourcePoint"/>
                        <mxPoint x="20" y="20" as="targetPoint"/>
                    </mxGeometry>
                </mxCell>
                <mxCell id="435" value="" style="endArrow=none;html=1;fontSize=27;fontColor=#000000;strokeColor=#000000;strokeWidth=2;" parent="430" edge="1">
                    <mxGeometry width="50" height="50" relative="1" as="geometry">
                        <mxPoint y="80" as="sourcePoint"/>
                        <mxPoint x="20" y="70" as="targetPoint"/>
                    </mxGeometry>
                </mxCell>
                <mxCell id="436" value="" style="endArrow=none;html=1;fontSize=27;fontColor=#000000;strokeColor=#000000;strokeWidth=2;" parent="430" edge="1">
                    <mxGeometry width="50" height="50" relative="1" as="geometry">
                        <mxPoint y="40" as="sourcePoint"/>
                        <mxPoint x="20" y="30" as="targetPoint"/>
                    </mxGeometry>
                </mxCell>
                <mxCell id="437" value="" style="endArrow=none;html=1;fontSize=27;fontColor=#000000;strokeColor=#000000;strokeWidth=2;" parent="430" edge="1">
                    <mxGeometry width="50" height="50" relative="1" as="geometry">
                        <mxPoint y="50" as="sourcePoint"/>
                        <mxPoint x="20" y="40" as="targetPoint"/>
                    </mxGeometry>
                </mxCell>
                <mxCell id="438" value="" style="endArrow=none;html=1;fontSize=27;fontColor=#000000;strokeColor=#000000;strokeWidth=2;" parent="430" edge="1">
                    <mxGeometry width="50" height="50" relative="1" as="geometry">
                        <mxPoint y="60" as="sourcePoint"/>
                        <mxPoint x="20" y="50" as="targetPoint"/>
                    </mxGeometry>
                </mxCell>
                <mxCell id="439" value="" style="endArrow=none;html=1;fontSize=27;fontColor=#000000;strokeColor=#000000;strokeWidth=2;" parent="430" edge="1">
                    <mxGeometry width="50" height="50" relative="1" as="geometry">
                        <mxPoint y="70" as="sourcePoint"/>
                        <mxPoint x="20" y="60" as="targetPoint"/>
                    </mxGeometry>
                </mxCell>
                <mxCell id="440" value="" style="endArrow=none;html=1;fontSize=27;fontColor=#000000;strokeColor=#000000;strokeWidth=2;" parent="430" edge="1">
                    <mxGeometry width="50" height="50" relative="1" as="geometry">
                        <mxPoint y="90" as="sourcePoint"/>
                        <mxPoint x="20" y="80" as="targetPoint"/>
                    </mxGeometry>
                </mxCell>
                <mxCell id="441" value="" style="endArrow=classic;html=1;fontSize=27;fontColor=#000000;strokeColor=#000000;strokeWidth=2;" parent="1" edge="1">
                    <mxGeometry width="50" height="50" relative="1" as="geometry">
                        <mxPoint x="2770" y="-780" as="sourcePoint"/>
                        <mxPoint x="2720" y="-730" as="targetPoint"/>
                    </mxGeometry>
                </mxCell>
                <mxCell id="442" value="" style="endArrow=none;html=1;fontSize=27;fontColor=#000000;strokeColor=#000000;strokeWidth=2;endFill=0;startArrow=classic;startFill=1;" parent="1" edge="1">
                    <mxGeometry width="50" height="50" relative="1" as="geometry">
                        <mxPoint x="2770" y="-660" as="sourcePoint"/>
                        <mxPoint x="2720" y="-710" as="targetPoint"/>
                    </mxGeometry>
                </mxCell>
                <mxCell id="443" value="" style="endArrow=classic;html=1;fontSize=27;fontColor=#000000;strokeColor=#000000;strokeWidth=2;" parent="1" edge="1">
                    <mxGeometry width="50" height="50" relative="1" as="geometry">
                        <mxPoint x="2680" y="-640" as="sourcePoint"/>
                        <mxPoint x="2770" y="-650" as="targetPoint"/>
                    </mxGeometry>
                </mxCell>
                <mxCell id="444" value="" style="endArrow=classic;html=1;fontSize=27;fontColor=#000000;strokeColor=#000000;strokeWidth=2;" parent="1" edge="1">
                    <mxGeometry width="50" height="50" relative="1" as="geometry">
                        <mxPoint x="2680" y="-620" as="sourcePoint"/>
                        <mxPoint x="2770" y="-570" as="targetPoint"/>
                    </mxGeometry>
                </mxCell>
                <mxCell id="445" value="" style="rounded=0;whiteSpace=wrap;html=1;fontSize=27;fontColor=#000000;strokeColor=#000000;strokeWidth=2;fillColor=none;dashed=1;" parent="1" vertex="1">
                    <mxGeometry x="2220" y="-760" width="450" height="180" as="geometry"/>
                </mxCell>
                <mxCell id="446" value="" style="rounded=0;whiteSpace=wrap;html=1;fontSize=27;fontColor=#000000;strokeColor=#000000;strokeWidth=2;fillColor=none;dashed=1;" parent="1" vertex="1">
                    <mxGeometry x="2780" y="-920" width="450" height="170" as="geometry"/>
                </mxCell>
                <mxCell id="448" value="OFS Transmitter" style="text;html=1;strokeColor=none;fillColor=none;align=left;verticalAlign=middle;whiteSpace=wrap;rounded=0;dashed=1;fontSize=27;fontColor=#000000;" parent="1" vertex="1">
                    <mxGeometry x="2230" y="-750" width="170" height="60" as="geometry"/>
                </mxCell>
                <mxCell id="449" value="LiDAR Transmitter" style="text;html=1;strokeColor=none;fillColor=none;align=right;verticalAlign=middle;whiteSpace=wrap;rounded=0;dashed=1;fontSize=27;fontColor=#000000;" parent="1" vertex="1">
                    <mxGeometry x="3050" y="-910" width="170" height="60" as="geometry"/>
                </mxCell>
                <mxCell id="450" value="LiDAR Receiver" style="text;html=1;strokeColor=none;fillColor=none;align=right;verticalAlign=middle;whiteSpace=wrap;rounded=0;dashed=1;fontSize=27;fontColor=#000000;" parent="1" vertex="1">
                    <mxGeometry x="3050" y="-710" width="170" height="60" as="geometry"/>
                </mxCell>
                <mxCell id="458" value="" style="edgeStyle=none;html=1;fontSize=27;fontColor=#000000;strokeColor=#000000;endArrow=none;endFill=0;strokeWidth=2;" parent="1" source="459" target="465" edge="1">
                    <mxGeometry relative="1" as="geometry"/>
                </mxCell>
                <mxCell id="459" value="IM" style="rounded=0;whiteSpace=wrap;html=1;fontSize=27;fontColor=#000000;strokeColor=#000000;fillColor=#FFFFFF;strokeWidth=2;" parent="1" vertex="1">
                    <mxGeometry x="2420" y="99" width="80" height="60" as="geometry"/>
                </mxCell>
                <mxCell id="460" value="" style="edgeStyle=none;html=1;fontSize=27;fontColor=#000000;strokeColor=#000000;endArrow=none;endFill=0;strokeWidth=2;" parent="1" target="459" edge="1">
                    <mxGeometry relative="1" as="geometry">
                        <mxPoint x="2320" y="129" as="sourcePoint"/>
                    </mxGeometry>
                </mxCell>
                <mxCell id="461" value="&lt;font style=&quot;font-size: 24px&quot;&gt;Wideband Laser&lt;/font&gt;" style="rounded=0;whiteSpace=wrap;html=1;fontSize=27;fontColor=#000000;strokeColor=#000000;fillColor=#FFFFFF;strokeWidth=2;" parent="1" vertex="1">
                    <mxGeometry x="2208" y="80" width="112" height="80" as="geometry"/>
                </mxCell>
                <mxCell id="462" value="" style="edgeStyle=none;html=1;fontSize=27;fontColor=#000000;strokeColor=#000000;endArrow=none;endFill=0;dashed=1;strokeWidth=2;" parent="1" source="463" target="459" edge="1">
                    <mxGeometry relative="1" as="geometry"/>
                </mxCell>
                <mxCell id="463" value="3GHz BERT" style="rounded=0;whiteSpace=wrap;html=1;fontSize=27;fontColor=#000000;strokeColor=#000000;fillColor=#FFFFFF;strokeWidth=2;" parent="1" vertex="1">
                    <mxGeometry x="2420" y="19" width="80" height="60" as="geometry"/>
                </mxCell>
                <mxCell id="464" style="edgeStyle=none;html=1;exitX=1;exitY=0.5;exitDx=0;exitDy=0;fontSize=27;fontColor=#000000;strokeColor=#000000;endArrow=none;endFill=0;strokeWidth=2;" parent="1" source="465" edge="1">
                    <mxGeometry relative="1" as="geometry">
                        <mxPoint x="2620" y="129" as="targetPoint"/>
                    </mxGeometry>
                </mxCell>
                <mxCell id="465" value="EDFA" style="rounded=0;whiteSpace=wrap;html=1;fontSize=27;fontColor=#000000;strokeColor=#000000;fillColor=#FFFFFF;strokeWidth=2;" parent="1" vertex="1">
                    <mxGeometry x="2520" y="99" width="80" height="60" as="geometry"/>
                </mxCell>
                <mxCell id="471" value="" style="edgeStyle=none;html=1;fontSize=27;fontColor=#000000;strokeColor=#000000;endArrow=none;endFill=0;strokeWidth=2;" parent="1" source="472" target="477" edge="1">
                    <mxGeometry relative="1" as="geometry"/>
                </mxCell>
                <mxCell id="472" value="IM" style="rounded=0;whiteSpace=wrap;html=1;fontSize=27;fontColor=#000000;strokeColor=#000000;fillColor=#FFFFFF;strokeWidth=2;" parent="1" vertex="1">
                    <mxGeometry x="2975" y="-180" width="80" height="60" as="geometry"/>
                </mxCell>
                <mxCell id="473" value="" style="edgeStyle=none;html=1;fontSize=27;fontColor=#000000;strokeColor=#000000;endArrow=none;endFill=0;strokeWidth=2;" parent="1" source="474" target="472" edge="1">
                    <mxGeometry relative="1" as="geometry"/>
                </mxCell>
                <mxCell id="474" value="DFB Laser" style="rounded=0;whiteSpace=wrap;html=1;fontSize=27;fontColor=#000000;strokeColor=#000000;fillColor=#FFFFFF;strokeWidth=2;" parent="1" vertex="1">
                    <mxGeometry x="3155" y="-180" width="80" height="60" as="geometry"/>
                </mxCell>
                <mxCell id="548" value="" style="edgeStyle=none;html=1;fontSize=24;endArrow=none;endFill=0;strokeColor=#000000;strokeWidth=2;dashed=1;" parent="1" source="476" target="472" edge="1">
                    <mxGeometry relative="1" as="geometry"/>
                </mxCell>
                <mxCell id="476" value="3GHz BERT" style="rounded=0;whiteSpace=wrap;html=1;fontSize=27;fontColor=#000000;strokeColor=#000000;fillColor=#FFFFFF;strokeWidth=2;" parent="1" vertex="1">
                    <mxGeometry x="2975" y="-90" width="80" height="60" as="geometry"/>
                </mxCell>
                <mxCell id="547" style="edgeStyle=none;html=1;exitX=0;exitY=0.5;exitDx=0;exitDy=0;fontSize=24;strokeColor=#000000;strokeWidth=2;endArrow=none;endFill=0;entryX=1;entryY=0.528;entryDx=0;entryDy=0;entryPerimeter=0;" parent="1" source="477" target="540" edge="1">
                    <mxGeometry relative="1" as="geometry">
                        <mxPoint x="2857" y="-150" as="targetPoint"/>
                    </mxGeometry>
                </mxCell>
                <mxCell id="477" value="EDFA" style="rounded=0;whiteSpace=wrap;html=1;fontSize=27;fontColor=#000000;strokeColor=#000000;fillColor=#FFFFFF;strokeWidth=2;" parent="1" vertex="1">
                    <mxGeometry x="2875" y="-180" width="80" height="60" as="geometry"/>
                </mxCell>
                <mxCell id="478" value="" style="edgeStyle=none;html=1;fontSize=27;fontColor=#000000;strokeColor=#000000;endArrow=none;endFill=0;strokeWidth=2;" parent="1" source="512" target="515" edge="1">
                    <mxGeometry relative="1" as="geometry"/>
                </mxCell>
                <mxCell id="490" value="" style="edgeStyle=orthogonalEdgeStyle;html=1;fontSize=27;fontColor=#000000;startArrow=none;startFill=0;endArrow=none;endFill=0;strokeColor=#000000;strokeWidth=2;" parent="1" source="509" target="519" edge="1">
                    <mxGeometry relative="1" as="geometry"/>
                </mxCell>
                <mxCell id="491" style="edgeStyle=orthogonalEdgeStyle;html=1;exitX=1;exitY=0.5;exitDx=0;exitDy=0;entryX=0;entryY=0.25;entryDx=0;entryDy=0;fontSize=27;fontColor=#000000;strokeColor=#000000;endArrow=none;endFill=0;strokeWidth=2;" parent="1" source="519" target="494" edge="1">
                    <mxGeometry relative="1" as="geometry"/>
                </mxCell>
                <mxCell id="492" style="edgeStyle=orthogonalEdgeStyle;html=1;exitX=1;exitY=0.5;exitDx=0;exitDy=0;entryX=0;entryY=0.75;entryDx=0;entryDy=0;fontSize=27;fontColor=#000000;strokeColor=#000000;endArrow=none;endFill=0;strokeWidth=2;" parent="1" source="515" target="494" edge="1">
                    <mxGeometry relative="1" as="geometry"/>
                </mxCell>
                <mxCell id="493" value="" style="edgeStyle=orthogonalEdgeStyle;html=1;fontSize=27;fontColor=#000000;strokeColor=#000000;endArrow=none;endFill=0;dashed=1;strokeWidth=2;" parent="1" source="494" target="495" edge="1">
                    <mxGeometry relative="1" as="geometry"/>
                </mxCell>
                <mxCell id="494" value="BPD" style="rounded=0;whiteSpace=wrap;html=1;fontSize=27;fontColor=#000000;strokeColor=#000000;fillColor=#FFFFFF;strokeWidth=2;" parent="1" vertex="1">
                    <mxGeometry x="3055" y="59" width="80" height="60" as="geometry"/>
                </mxCell>
                <mxCell id="495" value="RF OUT" style="rounded=0;whiteSpace=wrap;html=1;fontSize=27;fontColor=#000000;strokeColor=#000000;fillColor=#FFFFFF;strokeWidth=2;" parent="1" vertex="1">
                    <mxGeometry x="3155" y="59" width="80" height="60" as="geometry"/>
                </mxCell>
                <mxCell id="497" value="" style="edgeStyle=orthogonalEdgeStyle;html=1;fontSize=27;fontColor=#000000;startArrow=none;startFill=0;endArrow=none;endFill=0;strokeColor=#000000;strokeWidth=2;" parent="1" target="512" edge="1">
                    <mxGeometry relative="1" as="geometry">
                        <mxPoint x="2855" y="129" as="sourcePoint"/>
                    </mxGeometry>
                </mxCell>
                <mxCell id="498" value="" style="edgeStyle=orthogonalEdgeStyle;html=1;fontSize=27;fontColor=#000000;startArrow=none;startFill=0;endArrow=none;endFill=0;strokeColor=#000000;strokeWidth=2;" parent="1" target="509" edge="1">
                    <mxGeometry relative="1" as="geometry">
                        <mxPoint x="2855" y="49" as="sourcePoint"/>
                    </mxGeometry>
                </mxCell>
                <mxCell id="499" value="" style="group;fontSize=27;" parent="1" vertex="1" connectable="0">
                    <mxGeometry x="2340" y="89" width="60" height="40" as="geometry"/>
                </mxCell>
                <mxCell id="500" value="" style="ellipse;whiteSpace=wrap;html=1;aspect=fixed;fontSize=27;fontColor=#000000;strokeColor=#000000;fillColor=#FFFFFF;strokeWidth=2;" parent="499" vertex="1">
                    <mxGeometry x="20" width="40" height="40" as="geometry"/>
                </mxCell>
                <mxCell id="501" value="" style="ellipse;whiteSpace=wrap;html=1;aspect=fixed;fontSize=27;fontColor=#000000;strokeColor=#000000;fillColor=#FFFFFF;strokeWidth=2;" parent="499" vertex="1">
                    <mxGeometry x="10" width="40" height="40" as="geometry"/>
                </mxCell>
                <mxCell id="502" value="" style="ellipse;whiteSpace=wrap;html=1;aspect=fixed;fontSize=27;fontColor=#000000;strokeColor=#000000;fillColor=#FFFFFF;strokeWidth=2;" parent="499" vertex="1">
                    <mxGeometry width="40" height="40" as="geometry"/>
                </mxCell>
                <mxCell id="507" value="" style="group;fontSize=27;" parent="1" vertex="1" connectable="0">
                    <mxGeometry x="2875" y="9" width="60" height="80" as="geometry"/>
                </mxCell>
                <mxCell id="508" value="" style="endArrow=classic;html=1;fontSize=27;fontColor=#000000;strokeColor=#000000;strokeWidth=2;" parent="507" edge="1">
                    <mxGeometry width="50" height="50" relative="1" as="geometry">
                        <mxPoint x="3.4106051316484617e-13" y="80" as="sourcePoint"/>
                        <mxPoint x="60" as="targetPoint"/>
                    </mxGeometry>
                </mxCell>
                <mxCell id="509" value="TA" style="rounded=0;whiteSpace=wrap;html=1;fontSize=27;fontColor=#000000;strokeColor=#000000;fillColor=#FFFFFF;strokeWidth=2;" parent="507" vertex="1">
                    <mxGeometry y="20" width="59.99999999999966" height="40" as="geometry"/>
                </mxCell>
                <mxCell id="510" value="" style="group;fontSize=27;" parent="1" vertex="1" connectable="0">
                    <mxGeometry x="2875" y="89" width="60" height="80" as="geometry"/>
                </mxCell>
                <mxCell id="511" value="" style="endArrow=classic;html=1;fontSize=27;fontColor=#000000;strokeColor=#000000;strokeWidth=2;" parent="510" edge="1">
                    <mxGeometry width="50" height="50" relative="1" as="geometry">
                        <mxPoint y="80" as="sourcePoint"/>
                        <mxPoint x="60" as="targetPoint"/>
                    </mxGeometry>
                </mxCell>
                <mxCell id="512" value="TA" style="rounded=0;whiteSpace=wrap;html=1;fontSize=27;fontColor=#000000;strokeColor=#000000;fillColor=#FFFFFF;strokeWidth=2;" parent="510" vertex="1">
                    <mxGeometry y="20" width="60" height="40" as="geometry"/>
                </mxCell>
                <mxCell id="513" value="" style="group;fontSize=27;" parent="1" vertex="1" connectable="0">
                    <mxGeometry x="2955" y="89" width="60" height="80" as="geometry"/>
                </mxCell>
                <mxCell id="514" value="" style="endArrow=classic;html=1;fontSize=27;fontColor=#000000;strokeColor=#000000;strokeWidth=2;startArrow=none;" parent="513" source="515" edge="1">
                    <mxGeometry width="50" height="50" relative="1" as="geometry">
                        <mxPoint x="3.4106051316484617e-13" y="80" as="sourcePoint"/>
                        <mxPoint x="60" as="targetPoint"/>
                    </mxGeometry>
                </mxCell>
                <mxCell id="515" value="TD" style="rounded=0;whiteSpace=wrap;html=1;fontSize=27;fontColor=#000000;strokeColor=#000000;fillColor=#FFFFFF;strokeWidth=2;" parent="513" vertex="1">
                    <mxGeometry y="20" width="59.99999999999966" height="40" as="geometry"/>
                </mxCell>
                <mxCell id="516" value="" style="endArrow=none;html=1;fontSize=27;fontColor=#000000;strokeColor=#000000;strokeWidth=2;" parent="513" target="515" edge="1">
                    <mxGeometry width="50" height="50" relative="1" as="geometry">
                        <mxPoint x="3.4106051316484617e-13" y="80" as="sourcePoint"/>
                        <mxPoint x="60" as="targetPoint"/>
                    </mxGeometry>
                </mxCell>
                <mxCell id="517" value="" style="group;fontSize=27;" parent="1" vertex="1" connectable="0">
                    <mxGeometry x="2955" y="9" width="60" height="80" as="geometry"/>
                </mxCell>
                <mxCell id="518" value="" style="endArrow=classic;html=1;fontSize=27;fontColor=#000000;strokeColor=#000000;strokeWidth=2;" parent="517" edge="1">
                    <mxGeometry width="50" height="50" relative="1" as="geometry">
                        <mxPoint x="3.4106051316484617e-13" y="80" as="sourcePoint"/>
                        <mxPoint x="60" as="targetPoint"/>
                    </mxGeometry>
                </mxCell>
                <mxCell id="519" value="TD" style="rounded=0;whiteSpace=wrap;html=1;fontSize=27;fontColor=#000000;strokeColor=#000000;fillColor=#FFFFFF;strokeWidth=2;" parent="517" vertex="1">
                    <mxGeometry y="20" width="59.99999999999966" height="40" as="geometry"/>
                </mxCell>
                <mxCell id="520" value="" style="group;fontSize=27;" parent="1" vertex="1" connectable="0">
                    <mxGeometry x="2590" y="-105" width="20" height="90" as="geometry"/>
                </mxCell>
                <mxCell id="521" value="" style="endArrow=none;html=1;fontSize=27;fontColor=#000000;strokeColor=#000000;strokeWidth=2;" parent="520" edge="1">
                    <mxGeometry width="50" height="50" relative="1" as="geometry">
                        <mxPoint x="20" y="90" as="sourcePoint"/>
                        <mxPoint x="20" y="10" as="targetPoint"/>
                    </mxGeometry>
                </mxCell>
                <mxCell id="522" value="" style="endArrow=none;html=1;fontSize=27;fontColor=#000000;strokeColor=#000000;strokeWidth=2;" parent="520" edge="1">
                    <mxGeometry width="50" height="50" relative="1" as="geometry">
                        <mxPoint y="20" as="sourcePoint"/>
                        <mxPoint x="20" y="10" as="targetPoint"/>
                    </mxGeometry>
                </mxCell>
                <mxCell id="523" value="" style="endArrow=none;html=1;fontSize=27;fontColor=#000000;strokeColor=#000000;strokeWidth=2;" parent="520" edge="1">
                    <mxGeometry width="50" height="50" relative="1" as="geometry">
                        <mxPoint y="30" as="sourcePoint"/>
                        <mxPoint x="20" y="20" as="targetPoint"/>
                    </mxGeometry>
                </mxCell>
                <mxCell id="524" value="" style="endArrow=none;html=1;fontSize=27;fontColor=#000000;strokeColor=#000000;strokeWidth=2;" parent="520" edge="1">
                    <mxGeometry width="50" height="50" relative="1" as="geometry">
                        <mxPoint y="80" as="sourcePoint"/>
                        <mxPoint x="20" y="70" as="targetPoint"/>
                    </mxGeometry>
                </mxCell>
                <mxCell id="525" value="" style="endArrow=none;html=1;fontSize=27;fontColor=#000000;strokeColor=#000000;strokeWidth=2;" parent="520" edge="1">
                    <mxGeometry width="50" height="50" relative="1" as="geometry">
                        <mxPoint y="40" as="sourcePoint"/>
                        <mxPoint x="20" y="30" as="targetPoint"/>
                    </mxGeometry>
                </mxCell>
                <mxCell id="526" value="" style="endArrow=none;html=1;fontSize=27;fontColor=#000000;strokeColor=#000000;strokeWidth=2;" parent="520" edge="1">
                    <mxGeometry width="50" height="50" relative="1" as="geometry">
                        <mxPoint y="50" as="sourcePoint"/>
                        <mxPoint x="20" y="40" as="targetPoint"/>
                    </mxGeometry>
                </mxCell>
                <mxCell id="527" value="" style="endArrow=none;html=1;fontSize=27;fontColor=#000000;strokeColor=#000000;strokeWidth=2;" parent="520" edge="1">
                    <mxGeometry width="50" height="50" relative="1" as="geometry">
                        <mxPoint y="60" as="sourcePoint"/>
                        <mxPoint x="20" y="50" as="targetPoint"/>
                    </mxGeometry>
                </mxCell>
                <mxCell id="528" value="" style="endArrow=none;html=1;fontSize=27;fontColor=#000000;strokeColor=#000000;strokeWidth=2;" parent="520" edge="1">
                    <mxGeometry width="50" height="50" relative="1" as="geometry">
                        <mxPoint y="70" as="sourcePoint"/>
                        <mxPoint x="20" y="60" as="targetPoint"/>
                    </mxGeometry>
                </mxCell>
                <mxCell id="529" value="" style="endArrow=none;html=1;fontSize=27;fontColor=#000000;strokeColor=#000000;strokeWidth=2;" parent="520" edge="1">
                    <mxGeometry width="50" height="50" relative="1" as="geometry">
                        <mxPoint y="90" as="sourcePoint"/>
                        <mxPoint x="20" y="80" as="targetPoint"/>
                    </mxGeometry>
                </mxCell>
                <mxCell id="530" value="" style="endArrow=classic;html=1;fontSize=27;fontColor=#000000;strokeColor=#000000;strokeWidth=2;entryX=1.5;entryY=-0.5;entryDx=0;entryDy=0;entryPerimeter=0;" parent="1" target="526" edge="1">
                    <mxGeometry width="50" height="50" relative="1" as="geometry">
                        <mxPoint x="2785" y="-140" as="sourcePoint"/>
                        <mxPoint x="2642" y="-70" as="targetPoint"/>
                    </mxGeometry>
                </mxCell>
                <mxCell id="531" value="" style="endArrow=none;html=1;fontSize=27;fontColor=#000000;strokeColor=#000000;strokeWidth=2;endFill=0;startArrow=classic;startFill=1;entryX=1.5;entryY=-0.5;entryDx=0;entryDy=0;entryPerimeter=0;" parent="1" target="528" edge="1">
                    <mxGeometry width="50" height="50" relative="1" as="geometry">
                        <mxPoint x="2785" y="39" as="sourcePoint"/>
                        <mxPoint x="2640" y="-50" as="targetPoint"/>
                    </mxGeometry>
                </mxCell>
                <mxCell id="532" value="" style="endArrow=classic;html=1;fontSize=27;fontColor=#000000;strokeColor=#000000;strokeWidth=2;" parent="1" edge="1">
                    <mxGeometry width="50" height="50" relative="1" as="geometry">
                        <mxPoint x="2695" y="110" as="sourcePoint"/>
                        <mxPoint x="2785" y="49" as="targetPoint"/>
                    </mxGeometry>
                </mxCell>
                <mxCell id="533" value="" style="endArrow=classic;html=1;fontSize=27;fontColor=#000000;strokeColor=#000000;strokeWidth=2;" parent="1" edge="1">
                    <mxGeometry width="50" height="50" relative="1" as="geometry">
                        <mxPoint x="2695" y="129" as="sourcePoint"/>
                        <mxPoint x="2785" y="129" as="targetPoint"/>
                    </mxGeometry>
                </mxCell>
                <mxCell id="536" value="FSO Transmitter" style="text;html=1;strokeColor=none;fillColor=none;align=left;verticalAlign=middle;whiteSpace=wrap;rounded=0;dashed=1;fontSize=27;fontColor=#000000;" parent="1" vertex="1">
                    <mxGeometry x="2210" y="9" width="170" height="60" as="geometry"/>
                </mxCell>
                <mxCell id="537" value="LiDAR Transmitter" style="text;html=1;strokeColor=none;fillColor=none;align=right;verticalAlign=middle;whiteSpace=wrap;rounded=0;dashed=1;fontSize=27;fontColor=#000000;" parent="1" vertex="1">
                    <mxGeometry x="3065" y="-90" width="170" height="60" as="geometry"/>
                </mxCell>
                <mxCell id="538" value="LiDAR Receiver" style="text;html=1;strokeColor=none;fillColor=none;align=right;verticalAlign=middle;whiteSpace=wrap;rounded=0;dashed=1;fontSize=27;fontColor=#000000;" parent="1" vertex="1">
                    <mxGeometry x="3065" y="-11" width="170" height="60" as="geometry"/>
                </mxCell>
                <mxCell id="540" value="" style="shape=image;verticalLabelPosition=bottom;labelBackgroundColor=#ffffff;verticalAlign=top;aspect=fixed;imageAspect=0;image=data:image/png,iVBORw0KGgoAAAANSUhEUgAAARQAAAE7CAYAAAAcin6aAAAAAXNSR0IArs4c6QAAAARnQU1BAACxjwv8YQUAAAAJcEhZcwAAEnQAABJ0Ad5mH3gAAC/NSURBVHhe7Z0JvE5V98f3zexmCgmvKYQIyaxkVrnmJKEMVyrJUJl1kSSSKSmUyixvmcscMlyELplveBH+hswX4fzvOi2697nrOc8+5znnec6wvp/Pqr23u895zrnn+d21195n7QglEcEwDGMC9+H/Pcu1a9fE2LFjsZacuLg40b9/f6wxDBMITwsKOGdNmzYV3bt3F82aNcPWf+jTp4+oVKmSGDZsmGjUqJG4ePEi/gvDMH6BIY9Xady4MQz37lmiuKjtAwcOTNYOVqpUKWXHjh3qvzMMQ+PZGEqrVq3E7NmzsfYvxYsXF/v27cNaciIjI8W0adNUr4ZhmJR4UlA6duwovvrqK6zpZ9SoUaJnz55YYxjmLp6Lobz55ptBiQnw9ttvi65du2KNYZi7eMpDeffdd8XHH3+MteBp0KCBmD59usiaNSu2MIy38YyH8t5775kqJsCSJUtEtWrVxI4dO7CFYbyNJzyUkSNHil69emHNfDJmzKgGa32nnhnGa7heUGbNmiVeeuklrFkLeEAQX2EYr+JqQVm/fr2oXr061kJDly5dxKeffoo1hvEWrhWUw4cPq2Jy/PhxbAkdzz33nBqszZYtG7YwjDdwZVD25s2b6jBHr5jAezsTJkzAmnGWLl2qBmu3b9+OLQzjEcBDcRvNmzcHr0uX9ejRA3sryscff0z+jF5Lnz69Mm/ePDwqw7gf1wlKt27dyC+3lr322mvY+1+GDh1K/qwRGzlyJB6VYdyNqwQFvrjUF1rLnn/+eeydksQhENnHiL3xxht4VIZxL64RlFmzZpFfZC2rXLmycvPmTTwCDQgB1deIPfvss8rZs2fxyAzjPlwxy7N7925RsWJFkZCQgC2ByZcvn1i7dq0oVKgQtvinSZMmYsGCBVgLDnibGWaAnnjiCWxhGPfgCkFJ9DREbGws1gITEREh1q1bJ5588kls0Qayuj399NNi27Zt2BIc6dKlU0UlcbiFLQzjDhw/bfzqq6/qEhNg5syZ0mICwNJ66JM7d25sCY4bN26IFi1aqK8EMIyrAA/FqYwfPz5ZjELGgplxWbNmDXnMYOz111/HozOM83GsoCQOWcgvqJbBlHKwJA5VyGMHY88884xy5swZPAPDOBdHCsqFCxeURx55hPxy+jNY7GYWH330EXmOYKxYsWLKli1b8AwM40wcKSiwdoT6UvozSDCdkJCAvc3hrbfeIs8VjKVNm1aZM2cOnoFhnIfjBGXIkCHkl1HLYmNjsbe5REVFkecL1sADYhgn4ihBWbx4MfkF1LJJkyZhb/M5ffq0UrBgQfK8wRr1OgDD2B3HrEO5evWqKFOmjIiPj8eWwEBC6vHjx2PNGlatWiXq1KmDNXOpX7++mgkuZ86c2MIw9sYx61C6deumS0wgF4rVYgLUrl1bjB49GmvmsmzZMnW9zJYtW7CFYWyO6qfYnMS/0imGBFqWNWtW5cCBA9g7NHTs2JH8LGZYmjRplNmzZ+OZGMa+2H7IA0mSYKhz/vx5bAnMvHnzRPPmzbEWOmAvZCu9iQ8//FDdc5lh7IrthzywkbkeMRk4cGBYxASYMmWKyJAhA9bMp2/fvqJz585YYxgbovopNkXv0vrnnnsOe4aPmTNnkp/NTKtXr546w8QwdsO2Qx5ISQBDnTt37mCLNvAC32+//SaKFCmCLeGjX79+6vDESooWLarOAMEwi2Hsgm2HPDCrIysmwNixY20hJsCwYcN0vc1shIMHD6rnmD17NrYwTPixpaB88MEHYvXq1VgLTOvWrUV0dDTW7EEopqxv3bolWrVqZbk3xDCy2G7Is2/fPlGiRAmsBSZPnjwiLi5OZM+eHVvsA3hNEFSWJVOmTOLy5ctY00enTp3EpEmTsMYw4cF2HgrMZOgBvrR2FBMAhm169jsGMYG4kREmT54s6tatK06fPo0tDBMGwEOxC3oXsHXp0gV72pfjx48riYJHfn7KYBHbq6++Sv6bjBUuXFjZtGkTnp1hQottPBTI26rHOylZsqTqndidvHnz6oqn/P333+LChQuGdzCE1xMgWAubxDNMqLGNoMBUq56tQ0FMUqVKhTV7A4FTPQvS5s6dq+6LDFuaGhnO3b59W92KFWabGCakoKcSVtauXUu67/4s6bahTuHGjRtKiRIlyOuhLH/+/Eqi16bs3btXKV++PPkzMhYdHY2fgGGsxxaCUq1aNfLLQFmBAgWU69evY09nsWzZMvKa/BlkhQPgelu0aEH+jIzVrl1bOXnypHoshrGSsAvKqFGjyC+BP4Ol7U5G706Eq1evxp6K0qtXL/JnZOzhhx9WNm7ciEdiGGsIq6AcPXpUSZcuHfkFoMzMRNPh4uLFi0qePHnI66OsYsWK2PMfJk6cSP6cjEVERCgzZszAIzGM+YRVUPRMj8KXIdQ5Tqzim2++Ia/Rnw0bNgx7/sNPP/2k5MiRg/xZGRs6dCgeiWHMJWyCAltGUA+7P/vwww+xpzto1qwZeZ2UgZgePnwYe/7Dvn37lAoVKpA/L2OQEIphzCZsgtK4cWPyQacMvjhuY//+/cp9991HXi9lHTp0wJ7/AjNHL7zwAvnzMlarVi3lxIkTeDSGCZ6wCMrChQvJB9yfrVixAnu6ixEjRpDX68/Wr1+PPZPTu3dv8udlrFChQsovv/yCR2KY4AiLoFSqVIl8uClz+96/VatWJa+bMkis5I/PP/+c7CNrsMUqwwRLyAVl8uTJ5ANNGeyk53aXXO8ezbNmzcKeKYF1Ljlz5iT7ydj777+PR2IYY4RcUPRsjDV48GDs5W7efPNN8vope/TRR7EXDcyEwVQz1VfGqFgNw8gSUkGB6UrqIaYsX758yu3bt7Gnuzl16pQSGRlJ3gfKRo4ciT1p/v77b6Vly5ZkXxmrWbOm+pY0w+glZIICS7/Tp09PPsCUffHFF9jTGwwfPpy8D5RlzpxZOXfuHPb0T58+fcj+MgaepL8gMMP4I2SC8vbbb5MPLmXwMpwXKVasGHk/KOvWrRv20gaEmeova99++y0eiWECExJBgS0fUqdOTT6wlM2fPx97eguYaaHuhz/btWsX9tRm+fLlSq5cuchjyJhXYllM8IREUPr27Us+qJRFRUVhL28CbwZT94Wy9u3bY6/AHDx4UNd0va/pORfjXSwXlPPnzysZMmQgH1LKvJ6+8Oeffybviz+T9VKAW7duKS+++CJ5HBmrUaOGcuzYMTwaw6TE8oxtY8aMEQkJCVjTpmPHjqJy5cpY8yZPP/20eOWVV7AWmE8++QRLgYEMd5AaUm8i8Lskip2aXnL9+vXYwjA+oLBYwpUrV5QsWbKQf+0o0/PX1s0cOnSIvD/+zMh9mzRpEnksWYM3phnGF0s9FPBOLl68iDVtXn75ZVGqVCmseZvChQuLXr16YS0weryUu8A+PitWrBAPPfQQtugDvKjBgwdjjWEQFBbTgTdh9eTs2L59O/ZkAFjspmdmzKh3B95QlSpVyGPKWKKw4JEYxkIPBbyTs2fPYk0byAr/+OOPY40BcuXKJXr27Im1wIwaNQpL+gBv6JdfflGz5Bshceijxn2OHTuGLYynQWExHT1pDmNjY7EXkxS9XkpcXBz2NEa/fv3I48oYZOmH3QsYb2OJoEyZMoV86ChzQ55YK9GTmLpdu3bYyzh63gan7Ouvv8YjMV7EEkGpXLky+bBRxu+LaKPXS4FMcMGycuVKJXfu3OTxZSwmJgaPxHgN0wVl1apV5ENGWaNGjbAXo4UeL6Vnz57YKzji4+N1JX/ytZdffhmPxHgJ0wWlVatW5ANGWdI9Zxj/6PFSIA3C1atXsWdw3LlzR2ndujV5Hhl76qmn1K1SGO9gqqBAZnbqwaIMHjZGHj1eyieffIK9zGHAgAHkeWTsP//5j/o6AeMNTBWU/v37kw8VZfxavD7AS6HuI2WQBsFsvvzyS/JcsjZ16lQ8EuNmTBUU2Vfk8+bNiz0YPXTu3Jm8n5TNmTMHe5kHxMf0LAfwtffeew+PxLgV0xa2ffXVV+L06dNY0waWfTP6SRQULAVm0qRJWDKPWrVqqYvgqlWrhi36GDJkiPqKBeNiUFiCRs9UMecrNQ7ki6HuKWUbNmzAXubTpk0b8pwy9uSTTypHjhzBIzFuwhQPBV5n37x5M9a0gb9QiUMerDF60eOlfPHFF1gyn2nTpomBAwdiTR93vRxIh8C4DBSWoIDNuOBQMgb70DDBUbZsWfLeUma1J5A41CXPK2vQn3EPpngokLRHBkjO89RTT2GNMYoeL+Xrr7/GkjW0b99erFmzxrDX2aFDB/Hee+9hjXE8KCyGgZ3s4DAyxkl5zAEWnMmmhihatCj2shbwhCA2Qn0GGYOYDON8gvZQZL2TBx54gCP8JhERESHtpRw8eFD89NNPWLOOAgUKqLG0tm3bYos+pk+frnqwhw8fxhbGiQQlKH/++adYuHAh1rSBnCeMeegZ9syYMQNL1vPtt98aHsJs2LBBFZXVq1djC+M40FMxxMcff0y6r5T98ssv2IsxixdeeIG815TB7gOhBFbGUp9D1mBlLuM8gvJQZIc7jz32mOHFUIx/WrdujaXAhNJLAdq1a6dOC//nP//BFn3ADghGp6WZMILCopstW7aQf1koGzZsGPZizKZAgQLkPfc12OQrHMDbxvAiKPWZZAzedoYgNOMMDHsost4J8OKLL2KJMRtZLyU2NlZs3boVa6Ejf/78Yt26dYYD8uBZQVzljz/+wBbGzhgWlNmzZ2NJm2eeeUYUKlQIa4zZtGnTBkuBgZmUcAHJrGNiYrCmj40bN6qismrVKmxhbAt6KrrQs10m5xi1Htn9kLNnz449wgc8D9RnkzXIecvYF0MeyqJFi7CkTcaMGXm6OATIeinnzp0T33//PdbCA2wQtnbtWnUoZAR4U71///5YY+yGpYICYpI2bVqsMVYBcZT7778fa9rMnz8fS+GjevXq6guCsJ+PEYYNG6Ze8507d7CFsQu6BWX79u3iwIEDWNOmYcOGWGKsJE2aNNJeih0EBciXL586raxnY/ikzJw5U42rxMfHYwtjB3QLiqx3kiFDBhaUECK789/ly5dtIyoAvLw4aNAgrOlj06ZNqqisXLkSW5hwY5mggJjcd5+hERVjAHiLu2DBgljTZsGCBViyBzD7A7NARjh16pSoW7eumDx5MrYw4UTXNx5eNPv111+xpg17J6GnSZMmWNLGTh7KXWCdCqxXgZcMjfDqq6+Kfv36YY0JF7oERdY7AVhQQk/jxo2xpM2FCxd0/S5DBXhZEKytUaMGtujjww8/VCcCbt++jS1MqLFEUJ599lmRJUsWrDGhAr6IEOyUwY5eCgDv/kDCJkjcZARYcAnvjR06dAhbmFAiLShnzpyRzgHK3kn4kB322C2O4gvsogBZ8o0ArxlAsHbFihXYwoQKaUGBvxqysKCED1lBgUVuS5cuxZo9gbeNIb+KEWBLl3r16lmynQjjH9MFBf4yGH1lnQke2DsnT548WNNm8eLFWLIvkAEOMsHJzmD5Aomo+vbtizXGakwXFIifMOFF1ktxyvoN+CMFwdqaNWtiiz6GDx+uvvF+69YtbGGsQkpQ4NXx/fv3Y00boxF6xjxkBQWWAezbtw9r9gay6kNqSMiSb4Q5c+aowVq4ZsY6pARF1jvJmjWrqFq1KtaYcAELveB3IYPTApdffvmleP/997Gmjy1btqiisnz5cmxhzMZUQWHvxD7UqVMHS9o4cdn6gAEDDOd2gdnK+vXrW7qropeREhTZ6WKjY1zGfMBLkcGp78HA28YQVzGavOu1114Tffr0wRpjFgEF5bfffhMnTpzAmjYsKPZB1kO5du2aYzOhwfAFRAVmtozw0UcfiZYtW4qbN29iCxMsAQVF1juBqWLIbs/Yg4cffliULFkSa9o4+W1dmCIHQYQs+UaYO3euOoskO+nAaBNQUGTjJ+yd2A9ZL8UNK0qnTJkihg4dijV9QPJuEJVly5ZhC2OUgIICy5hl4ICs/ZCNo8Ab5CdPnsSac4HUkJAlH7Zq1cvZs2fVhOqff/45tjBG0BQU2GcW8k3IwB6K/QAPRTYnjVsyykOiKdjSFIZ8Rnj99ddF7969scboRfNpk93HBZZF81YZ9iNdunTSw57NmzdjyflUqVJFFZXatWtjiz5GjBghXnjhBXHjxg1sYWQxRVAqVKiAJcZuyAoKpFN0Ew899JAabI6OjsYWfXz33XdqXMUpK4ntgimCUr58eSwxdgOSFskAycevXLmCNfcAqSE/+OADrOlj27Ztqqj8+OOP2MIEgj0Ul1O5cmXprUzcNOxJCqSGhCz5qVKlwhZ5IM3Dc889Jz777DNsYbTwKyiwoA0WPcnAHoq9AVGRwa2CAkBqSFgEV6RIEWzRR5cuXUSvXr2wxvjDr6DIeielS5cWmTJlwhpjRyBIKYPb4ii+gLCCqMjGlXwZOXKkaNGihbh+/Tq2ML4ELSg83LE/7KH8S65cudSFfLClqRHmzZunxlX27t2LLUxSghYUHu7YH1lBOX/+vNi1axfW3A2khoQtTY0ACwFBVOyeQjMckIKiKIoaQ5GBPRT7A1OojzzyCNa08YKXchdIDTlr1iyROnVqbJEHxLdBgwZiwoQJ2MIApKDA3LvMRtSwcOqJJ57AGmNnZOMoXhIUAFJDQlylaNGi2KKPN998U7zzzjtYY0hBkR0fyr7NyoQf2WGPrGfqJipVqqSKCmTJN8KoUaNE8+bNRUJCArZ4F78eigwlSpTAEmN3ZD0Ur8RQfHnwwQfVt41hS1MjfP/992pcZc+ePdjiTYLyUIoXL44lxu6UKVNGKlYAyYa8/KWA1JCwpakRYLUxiMqSJUuwxXuwh+IhSpUqhSVtdu/ejSVvAqkhYUvTNGnSYIs8f/31l4iKihKffvoptngL9lA8hKygeHXYkxRIDQlxFdnZMV+6du0q3n77bax5hxSCAjlQrl69ijX/QBIb9lCchWyKTq97KHepWLGiKiqQJd8In3zyiWjWrJn0KyxuIIWg6BnuyCbvYewBD3n0kzNnTvHTTz+pWfKN8MMPP6jJtH///XdscTcpFIGHO+5F1kM5dOiQuHz5MtYYYOLEiWqWfCPs3LlTFRUn7CUdLCkE5cCBA1jShoc7ziNfvnwie/bsWNOGvZSUwNvGsKWpbDqIpFy8eFE0bNhQjB8/HlvcSQpBOXbsGJa0YQ/FmfCwJzggNSTEVYoVK4Yt+njrrbdEz549seY+UgjK8ePHsaRNgQIFsMQ4CdlhD79N6x94fw1EBbLkG2H06NGiadOmUpMfTsOwoMDGXozzkPVQjhw5giWGIkeOHGpqSMiSb4T58+ercRW3eYLJBAUCcfAWpQwwHmech+z2EiwockBqSMiSbwR4bwpEZdGiRdjifJIJiqx3Ats/Gnnlmwk/studsKDI8+6776pZ8uHte71cunRJNGrUSIwbNw5bnI0hQeHhjnOBPZRkgCXkst4qI8Tzzz+v7gVkdLKiW7duokePHlhzLskERXaGhwXFuYBnmT9/fqxpw16KPiA3EARrn332WWzRx5gxY0STJk0cvQbIkIfC8RNnw8Me64B1PpAa8o033sAWfSxYsEB9YzkuLg5bnAV7KB5EdtjDgmIcSA0JWfKNAGICorJw4UJscQ7soXgQWUGBF0UZ40BqSMiSnz59emyRB4Y9jRs3FmPHjsUWZxChQEZqBBbswPaLgYBxIkx3Mc7km2++Ee3atcOafyCvh5umNMMFJF5q06aN4cWCELCF+MpdTpw4oSZxgv//+eef4uTJk8ksd+7cKQxGFZBUO2/evHgUa0gmKLCrWnx8PNb8AzeGl947l7Vr14oaNWpgzT+wCI5zo5gDzJqBqBjdeuPpp58W1atXF6tWrRIbN27EVv1UrVpV3VoVxKVs2bLYaiIgKHfJnj07iEtAS1RB7ME4kSNHjpC/V1978MEHsQdjFl26dCHvdTisaNGiyqhRo/CTmUMyDwWmFG/fvo01/0B2byPjQsYewO8vY8aMWPMP5LuReR4YfUCWfDttvVG4cGE17WV0dDS2GOeeoEAQKHPmzGqjFhkyZPBUBiq3Ar9rmfUOZ86cUd9bYcwFsuS3bdvWVt+lcuXKid69e6tvVBvl3iwPjPFkyJo1K5YYJyMrEmfPnsUSYyaQGhImN+y0txUEjyGXrtGtRIB7gnLhwgUsacOC4g5kBQU8FMYaHn/8cVVUatWqhS32YPLkyWrQ3sg6JBYUj8Ieij3YsmWLLXPPwEwgzAgtX74cW+TQLSjZsmXDEuNkWFDCz5QpU9SM+rB2xI7A54LPB59TFo6heBTI5i4DC4o1wF/+Tp06Yc3ewOeU9VTuCYrsG44sKO6APZTwsX//fnWRWzDAlD6sZIZs/LCaGVa4w8pZmOaH/0Md2uHfITl2sFvewOeFzx0QmDYGRo8enWzRiz/r3r079mCczKRJk8jfr6+1bdsWezBmkJCQoJQvX5681zLWtGlTZd68ecq1a9fwiHLAz0M/6E8dV8bgc8Pn1+KebN26dQtL2nCmNncg66HA9g+MecBfepn35XyBmSAYdsD6lebNm6vrwfQAPw/9oD8cx8jMEnzuQJ4VC4pHiYyMxJI2169fxxITLPBS5n//+1+syZEqVSoxbdo09R2eunXrYmtwwHHgeHBcOL4e4PPDdfiDBcWjyL46wYJiHh988AGW5IDN9OBFwGDjLf6A48Lx9W7ap3UdLCgehQUltMA2pgcPHsRaYCCQCl922LDdSuD4cB44nyxwHf62ZWVB8SgsKKEDZsqGDh2KtcCULl1aTJ8+PWQzqnAeOB+cVxa4HmoGkAXFo8gKCryZzAQHDBGuXLmCNW2yZMmifrllXtQ1EzifnvPC9VBDHxYUj8IeSuiYNWsWlgIDW2nIbhdrNnBePVt5UNfFguJRWFBCw+rVq8Xp06expg28gRwTE4O18DBo0CD1c8gA1wXXlxTdgpImTRosMU6GBSU06MnJO2DAACyFFz2fw/f67gmKrOdx8+ZNLDFOhgUlNMgKSpcuXdR0BnYAPofsvkJ+BYUfMG+RNm1aqfc7/v77b04DaZCtW7dKJX0HZIcZoQJW1coA1wfXeRcWFA+j/JtOWJNgXyzzKrLZ6XPlymW7JEvweeBzyZD0OllQPAp4HTKCAkuzIyIisMboAfbMkUHPorJQIvu5kl4nC4pH4Vk964E0AjLAfjt2BPYCkiHpdd4TFNm3F1lQ3AELivXIeih58uTBkr2Q3WVwxowZqhcLxh6KR4FgqwwsKMZxuqDA9qV60S0ovBTbHbCHYj1e8VCSwh6KR2FBYQIh68UmhQXFo7CgWI+s5yHryYQaI5/rnqDI7HULyGbHZ+wNC4r1eFpQOAu6t2BBsR5PCwrv0+ItZLdN0ZsMmfkX2aDmunXrsGQvjHyuZB6KzIpIeBA5juJ8eOtZ65H1UBYvXowle6HnTem73BMUQHbYwxtoOx8WFOuBvYFlOHXqVIq8IuFGTx6XpBgSFB72OB/Z4DrvZW2cChUqiMKFC2NNG9gvx07IbvcB1wfvhN01FhSPwh5KaJB9wW7ChAlix44dWAsv8Dk+++wzrGnje33JBIUDs96BBSU06HmTWE9mfCvR8zk0BYU9FO/AghIa9OQVgWHP4MGDsRYeIKes7PCLyuPCguJROIYSOlq1aoWlwIwePVrs2rULa6EFzgvnl4W6LkOCcuzYMSwxToU9lNDRv39/cf/992NNG9icHrYIvXTpEraEBjifnvPC9cB1+ZJMUPLly4clbY4cOYIlxqmwoIQO+EOtJ5N8XFyc+uWW/R0FC5wHzgfnlQWuh3RAlCRs3boVcgIGtIIFC2IPxqkULlyY/N362o4dO7AHEwyJQ0wlMjKSvMf+rESJEkpsbCwewRrg+HAe6vz+rGjRotg7Jck8lEKFCmFJG/BQ7ty5gzXGiRw/fhxL2tg1V4eT2Llzp7o1xdWrV7FFjr1796qL42CLUCuA48Lx4Tx6oIY690BhuUeWLFlIVfK1+Ph47ME4jVOnTpG/U19Lnz499mCMsmbNGiVx2EjeXz1Wq1YtZfny5XjU4IDjwPGo8wSy5s2b41FoUghKmTJlyAP52sqVK7EH4zRkh7ZFihTBHowRRo8ebYqYJLWmTZsq8+bNU65du4ZnkQN+HvpBf+q4Mla+fHklISEBj0iTQlAaN25MHszXpkyZgj0Yp/HDDz+Qv1Nfq1mzJvZg9ADxknbt2pH31Cy77777lIYNGyoTJ05UFi1apGzbtk05ceKEcvv2bfX/UId2+PeoqCj156njyFrOnDmVffv24RX6J4WgdO/enTygrw0YMAB7ME5j3Lhx5O/U19q2bYs9GFlATJo0aULeTyfbsmXL8Aq1SRaUBQoWLIglbQ4fPowlxmnIBmRllxEw/3A3+Dp//nxscQeTJ08W9erVw5o2hgWF16I4F1lBMbKNglf5+eefReIQ0dD3wq5bvebOnVskeiYiOjoaWwJjWFD0TjUx9oEFxVzGjBkjmjZtamghGiwcnDhxovQufaECPg/sWSzrmdwDhz73uHz5MjmGouzo0aPYi3ESDz/8MPn79DVe1KZNsMHXsmXLKocPH8ajKUqnTp3Inwu1wecwSgpBAWC6kDqRry1ZsgR7ME7h+vXr5O+SsjNnzmAvxpdgg681atRQj+HLnDlzlMcff5zsY7WVK1dOPX8wkIIie6OGDx+OPRinsHPnTvJ36WuwfoKhAc8NXj+h7puMwUwqJSZJmTx5svTrEcEanAfOZwZkNOixxx7Dkja7d+/GEuMUZGNfJUqUwBKTFJjBMRp8hXjJ1KlT1RQBUNYCAqGHDh0So0aNEkWLFsVWc4HjwvHhPHoCr5qgsCQD3B74p0AGY0DGWcTExJC/S19r37499mDuEszKV+gHCwqNAl7R0KFDlapVq5LHlzXoD8exKj4WAf9JPFEy9uzZI0qWLIk1/6RKlUrd/1Rm+w3GHrRs2VLMnTsXa/4ZMWKEePfdd7HmbWD2pkePHuLrr7/GFn0k/uEViWIiPYMaiBMnToglS5aos3UnT55MYTDdm9TgBU/YI6hBgwaGNkDXhSorBOnSpUuhbpTFxcVhD8YJlC5dmvw9+trChQuxh7exKvjqVvyuqClVqhSWtOE4irOQjaEUL14cS94l2JWv3bt3Vz2TQPESNxG0oIQr/yWjn/3796tD1EAkeqeWBQKdQqiCr27Dr6DIzvRs3boVS4zd4RkeOSDzezArX0FM2rVrhy3eImgPZdOmTVhi7M6+ffuwpI1XhzsgIO3btze8lQUEX3fs2CGaNGmCLd7Dr6DANooyQFq77du3Y42xM7/++iuWtPGih3JXTIzO5NSoUUOsWbPGtJkcp+JXUB544AHpYQ97Kc5g27ZtWNLGax4KB1/Nw6+gAJUrV8aSNps3b8YSY1dg7YJsgFHWO3UDHHw1F1MEhT0U+yMbPIeFULK7HzgdDr6aj6agVKlSBUvaxMfHq38BGfsiO9zxgnfCwVfr0BQUCM7lzJkTa9rwsMfeyHoobhcUDr5ai6agABxHcQfsoXDwNRQEFBTZYQ/HUewLLGg7f/481rQpX748ltwFB19Dg2keyoYNGwwFtxjrkR3uFCtWTGTPnh1r7oGDr6HDNEEBVq5ciSXGTnh1uMPB19ATUFAyZMggnnzySaxpw4JiTyCIKIObBIWDr+EhoKAAderUwZI2K1aswBJjF44dOyadYsIt8RMOvoYPKUGpW7culrT5448/1GxvjH2Q9U4iIyNF1apVseZcOPgaXqQEBR402WAdeyn2Ana0kwFcfKfDwdfwIyUogOywh+Mo9kLWQ4G/6k6Fg6/2wRJBUVLmvWbCAKw/kXX9nSoocH3glRgNvoKIcPDVPEwXlOvXr7OXYhNkvZNcuXKJcuXKYc05QPAVhFB2WOcLBF9hmMPxEvOQFhRQ8NKlS2NNm+XLl2OJCSeyguLE+AlsUM7BV/shLSiArJdidLqOMRfZv9xOG+5A8BX2yeHgq/2wRFBga0N+tye8bNy4UZw9exZr2jhFUDj4an90CQqsR4GVszIsWLAAS0w4WLx4MZa0KVy4sHjkkUewZl84+OoMdAlK6tSppdWdhz3hZdGiRVjSxgneCQdfnYMuQQFkBQU2ldqyZQvWmFACm6/JLrevV68eluwJB1+dhW5Bady4sUibNi3WtGEvJTzIDnfA42zYsCHW7AcHX52HbkGBbSplvRSOo4QH2eEOiEn69OmxZh84+OpcdAsKIPuLghcFZTeXYswBhgayM2xRUVFYsg8cfHU2hgUF3GUZeNgTWmSHO4DdhjsQdA0m+BoTE8NpB8KMIUGBqWOIpcgwb948LDGhQHa4A2uKZHc0CAUQfAXPJJjgK8RcmPBiSFAA2WEPbNDN7/aEhnPnzkm/9mCn4Q4EXjn46g6CEpSIiAisaTN9+nQsMVYyd+5cLAXGDsOdu8FX8E6MwMFXG6IEQbNmzSBPQUBLnTq1cunSJezFWEX16tXJ++9rlSpVwh7h4/Dhw0qNGjXIzydjiSKi/PXXX3g0xi4Y9lCANm3aYEmbW7dusZdiMb///rtYt24d1rQJ93CHg68uBoXFMHnz5iX/gvhatWrVsAdjBQMGDCDvO2W7d+/GXqFn9OjRSqIQkJ8rkEG/qVOn4pEYOxK0oPTu3Zv85VP266+/Yi/GbAoXLkzec1+DYVG46N69O/mZZAzEJNErwSMxdiWoIQ/QunVrLAVmxowZWGLMBBKDx8fHY02bF198EUuhA4KvMCXMwVcPgMISFLLBtQcffBB7MGbSvn178n5TFupAJgdfvUXQHgog66X83//9n66pTSYwN27cELNmzcKaNuCdhDKQycFXD4LCEhQJCQlKhgwZyL8wvla7dm3sxZgBBCmp+0zZggULsJf1cPDVm5giKEB0dDT5cFC2YcMG7MUES926dcl77Gt58uTBHtbDwVfvYsqQB5BdkwJ88cUXWGKCYdu2bdI7NbZq1QpL1sHBV8Y0DwVIfCDIvzqUHT16FHsxRuncuTN5bylLFB/sZQ3BBl/Bq+Hgq/MxVVA+++wz8mGhrF+/ftiLMcK5c+eUVKlSkffW1ypUqIC9rGHNmjVKwYIFyXPLWExMDB6JcTqmCsrt27eVHDlykA+Nr2XPnl25desW9mT08tFHH5H3lbLx48djL/Ph4CuTFFMFBejfvz/58FA2YcIE7MXopUiRIuQ99bXMmTMr169fx17mAcOTYIKv4NGAZ8O4C9MFBWIj1ANEWenSpbEXo4fvvvuOvJ+U9ezZE3uZB4gJLDijzidjEGuDmAvjPkwXFOCVV14hHyTKQrk2wi3Uq1ePvJeU7dmzB3uZw44dO3QF332Ng6/uxhJB2bhxI/kwUQbrKBh5YLaGuo+UgRdhJjBEMRovAePgq/uxRFCAOnXqkA8VZT/++CP2YgLx2muvkfeQssWLF2Ov4OHgKyODZYIyd+5c8uGijL0UOY4cOULeP8rMik9x8JXRg2WCAhQvXpx8yChjLyUwer7Y48aNw17GCTb4CgvdOPjqLSwVFHioqQeNMvZStPnzzz/J+0ZZpkyZlGvXrmFPY3DwlTGCpYIC6FlByV6Kf3r16kXeM8p69OiBvYwRbPAV4i2MN7FcUNhLCZ4zZ84oadOmJe8ZZfHx8dhTPxx8ZYLBckEB2EsJDj2rj+GFQSNw8JUxg5AICnspxrlw4YISGRlJ3ivK9u7diz3l4eArYxYhERRAj5eycOFC7MUMGjSIvEeUdejQAXvJw8FXxkxCJijwxiv1QFJm9ev2TgFmavTEM+Li4rCnHBx8ZcwmZIIC6PFSILeK19GzeVebNm2wlxzBBl85TSNDEVJB0eOl5M6dO+i1FE4GVsVGRESQ94Yy2YxsHHxlrCSkggIUKlSIfFAp83JWt06dOpH3hLKWLVtiL204+MpYTcgFZdKkSeTD6s8OHDiAPb1DbGwseS/82aZNm7CnfyD4qmfI6WscfGVkCLmgAFWqVCEfWsratm2LvbxDo0aNyHtBWfPmzbGXfzj4yoSKsAjK0qVLyQfXn61evRp7uh+YMqfugT8Dz0MLDr4yoSQsggK0aNGCfIgpq1mzJvZyPxUrViTvAWVdunTBXinh4CsTDsImKLBmgnqQ/ZkX3hHRE19Kly6d+gYyBQdfmXARNkEB4K1Y6oGmLFeuXK4PChYoUIC8dsqGDBmCvZLDwVcmnIRVUM6fP69kyZKFfLApM/rimxPo06cPec2U5c+fX7lz5w72/Jdggq/Qj4OvTLCEVVCAUaNGkQ+4P3Pj28hbt24lr9WfwdDIFw6+MnYg7IIClCpVinzQKStTpgz2cg96EnpD0DYpwQZf4cXAQDNFDCOLLQRlzpw55MPuz9y0HcPEiRPJa/RnSfcxMiP4yvESxkxsIShAq1atyIfen23fvh17OpfTp0/rGqY0bNgQe3LwlbEnthEU2MI0Q4YM5MNPWf369bGnc+nYsSN5bf5s586daj8OvjJ2xTaCAowdO5b8EvgzJ6c4WLJkCXlN/mzgwIFqPw6+MnbGVoICwKpY6stAWebMmZU//vgDezoL2IiLuibKSpYsycFXxhHYTlD0vmkbFRWFPZ3D4MGDyWvxZzNnzuTgK+MIbCcoQN++fckvhj8bMWIE9rQ/69atI6/Bn0EgloOvjFOIgP8kPni249FHHxV79+7FWmA2b94sKlWqhDX7Uq5cOZE49MCaNhkzZhSpU6cWly5dwhZ5smbNKmJiYkSioGALw1jPffh/2zF8+HAsyfHWW29hyb707NlTWkwA0HqjYjJ16lQWEyb0gIdiV9q3b5/Chdeyd955B3vaD715TowaB1+ZcGLbIQ8Af53LlCkjjhw5gi2BWbRokYiKisKaPbh8+bJ6HYcPH8YWa6hRo4b44YcfVA+FYcKBbYc8QObMmcX48eOxJkfXrl0NDROspFu3bpaLCQxvWEyYsKP6KTYHhjLwUWXtlVdewZ7h55tvviE/o1kGi9V45StjF2w95EkKzOBs2bIFa4EZN26c6q2Ek2PHjqlDnb/++gtbzOVu8LVJkybYwjDhxTGCEhsbKypXrow1OVavXi1q1qyJtdDTsGFDsXjxYqyZS9myZdUhTsGCBbGFYcKPrWMoSQEPZcSIEViTIzo6Wpw9exZroaV///6WiQkEX9esWcNiwtgP8FCcRIMGDZLFEAIZ7HETambPnk1+FjOMV74ydsZxggIvA2bKlIn8svmzRG8Be1vP3r17dX8+GePgK+MEHCcoAGypQX3ptAy8hlBQrVo18vzBGIgJpx1gnIAjBQXo2rUr+eXzZ5GRkcrvv/+Ova3h9ddfJ88djMHKV94jh3EKjpnloYAZnJ9//hlrgYFZok2bNmHNXD7//HORKChYMwde+co4DcfM8lB8+eWXIkeOHFgLDLyR3KFDB6yZx8aNG00XE175yjgS1U9xMPPnz08xTAhkAwYMwN7Bc+7cOeXRRx8lz2PEOPjKOBnHCwrw/vvvk19OLYPtK8wAkmVTxzdiHHxlnI4rBAVo2bIl+SXVMkgpEAx6s9ZrGQdfGTfg6KBsUq5cuaKupt2zZw+2BOb+++8Xa9euVbOo6WXQoEFi8ODBWAsODr4ybsHRQdmkgDhMmTIFa3KACL300kvi9OnT2CIHnMcsMeHgK+MqVD/FRcBG4nBZeqxWrVrYOzBLly4lj6HXOPjKuBHXCQoAm2JRX2Ita9u2Lfb2T1xcnCoEVH89xsFXxq24UlCADh06kF9mLevVqxf2Tsn58+eVUqVKkf30GAdfGTfjWkEBjEzpxsTEYO/kPPPMM+TP6zHecItxO64WFKNexfDhw/EI/9CsWTPy5/QYpx1gvICrBQXYtWuXki1bNvJLrmWwcTvQunVr8t9ljYOvjJdwzToULZYtWyYShyxYk+epp54S69evx5p+YCqYc74yXsITggJ89dVXomPHjlizHs75yngR1yxsCwS8ZTxkyBCsWQvnfGW8imcEBRg4cKC66ZaV8MpXxst4ZsiTlM6dO4tJkyZhzRxAQGJiYniDcsbTeFJQgJdffllMmzYNa8HBwVeG+QfPCgrQokULMW/ePKwZg4OvDPMvnhYUICoqSixZsgRr+uC0AwyTHE8FZSnmz58vatWqhTV5OPjKMCnxvIcCXL58WdSvX18qI366dOnE8OHDOfjKMASe91CATJkyqZ4KxEOAKlWqqP/3JW3atGL27NksJgzjB/ZQknD06FHxv//9T11y37RpU1Vk7pItWzaxfft2Dr4yjAYsKH64cOGCupHYzp07OfjKMJKwoGgAojJmzBh1iMNiwjCBYUFhGMYkhPh/ghwuM1WE94UAAAAASUVORK5CYII=;rotation=0;" parent="1" vertex="1">
                    <mxGeometry x="2800" y="-181" width="51.7" height="59" as="geometry"/>
                </mxCell>
                <mxCell id="543" value="" style="shape=image;verticalLabelPosition=bottom;labelBackgroundColor=#ffffff;verticalAlign=top;aspect=fixed;imageAspect=0;image=data:image/png,iVBORw0KGgoAAAANSUhEUgAAARQAAAE7CAYAAAAcin6aAAAAAXNSR0IArs4c6QAAAARnQU1BAACxjwv8YQUAAAAJcEhZcwAAEnQAABJ0Ad5mH3gAAC/NSURBVHhe7Z0JvE5V98f3zexmCgmvKYQIyaxkVrnmJKEMVyrJUJl1kSSSKSmUyixvmcscMlyELplveBH+hswX4fzvOi2697nrOc8+5znnec6wvp/Pqr23u895zrnn+d21195n7QglEcEwDGMC9+H/Pcu1a9fE2LFjsZacuLg40b9/f6wxDBMITwsKOGdNmzYV3bt3F82aNcPWf+jTp4+oVKmSGDZsmGjUqJG4ePEi/gvDMH6BIY9Xady4MQz37lmiuKjtAwcOTNYOVqpUKWXHjh3qvzMMQ+PZGEqrVq3E7NmzsfYvxYsXF/v27cNaciIjI8W0adNUr4ZhmJR4UlA6duwovvrqK6zpZ9SoUaJnz55YYxjmLp6Lobz55ptBiQnw9ttvi65du2KNYZi7eMpDeffdd8XHH3+MteBp0KCBmD59usiaNSu2MIy38YyH8t5775kqJsCSJUtEtWrVxI4dO7CFYbyNJzyUkSNHil69emHNfDJmzKgGa32nnhnGa7heUGbNmiVeeuklrFkLeEAQX2EYr+JqQVm/fr2oXr061kJDly5dxKeffoo1hvEWrhWUw4cPq2Jy/PhxbAkdzz33nBqszZYtG7YwjDdwZVD25s2b6jBHr5jAezsTJkzAmnGWLl2qBmu3b9+OLQzjEcBDcRvNmzcHr0uX9ejRA3sryscff0z+jF5Lnz69Mm/ePDwqw7gf1wlKt27dyC+3lr322mvY+1+GDh1K/qwRGzlyJB6VYdyNqwQFvrjUF1rLnn/+eeydksQhENnHiL3xxht4VIZxL64RlFmzZpFfZC2rXLmycvPmTTwCDQgB1deIPfvss8rZs2fxyAzjPlwxy7N7925RsWJFkZCQgC2ByZcvn1i7dq0oVKgQtvinSZMmYsGCBVgLDnibGWaAnnjiCWxhGPfgCkFJ9DREbGws1gITEREh1q1bJ5588kls0Qayuj399NNi27Zt2BIc6dKlU0UlcbiFLQzjDhw/bfzqq6/qEhNg5syZ0mICwNJ66JM7d25sCY4bN26IFi1aqK8EMIyrAA/FqYwfPz5ZjELGgplxWbNmDXnMYOz111/HozOM83GsoCQOWcgvqJbBlHKwJA5VyGMHY88884xy5swZPAPDOBdHCsqFCxeURx55hPxy+jNY7GYWH330EXmOYKxYsWLKli1b8AwM40wcKSiwdoT6UvozSDCdkJCAvc3hrbfeIs8VjKVNm1aZM2cOnoFhnIfjBGXIkCHkl1HLYmNjsbe5REVFkecL1sADYhgn4ihBWbx4MfkF1LJJkyZhb/M5ffq0UrBgQfK8wRr1OgDD2B3HrEO5evWqKFOmjIiPj8eWwEBC6vHjx2PNGlatWiXq1KmDNXOpX7++mgkuZ86c2MIw9sYx61C6deumS0wgF4rVYgLUrl1bjB49GmvmsmzZMnW9zJYtW7CFYWyO6qfYnMS/0imGBFqWNWtW5cCBA9g7NHTs2JH8LGZYmjRplNmzZ+OZGMa+2H7IA0mSYKhz/vx5bAnMvHnzRPPmzbEWOmAvZCu9iQ8//FDdc5lh7IrthzywkbkeMRk4cGBYxASYMmWKyJAhA9bMp2/fvqJz585YYxgbovopNkXv0vrnnnsOe4aPmTNnkp/NTKtXr546w8QwdsO2Qx5ISQBDnTt37mCLNvAC32+//SaKFCmCLeGjX79+6vDESooWLarOAMEwi2Hsgm2HPDCrIysmwNixY20hJsCwYcN0vc1shIMHD6rnmD17NrYwTPixpaB88MEHYvXq1VgLTOvWrUV0dDTW7EEopqxv3bolWrVqZbk3xDCy2G7Is2/fPlGiRAmsBSZPnjwiLi5OZM+eHVvsA3hNEFSWJVOmTOLy5ctY00enTp3EpEmTsMYw4cF2HgrMZOgBvrR2FBMAhm169jsGMYG4kREmT54s6tatK06fPo0tDBMGwEOxC3oXsHXp0gV72pfjx48riYJHfn7KYBHbq6++Sv6bjBUuXFjZtGkTnp1hQottPBTI26rHOylZsqTqndidvHnz6oqn/P333+LChQuGdzCE1xMgWAubxDNMqLGNoMBUq56tQ0FMUqVKhTV7A4FTPQvS5s6dq+6LDFuaGhnO3b59W92KFWabGCakoKcSVtauXUu67/4s6bahTuHGjRtKiRIlyOuhLH/+/Eqi16bs3btXKV++PPkzMhYdHY2fgGGsxxaCUq1aNfLLQFmBAgWU69evY09nsWzZMvKa/BlkhQPgelu0aEH+jIzVrl1bOXnypHoshrGSsAvKqFGjyC+BP4Ol7U5G706Eq1evxp6K0qtXL/JnZOzhhx9WNm7ciEdiGGsIq6AcPXpUSZcuHfkFoMzMRNPh4uLFi0qePHnI66OsYsWK2PMfJk6cSP6cjEVERCgzZszAIzGM+YRVUPRMj8KXIdQ5Tqzim2++Ia/Rnw0bNgx7/sNPP/2k5MiRg/xZGRs6dCgeiWHMJWyCAltGUA+7P/vwww+xpzto1qwZeZ2UgZgePnwYe/7Dvn37lAoVKpA/L2OQEIphzCZsgtK4cWPyQacMvjhuY//+/cp9991HXi9lHTp0wJ7/AjNHL7zwAvnzMlarVi3lxIkTeDSGCZ6wCMrChQvJB9yfrVixAnu6ixEjRpDX68/Wr1+PPZPTu3dv8udlrFChQsovv/yCR2KY4AiLoFSqVIl8uClz+96/VatWJa+bMkis5I/PP/+c7CNrsMUqwwRLyAVl8uTJ5ANNGeyk53aXXO8ezbNmzcKeKYF1Ljlz5iT7ydj777+PR2IYY4RcUPRsjDV48GDs5W7efPNN8vope/TRR7EXDcyEwVQz1VfGqFgNw8gSUkGB6UrqIaYsX758yu3bt7Gnuzl16pQSGRlJ3gfKRo4ciT1p/v77b6Vly5ZkXxmrWbOm+pY0w+glZIICS7/Tp09PPsCUffHFF9jTGwwfPpy8D5RlzpxZOXfuHPb0T58+fcj+MgaepL8gMMP4I2SC8vbbb5MPLmXwMpwXKVasGHk/KOvWrRv20gaEmeova99++y0eiWECExJBgS0fUqdOTT6wlM2fPx97eguYaaHuhz/btWsX9tRm+fLlSq5cuchjyJhXYllM8IREUPr27Us+qJRFRUVhL28CbwZT94Wy9u3bY6/AHDx4UNd0va/pORfjXSwXlPPnzysZMmQgH1LKvJ6+8Oeffybviz+T9VKAW7duKS+++CJ5HBmrUaOGcuzYMTwaw6TE8oxtY8aMEQkJCVjTpmPHjqJy5cpY8yZPP/20eOWVV7AWmE8++QRLgYEMd5AaUm8i8Lskip2aXnL9+vXYwjA+oLBYwpUrV5QsWbKQf+0o0/PX1s0cOnSIvD/+zMh9mzRpEnksWYM3phnGF0s9FPBOLl68iDVtXn75ZVGqVCmseZvChQuLXr16YS0weryUu8A+PitWrBAPPfQQtugDvKjBgwdjjWEQFBbTgTdh9eTs2L59O/ZkAFjspmdmzKh3B95QlSpVyGPKWKKw4JEYxkIPBbyTs2fPYk0byAr/+OOPY40BcuXKJXr27Im1wIwaNQpL+gBv6JdfflGz5Bshceijxn2OHTuGLYynQWExHT1pDmNjY7EXkxS9XkpcXBz2NEa/fv3I48oYZOmH3QsYb2OJoEyZMoV86ChzQ55YK9GTmLpdu3bYyzh63gan7Ouvv8YjMV7EEkGpXLky+bBRxu+LaKPXS4FMcMGycuVKJXfu3OTxZSwmJgaPxHgN0wVl1apV5ENGWaNGjbAXo4UeL6Vnz57YKzji4+N1JX/ytZdffhmPxHgJ0wWlVatW5ANGWdI9Zxj/6PFSIA3C1atXsWdw3LlzR2ndujV5Hhl76qmn1K1SGO9gqqBAZnbqwaIMHjZGHj1eyieffIK9zGHAgAHkeWTsP//5j/o6AeMNTBWU/v37kw8VZfxavD7AS6HuI2WQBsFsvvzyS/JcsjZ16lQ8EuNmTBUU2Vfk8+bNiz0YPXTu3Jm8n5TNmTMHe5kHxMf0LAfwtffeew+PxLgV0xa2ffXVV+L06dNY0waWfTP6SRQULAVm0qRJWDKPWrVqqYvgqlWrhi36GDJkiPqKBeNiUFiCRs9UMecrNQ7ki6HuKWUbNmzAXubTpk0b8pwy9uSTTypHjhzBIzFuwhQPBV5n37x5M9a0gb9QiUMerDF60eOlfPHFF1gyn2nTpomBAwdiTR93vRxIh8C4DBSWoIDNuOBQMgb70DDBUbZsWfLeUma1J5A41CXPK2vQn3EPpngokLRHBkjO89RTT2GNMYoeL+Xrr7/GkjW0b99erFmzxrDX2aFDB/Hee+9hjXE8KCyGgZ3s4DAyxkl5zAEWnMmmhihatCj2shbwhCA2Qn0GGYOYDON8gvZQZL2TBx54gCP8JhERESHtpRw8eFD89NNPWLOOAgUKqLG0tm3bYos+pk+frnqwhw8fxhbGiQQlKH/++adYuHAh1rSBnCeMeegZ9syYMQNL1vPtt98aHsJs2LBBFZXVq1djC+M40FMxxMcff0y6r5T98ssv2IsxixdeeIG815TB7gOhBFbGUp9D1mBlLuM8gvJQZIc7jz32mOHFUIx/WrdujaXAhNJLAdq1a6dOC//nP//BFn3ADghGp6WZMILCopstW7aQf1koGzZsGPZizKZAgQLkPfc12OQrHMDbxvAiKPWZZAzedoYgNOMMDHsost4J8OKLL2KJMRtZLyU2NlZs3boVa6Ejf/78Yt26dYYD8uBZQVzljz/+wBbGzhgWlNmzZ2NJm2eeeUYUKlQIa4zZtGnTBkuBgZmUcAHJrGNiYrCmj40bN6qismrVKmxhbAt6KrrQs10m5xi1Htn9kLNnz449wgc8D9RnkzXIecvYF0MeyqJFi7CkTcaMGXm6OATIeinnzp0T33//PdbCA2wQtnbtWnUoZAR4U71///5YY+yGpYICYpI2bVqsMVYBcZT7778fa9rMnz8fS+GjevXq6guCsJ+PEYYNG6Ze8507d7CFsQu6BWX79u3iwIEDWNOmYcOGWGKsJE2aNNJeih0EBciXL586raxnY/ikzJw5U42rxMfHYwtjB3QLiqx3kiFDBhaUECK789/ly5dtIyoAvLw4aNAgrOlj06ZNqqisXLkSW5hwY5mggJjcd5+hERVjAHiLu2DBgljTZsGCBViyBzD7A7NARjh16pSoW7eumDx5MrYw4UTXNx5eNPv111+xpg17J6GnSZMmWNLGTh7KXWCdCqxXgZcMjfDqq6+Kfv36YY0JF7oERdY7AVhQQk/jxo2xpM2FCxd0/S5DBXhZEKytUaMGtujjww8/VCcCbt++jS1MqLFEUJ599lmRJUsWrDGhAr6IEOyUwY5eCgDv/kDCJkjcZARYcAnvjR06dAhbmFAiLShnzpyRzgHK3kn4kB322C2O4gvsogBZ8o0ArxlAsHbFihXYwoQKaUGBvxqysKCED1lBgUVuS5cuxZo9gbeNIb+KEWBLl3r16lmynQjjH9MFBf4yGH1lnQke2DsnT548WNNm8eLFWLIvkAEOMsHJzmD5Aomo+vbtizXGakwXFIifMOFF1ktxyvoN+CMFwdqaNWtiiz6GDx+uvvF+69YtbGGsQkpQ4NXx/fv3Y00boxF6xjxkBQWWAezbtw9r9gay6kNqSMiSb4Q5c+aowVq4ZsY6pARF1jvJmjWrqFq1KtaYcAELveB3IYPTApdffvmleP/997Gmjy1btqiisnz5cmxhzMZUQWHvxD7UqVMHS9o4cdn6gAEDDOd2gdnK+vXrW7qropeREhTZ6WKjY1zGfMBLkcGp78HA28YQVzGavOu1114Tffr0wRpjFgEF5bfffhMnTpzAmjYsKPZB1kO5du2aYzOhwfAFRAVmtozw0UcfiZYtW4qbN29iCxMsAQVF1juBqWLIbs/Yg4cffliULFkSa9o4+W1dmCIHQYQs+UaYO3euOoskO+nAaBNQUGTjJ+yd2A9ZL8UNK0qnTJkihg4dijV9QPJuEJVly5ZhC2OUgIICy5hl4ICs/ZCNo8Ab5CdPnsSac4HUkJAlH7Zq1cvZs2fVhOqff/45tjBG0BQU2GcW8k3IwB6K/QAPRTYnjVsyykOiKdjSFIZ8Rnj99ddF7969scboRfNpk93HBZZF81YZ9iNdunTSw57NmzdjyflUqVJFFZXatWtjiz5GjBghXnjhBXHjxg1sYWQxRVAqVKiAJcZuyAoKpFN0Ew899JAabI6OjsYWfXz33XdqXMUpK4ntgimCUr58eSwxdgOSFskAycevXLmCNfcAqSE/+OADrOlj27Ztqqj8+OOP2MIEgj0Ul1O5cmXprUzcNOxJCqSGhCz5qVKlwhZ5IM3Dc889Jz777DNsYbTwKyiwoA0WPcnAHoq9AVGRwa2CAkBqSFgEV6RIEWzRR5cuXUSvXr2wxvjDr6DIeielS5cWmTJlwhpjRyBIKYPb4ii+gLCCqMjGlXwZOXKkaNGihbh+/Tq2ML4ELSg83LE/7KH8S65cudSFfLClqRHmzZunxlX27t2LLUxSghYUHu7YH1lBOX/+vNi1axfW3A2khoQtTY0ACwFBVOyeQjMckIKiKIoaQ5GBPRT7A1OojzzyCNa08YKXchdIDTlr1iyROnVqbJEHxLdBgwZiwoQJ2MIApKDA3LvMRtSwcOqJJ57AGmNnZOMoXhIUAFJDQlylaNGi2KKPN998U7zzzjtYY0hBkR0fyr7NyoQf2WGPrGfqJipVqqSKCmTJN8KoUaNE8+bNRUJCArZ4F78eigwlSpTAEmN3ZD0Ur8RQfHnwwQfVt41hS1MjfP/992pcZc+ePdjiTYLyUIoXL44lxu6UKVNGKlYAyYa8/KWA1JCwpakRYLUxiMqSJUuwxXuwh+IhSpUqhSVtdu/ejSVvAqkhYUvTNGnSYIs8f/31l4iKihKffvoptngL9lA8hKygeHXYkxRIDQlxFdnZMV+6du0q3n77bax5hxSCAjlQrl69ijX/QBIb9lCchWyKTq97KHepWLGiKiqQJd8In3zyiWjWrJn0KyxuIIWg6BnuyCbvYewBD3n0kzNnTvHTTz+pWfKN8MMPP6jJtH///XdscTcpFIGHO+5F1kM5dOiQuHz5MtYYYOLEiWqWfCPs3LlTFRUn7CUdLCkE5cCBA1jShoc7ziNfvnwie/bsWNOGvZSUwNvGsKWpbDqIpFy8eFE0bNhQjB8/HlvcSQpBOXbsGJa0YQ/FmfCwJzggNSTEVYoVK4Yt+njrrbdEz549seY+UgjK8ePHsaRNgQIFsMQ4CdlhD79N6x94fw1EBbLkG2H06NGiadOmUpMfTsOwoMDGXozzkPVQjhw5giWGIkeOHGpqSMiSb4T58+ercRW3eYLJBAUCcfAWpQwwHmech+z2EiwockBqSMiSbwR4bwpEZdGiRdjifJIJiqx3Ats/Gnnlmwk/studsKDI8+6776pZ8uHte71cunRJNGrUSIwbNw5bnI0hQeHhjnOBPZRkgCXkst4qI8Tzzz+v7gVkdLKiW7duokePHlhzLskERXaGhwXFuYBnmT9/fqxpw16KPiA3EARrn332WWzRx5gxY0STJk0cvQbIkIfC8RNnw8Me64B1PpAa8o033sAWfSxYsEB9YzkuLg5bnAV7KB5EdtjDgmIcSA0JWfKNAGICorJw4UJscQ7soXgQWUGBF0UZ40BqSMiSnz59emyRB4Y9jRs3FmPHjsUWZxChQEZqBBbswPaLgYBxIkx3Mc7km2++Ee3atcOafyCvh5umNMMFJF5q06aN4cWCELCF+MpdTpw4oSZxgv//+eef4uTJk8ksd+7cKQxGFZBUO2/evHgUa0gmKLCrWnx8PNb8AzeGl947l7Vr14oaNWpgzT+wCI5zo5gDzJqBqBjdeuPpp58W1atXF6tWrRIbN27EVv1UrVpV3VoVxKVs2bLYaiIgKHfJnj07iEtAS1RB7ME4kSNHjpC/V1978MEHsQdjFl26dCHvdTisaNGiyqhRo/CTmUMyDwWmFG/fvo01/0B2byPjQsYewO8vY8aMWPMP5LuReR4YfUCWfDttvVG4cGE17WV0dDS2GOeeoEAQKHPmzGqjFhkyZPBUBiq3Ar9rmfUOZ86cUd9bYcwFsuS3bdvWVt+lcuXKid69e6tvVBvl3iwPjPFkyJo1K5YYJyMrEmfPnsUSYyaQGhImN+y0txUEjyGXrtGtRIB7gnLhwgUsacOC4g5kBQU8FMYaHn/8cVVUatWqhS32YPLkyWrQ3sg6JBYUj8Ieij3YsmWLLXPPwEwgzAgtX74cW+TQLSjZsmXDEuNkWFDCz5QpU9SM+rB2xI7A54LPB59TFo6heBTI5i4DC4o1wF/+Tp06Yc3ewOeU9VTuCYrsG44sKO6APZTwsX//fnWRWzDAlD6sZIZs/LCaGVa4w8pZmOaH/0Md2uHfITl2sFvewOeFzx0QmDYGRo8enWzRiz/r3r079mCczKRJk8jfr6+1bdsWezBmkJCQoJQvX5681zLWtGlTZd68ecq1a9fwiHLAz0M/6E8dV8bgc8Pn1+KebN26dQtL2nCmNncg66HA9g+MecBfepn35XyBmSAYdsD6lebNm6vrwfQAPw/9oD8cx8jMEnzuQJ4VC4pHiYyMxJI2169fxxITLPBS5n//+1+syZEqVSoxbdo09R2eunXrYmtwwHHgeHBcOL4e4PPDdfiDBcWjyL46wYJiHh988AGW5IDN9OBFwGDjLf6A48Lx9W7ap3UdLCgehQUltMA2pgcPHsRaYCCQCl922LDdSuD4cB44nyxwHf62ZWVB8SgsKKEDZsqGDh2KtcCULl1aTJ8+PWQzqnAeOB+cVxa4HmoGkAXFo8gKCryZzAQHDBGuXLmCNW2yZMmifrllXtQ1EzifnvPC9VBDHxYUj8IeSuiYNWsWlgIDW2nIbhdrNnBePVt5UNfFguJRWFBCw+rVq8Xp06expg28gRwTE4O18DBo0CD1c8gA1wXXlxTdgpImTRosMU6GBSU06MnJO2DAACyFFz2fw/f67gmKrOdx8+ZNLDFOhgUlNMgKSpcuXdR0BnYAPofsvkJ+BYUfMG+RNm1aqfc7/v77b04DaZCtW7dKJX0HZIcZoQJW1coA1wfXeRcWFA+j/JtOWJNgXyzzKrLZ6XPlymW7JEvweeBzyZD0OllQPAp4HTKCAkuzIyIisMboAfbMkUHPorJQIvu5kl4nC4pH4Vk964E0AjLAfjt2BPYCkiHpdd4TFNm3F1lQ3AELivXIeih58uTBkr2Q3WVwxowZqhcLxh6KR4FgqwwsKMZxuqDA9qV60S0ovBTbHbCHYj1e8VCSwh6KR2FBYQIh68UmhQXFo7CgWI+s5yHryYQaI5/rnqDI7HULyGbHZ+wNC4r1eFpQOAu6t2BBsR5PCwrv0+ItZLdN0ZsMmfkX2aDmunXrsGQvjHyuZB6KzIpIeBA5juJ8eOtZ65H1UBYvXowle6HnTem73BMUQHbYwxtoOx8WFOuBvYFlOHXqVIq8IuFGTx6XpBgSFB72OB/Z4DrvZW2cChUqiMKFC2NNG9gvx07IbvcB1wfvhN01FhSPwh5KaJB9wW7ChAlix44dWAsv8Dk+++wzrGnje33JBIUDs96BBSU06HmTWE9mfCvR8zk0BYU9FO/AghIa9OQVgWHP4MGDsRYeIKes7PCLyuPCguJROIYSOlq1aoWlwIwePVrs2rULa6EFzgvnl4W6LkOCcuzYMSwxToU9lNDRv39/cf/992NNG9icHrYIvXTpEraEBjifnvPC9cB1+ZJMUPLly4clbY4cOYIlxqmwoIQO+EOtJ5N8XFyc+uWW/R0FC5wHzgfnlQWuh3RAlCRs3boVcgIGtIIFC2IPxqkULlyY/N362o4dO7AHEwyJQ0wlMjKSvMf+rESJEkpsbCwewRrg+HAe6vz+rGjRotg7Jck8lEKFCmFJG/BQ7ty5gzXGiRw/fhxL2tg1V4eT2Llzp7o1xdWrV7FFjr1796qL42CLUCuA48Lx4Tx6oIY690BhuUeWLFlIVfK1+Ph47ME4jVOnTpG/U19Lnz499mCMsmbNGiVx2EjeXz1Wq1YtZfny5XjU4IDjwPGo8wSy5s2b41FoUghKmTJlyAP52sqVK7EH4zRkh7ZFihTBHowRRo8ebYqYJLWmTZsq8+bNU65du4ZnkQN+HvpBf+q4Mla+fHklISEBj0iTQlAaN25MHszXpkyZgj0Yp/HDDz+Qv1Nfq1mzJvZg9ADxknbt2pH31Cy77777lIYNGyoTJ05UFi1apGzbtk05ceKEcvv2bfX/UId2+PeoqCj156njyFrOnDmVffv24RX6J4WgdO/enTygrw0YMAB7ME5j3Lhx5O/U19q2bYs9GFlATJo0aULeTyfbsmXL8Aq1SRaUBQoWLIglbQ4fPowlxmnIBmRllxEw/3A3+Dp//nxscQeTJ08W9erVw5o2hgWF16I4F1lBMbKNglf5+eefReIQ0dD3wq5bvebOnVskeiYiOjoaWwJjWFD0TjUx9oEFxVzGjBkjmjZtamghGiwcnDhxovQufaECPg/sWSzrmdwDhz73uHz5MjmGouzo0aPYi3ESDz/8MPn79DVe1KZNsMHXsmXLKocPH8ajKUqnTp3Inwu1wecwSgpBAWC6kDqRry1ZsgR7ME7h+vXr5O+SsjNnzmAvxpdgg681atRQj+HLnDlzlMcff5zsY7WVK1dOPX8wkIIie6OGDx+OPRinsHPnTvJ36WuwfoKhAc8NXj+h7puMwUwqJSZJmTx5svTrEcEanAfOZwZkNOixxx7Dkja7d+/GEuMUZGNfJUqUwBKTFJjBMRp8hXjJ1KlT1RQBUNYCAqGHDh0So0aNEkWLFsVWc4HjwvHhPHoCr5qgsCQD3B74p0AGY0DGWcTExJC/S19r37499mDuEszKV+gHCwqNAl7R0KFDlapVq5LHlzXoD8exKj4WAf9JPFEy9uzZI0qWLIk1/6RKlUrd/1Rm+w3GHrRs2VLMnTsXa/4ZMWKEePfdd7HmbWD2pkePHuLrr7/GFn0k/uEViWIiPYMaiBMnToglS5aos3UnT55MYTDdm9TgBU/YI6hBgwaGNkDXhSorBOnSpUuhbpTFxcVhD8YJlC5dmvw9+trChQuxh7exKvjqVvyuqClVqhSWtOE4irOQjaEUL14cS94l2JWv3bt3Vz2TQPESNxG0oIQr/yWjn/3796tD1EAkeqeWBQKdQqiCr27Dr6DIzvRs3boVS4zd4RkeOSDzezArX0FM2rVrhy3eImgPZdOmTVhi7M6+ffuwpI1XhzsgIO3btze8lQUEX3fs2CGaNGmCLd7Dr6DANooyQFq77du3Y42xM7/++iuWtPGih3JXTIzO5NSoUUOsWbPGtJkcp+JXUB544AHpYQ97Kc5g27ZtWNLGax4KB1/Nw6+gAJUrV8aSNps3b8YSY1dg7YJsgFHWO3UDHHw1F1MEhT0U+yMbPIeFULK7HzgdDr6aj6agVKlSBUvaxMfHq38BGfsiO9zxgnfCwVfr0BQUCM7lzJkTa9rwsMfeyHoobhcUDr5ai6agABxHcQfsoXDwNRQEFBTZYQ/HUewLLGg7f/481rQpX748ltwFB19Dg2keyoYNGwwFtxjrkR3uFCtWTGTPnh1r7oGDr6HDNEEBVq5ciSXGTnh1uMPB19ATUFAyZMggnnzySaxpw4JiTyCIKIObBIWDr+EhoKAAderUwZI2K1aswBJjF44dOyadYsIt8RMOvoYPKUGpW7culrT5448/1GxvjH2Q9U4iIyNF1apVseZcOPgaXqQEBR402WAdeyn2Ana0kwFcfKfDwdfwIyUogOywh+Mo9kLWQ4G/6k6Fg6/2wRJBUVLmvWbCAKw/kXX9nSoocH3glRgNvoKIcPDVPEwXlOvXr7OXYhNkvZNcuXKJcuXKYc05QPAVhFB2WOcLBF9hmMPxEvOQFhRQ8NKlS2NNm+XLl2OJCSeyguLE+AlsUM7BV/shLSiArJdidLqOMRfZv9xOG+5A8BX2yeHgq/2wRFBga0N+tye8bNy4UZw9exZr2jhFUDj4an90CQqsR4GVszIsWLAAS0w4WLx4MZa0KVy4sHjkkUewZl84+OoMdAlK6tSppdWdhz3hZdGiRVjSxgneCQdfnYMuQQFkBQU2ldqyZQvWmFACm6/JLrevV68eluwJB1+dhW5Bady4sUibNi3WtGEvJTzIDnfA42zYsCHW7AcHX52HbkGBbSplvRSOo4QH2eEOiEn69OmxZh84+OpcdAsKIPuLghcFZTeXYswBhgayM2xRUVFYsg8cfHU2hgUF3GUZeNgTWmSHO4DdhjsQdA0m+BoTE8NpB8KMIUGBqWOIpcgwb948LDGhQHa4A2uKZHc0CAUQfAXPJJjgK8RcmPBiSFAA2WEPbNDN7/aEhnPnzkm/9mCn4Q4EXjn46g6CEpSIiAisaTN9+nQsMVYyd+5cLAXGDsOdu8FX8E6MwMFXG6IEQbNmzSBPQUBLnTq1cunSJezFWEX16tXJ++9rlSpVwh7h4/Dhw0qNGjXIzydjiSKi/PXXX3g0xi4Y9lCANm3aYEmbW7dusZdiMb///rtYt24d1rQJ93CHg68uBoXFMHnz5iX/gvhatWrVsAdjBQMGDCDvO2W7d+/GXqFn9OjRSqIQkJ8rkEG/qVOn4pEYOxK0oPTu3Zv85VP266+/Yi/GbAoXLkzec1+DYVG46N69O/mZZAzEJNErwSMxdiWoIQ/QunVrLAVmxowZWGLMBBKDx8fHY02bF198EUuhA4KvMCXMwVcPgMISFLLBtQcffBB7MGbSvn178n5TFupAJgdfvUXQHgog66X83//9n66pTSYwN27cELNmzcKaNuCdhDKQycFXD4LCEhQJCQlKhgwZyL8wvla7dm3sxZgBBCmp+0zZggULsJf1cPDVm5giKEB0dDT5cFC2YcMG7MUES926dcl77Gt58uTBHtbDwVfvYsqQB5BdkwJ88cUXWGKCYdu2bdI7NbZq1QpL1sHBV8Y0DwVIfCDIvzqUHT16FHsxRuncuTN5bylLFB/sZQ3BBl/Bq+Hgq/MxVVA+++wz8mGhrF+/ftiLMcK5c+eUVKlSkffW1ypUqIC9rGHNmjVKwYIFyXPLWExMDB6JcTqmCsrt27eVHDlykA+Nr2XPnl25desW9mT08tFHH5H3lbLx48djL/Ph4CuTFFMFBejfvz/58FA2YcIE7MXopUiRIuQ99bXMmTMr169fx17mAcOTYIKv4NGAZ8O4C9MFBWIj1ANEWenSpbEXo4fvvvuOvJ+U9ezZE3uZB4gJLDijzidjEGuDmAvjPkwXFOCVV14hHyTKQrk2wi3Uq1ePvJeU7dmzB3uZw44dO3QF332Ng6/uxhJB2bhxI/kwUQbrKBh5YLaGuo+UgRdhJjBEMRovAePgq/uxRFCAOnXqkA8VZT/++CP2YgLx2muvkfeQssWLF2Ov4OHgKyODZYIyd+5c8uGijL0UOY4cOULeP8rMik9x8JXRg2WCAhQvXpx8yChjLyUwer7Y48aNw17GCTb4CgvdOPjqLSwVFHioqQeNMvZStPnzzz/J+0ZZpkyZlGvXrmFPY3DwlTGCpYIC6FlByV6Kf3r16kXeM8p69OiBvYwRbPAV4i2MN7FcUNhLCZ4zZ84oadOmJe8ZZfHx8dhTPxx8ZYLBckEB2EsJDj2rj+GFQSNw8JUxg5AICnspxrlw4YISGRlJ3ivK9u7diz3l4eArYxYhERRAj5eycOFC7MUMGjSIvEeUdejQAXvJw8FXxkxCJijwxiv1QFJm9ev2TgFmavTEM+Li4rCnHBx8ZcwmZIIC6PFSILeK19GzeVebNm2wlxzBBl85TSNDEVJB0eOl5M6dO+i1FE4GVsVGRESQ94Yy2YxsHHxlrCSkggIUKlSIfFAp83JWt06dOpH3hLKWLVtiL204+MpYTcgFZdKkSeTD6s8OHDiAPb1DbGwseS/82aZNm7CnfyD4qmfI6WscfGVkCLmgAFWqVCEfWsratm2LvbxDo0aNyHtBWfPmzbGXfzj4yoSKsAjK0qVLyQfXn61evRp7uh+YMqfugT8Dz0MLDr4yoSQsggK0aNGCfIgpq1mzJvZyPxUrViTvAWVdunTBXinh4CsTDsImKLBmgnqQ/ZkX3hHRE19Kly6d+gYyBQdfmXARNkEB4K1Y6oGmLFeuXK4PChYoUIC8dsqGDBmCvZLDwVcmnIRVUM6fP69kyZKFfLApM/rimxPo06cPec2U5c+fX7lz5w72/Jdggq/Qj4OvTLCEVVCAUaNGkQ+4P3Pj28hbt24lr9WfwdDIFw6+MnYg7IIClCpVinzQKStTpgz2cg96EnpD0DYpwQZf4cXAQDNFDCOLLQRlzpw55MPuz9y0HcPEiRPJa/RnSfcxMiP4yvESxkxsIShAq1atyIfen23fvh17OpfTp0/rGqY0bNgQe3LwlbEnthEU2MI0Q4YM5MNPWf369bGnc+nYsSN5bf5s586daj8OvjJ2xTaCAowdO5b8EvgzJ6c4WLJkCXlN/mzgwIFqPw6+MnbGVoICwKpY6stAWebMmZU//vgDezoL2IiLuibKSpYsycFXxhHYTlD0vmkbFRWFPZ3D4MGDyWvxZzNnzuTgK+MIbCcoQN++fckvhj8bMWIE9rQ/69atI6/Bn0EgloOvjFOIgP8kPni249FHHxV79+7FWmA2b94sKlWqhDX7Uq5cOZE49MCaNhkzZhSpU6cWly5dwhZ5smbNKmJiYkSioGALw1jPffh/2zF8+HAsyfHWW29hyb707NlTWkwA0HqjYjJ16lQWEyb0gIdiV9q3b5/Chdeyd955B3vaD715TowaB1+ZcGLbIQ8Af53LlCkjjhw5gi2BWbRokYiKisKaPbh8+bJ6HYcPH8YWa6hRo4b44YcfVA+FYcKBbYc8QObMmcX48eOxJkfXrl0NDROspFu3bpaLCQxvWEyYsKP6KTYHhjLwUWXtlVdewZ7h55tvviE/o1kGi9V45StjF2w95EkKzOBs2bIFa4EZN26c6q2Ek2PHjqlDnb/++gtbzOVu8LVJkybYwjDhxTGCEhsbKypXrow1OVavXi1q1qyJtdDTsGFDsXjxYqyZS9myZdUhTsGCBbGFYcKPrWMoSQEPZcSIEViTIzo6Wpw9exZroaV///6WiQkEX9esWcNiwtgP8FCcRIMGDZLFEAIZ7HETambPnk1+FjOMV74ydsZxggIvA2bKlIn8svmzRG8Be1vP3r17dX8+GePgK+MEHCcoAGypQX3ptAy8hlBQrVo18vzBGIgJpx1gnIAjBQXo2rUr+eXzZ5GRkcrvv/+Ova3h9ddfJ88djMHKV94jh3EKjpnloYAZnJ9//hlrgYFZok2bNmHNXD7//HORKChYMwde+co4DcfM8lB8+eWXIkeOHFgLDLyR3KFDB6yZx8aNG00XE175yjgS1U9xMPPnz08xTAhkAwYMwN7Bc+7cOeXRRx8lz2PEOPjKOBnHCwrw/vvvk19OLYPtK8wAkmVTxzdiHHxlnI4rBAVo2bIl+SXVMkgpEAx6s9ZrGQdfGTfg6KBsUq5cuaKupt2zZw+2BOb+++8Xa9euVbOo6WXQoEFi8ODBWAsODr4ybsHRQdmkgDhMmTIFa3KACL300kvi9OnT2CIHnMcsMeHgK+MqVD/FRcBG4nBZeqxWrVrYOzBLly4lj6HXOPjKuBHXCQoAm2JRX2Ita9u2Lfb2T1xcnCoEVH89xsFXxq24UlCADh06kF9mLevVqxf2Tsn58+eVUqVKkf30GAdfGTfjWkEBjEzpxsTEYO/kPPPMM+TP6zHecItxO64WFKNexfDhw/EI/9CsWTPy5/QYpx1gvICrBQXYtWuXki1bNvJLrmWwcTvQunVr8t9ljYOvjJdwzToULZYtWyYShyxYk+epp54S69evx5p+YCqYc74yXsITggJ89dVXomPHjlizHs75yngR1yxsCwS8ZTxkyBCsWQvnfGW8imcEBRg4cKC66ZaV8MpXxst4ZsiTlM6dO4tJkyZhzRxAQGJiYniDcsbTeFJQgJdffllMmzYNa8HBwVeG+QfPCgrQokULMW/ePKwZg4OvDPMvnhYUICoqSixZsgRr+uC0AwyTHE8FZSnmz58vatWqhTV5OPjKMCnxvIcCXL58WdSvX18qI366dOnE8OHDOfjKMASe91CATJkyqZ4KxEOAKlWqqP/3JW3atGL27NksJgzjB/ZQknD06FHxv//9T11y37RpU1Vk7pItWzaxfft2Dr4yjAYsKH64cOGCupHYzp07OfjKMJKwoGgAojJmzBh1iMNiwjCBYUFhGMYkhPh/ghwuM1WE94UAAAAASUVORK5CYII=;rotation=-180;" parent="1" vertex="1">
                    <mxGeometry x="2618.3" y="101" width="51.7" height="59" as="geometry"/>
                </mxCell>
                <mxCell id="504" value="" style="ellipse;whiteSpace=wrap;html=1;aspect=fixed;fontSize=27;fontColor=#000000;strokeColor=#000000;fillColor=#FFFFFF;strokeWidth=2;" parent="1" vertex="1">
                    <mxGeometry x="3095" y="-150" width="40" height="40" as="geometry"/>
                </mxCell>
                <mxCell id="505" value="" style="ellipse;whiteSpace=wrap;html=1;aspect=fixed;fontSize=27;fontColor=#000000;strokeColor=#000000;fillColor=#FFFFFF;strokeWidth=2;" parent="1" vertex="1">
                    <mxGeometry x="3085" y="-150" width="40" height="40" as="geometry"/>
                </mxCell>
                <mxCell id="506" value="" style="ellipse;whiteSpace=wrap;html=1;aspect=fixed;fontSize=27;fontColor=#000000;strokeColor=#000000;fillColor=#FFFFFF;strokeWidth=2;" parent="1" vertex="1">
                    <mxGeometry x="3075" y="-150" width="40" height="40" as="geometry"/>
                </mxCell>
                <mxCell id="549" value="Target Object" style="text;html=1;align=center;verticalAlign=middle;whiteSpace=wrap;rounded=0;fontSize=24;fontColor=#000000;" parent="1" vertex="1">
                    <mxGeometry x="2570" y="-140" width="60" height="30" as="geometry"/>
                </mxCell>
                <mxCell id="551" value="LiDAR&lt;br style=&quot;font-size: 10px;&quot;&gt;Tx" style="text;html=1;strokeColor=none;fillColor=none;align=center;verticalAlign=middle;whiteSpace=wrap;rounded=0;fontColor=#000000;fontSize=10;" vertex="1" parent="1">
                    <mxGeometry x="1840" y="-965" width="60" height="30" as="geometry"/>
                </mxCell>
                <mxCell id="552" value="FSO Tx" style="text;html=1;strokeColor=none;fillColor=none;align=center;verticalAlign=middle;whiteSpace=wrap;rounded=0;fontColor=#000000;fontSize=10;" vertex="1" parent="1">
                    <mxGeometry x="1720" y="-885" width="60" height="30" as="geometry"/>
                </mxCell>
                <mxCell id="553" value="LiDAR&lt;br style=&quot;font-size: 10px;&quot;&gt;Rx1" style="text;html=1;strokeColor=none;fillColor=none;align=center;verticalAlign=middle;whiteSpace=wrap;rounded=0;fontColor=#000000;fontSize=10;" vertex="1" parent="1">
                    <mxGeometry x="1840" y="-925" width="60" height="30" as="geometry"/>
                </mxCell>
                <mxCell id="554" value="LiDAR&lt;br style=&quot;font-size: 10px;&quot;&gt;Rx2" style="text;html=1;strokeColor=none;fillColor=none;align=center;verticalAlign=middle;whiteSpace=wrap;rounded=0;fontColor=#000000;fontSize=10;" vertex="1" parent="1">
                    <mxGeometry x="1840" y="-885" width="60" height="30" as="geometry"/>
                </mxCell>
                <mxCell id="550" value="Target&lt;br style=&quot;font-size: 10px;&quot;&gt;Object" style="text;html=1;strokeColor=none;fillColor=none;align=center;verticalAlign=middle;whiteSpace=wrap;rounded=0;fontColor=#000000;fontSize=10;" vertex="1" parent="1">
                    <mxGeometry x="1740" y="-1002" width="60" height="30" as="geometry"/>
                </mxCell>
            </root>
        </mxGraphModel>
    </diagram>
</mxfile>